%TF.GenerationSoftware,KiCad,Pcbnew,9.0.6*%
%TF.CreationDate,2026-03-30T14:03:52-05:00*%
%TF.ProjectId,88-CCC Board 1,38382d43-4343-4204-926f-61726420312e,rev?*%
%TF.SameCoordinates,Original*%
%TF.FileFunction,Legend,Bot*%
%TF.FilePolarity,Positive*%
%FSLAX46Y46*%
G04 Gerber Fmt 4.6, Leading zero omitted, Abs format (unit mm)*
G04 Created by KiCad (PCBNEW 9.0.6) date 2026-03-30 14:03:52*
%MOMM*%
%LPD*%
G01*
G04 APERTURE LIST*
%ADD10C,0.304800*%
G04 APERTURE END LIST*
D10*
X260680426Y-144690435D02*
X261347093Y-143547578D01*
X261823283Y-144690435D02*
X261823283Y-142290435D01*
X261823283Y-142290435D02*
X261061378Y-142290435D01*
X261061378Y-142290435D02*
X260870902Y-142404721D01*
X260870902Y-142404721D02*
X260775664Y-142519007D01*
X260775664Y-142519007D02*
X260680426Y-142747578D01*
X260680426Y-142747578D02*
X260680426Y-143090435D01*
X260680426Y-143090435D02*
X260775664Y-143319007D01*
X260775664Y-143319007D02*
X260870902Y-143433292D01*
X260870902Y-143433292D02*
X261061378Y-143547578D01*
X261061378Y-143547578D02*
X261823283Y-143547578D01*
X259823283Y-143433292D02*
X259156616Y-143433292D01*
X258870902Y-144690435D02*
X259823283Y-144690435D01*
X259823283Y-144690435D02*
X259823283Y-142290435D01*
X259823283Y-142290435D02*
X258870902Y-142290435D01*
X258013759Y-144690435D02*
X258013759Y-142290435D01*
X258013759Y-142290435D02*
X257251854Y-142290435D01*
X257251854Y-142290435D02*
X257061378Y-142404721D01*
X257061378Y-142404721D02*
X256966140Y-142519007D01*
X256966140Y-142519007D02*
X256870902Y-142747578D01*
X256870902Y-142747578D02*
X256870902Y-143090435D01*
X256870902Y-143090435D02*
X256966140Y-143319007D01*
X256966140Y-143319007D02*
X257061378Y-143433292D01*
X257061378Y-143433292D02*
X257251854Y-143547578D01*
X257251854Y-143547578D02*
X258013759Y-143547578D01*
X254870902Y-144690435D02*
X255537569Y-143547578D01*
X256013759Y-144690435D02*
X256013759Y-142290435D01*
X256013759Y-142290435D02*
X255251854Y-142290435D01*
X255251854Y-142290435D02*
X255061378Y-142404721D01*
X255061378Y-142404721D02*
X254966140Y-142519007D01*
X254966140Y-142519007D02*
X254870902Y-142747578D01*
X254870902Y-142747578D02*
X254870902Y-143090435D01*
X254870902Y-143090435D02*
X254966140Y-143319007D01*
X254966140Y-143319007D02*
X255061378Y-143433292D01*
X255061378Y-143433292D02*
X255251854Y-143547578D01*
X255251854Y-143547578D02*
X256013759Y-143547578D01*
X253632807Y-142290435D02*
X253251854Y-142290435D01*
X253251854Y-142290435D02*
X253061378Y-142404721D01*
X253061378Y-142404721D02*
X252870902Y-142633292D01*
X252870902Y-142633292D02*
X252775664Y-143090435D01*
X252775664Y-143090435D02*
X252775664Y-143890435D01*
X252775664Y-143890435D02*
X252870902Y-144347578D01*
X252870902Y-144347578D02*
X253061378Y-144576150D01*
X253061378Y-144576150D02*
X253251854Y-144690435D01*
X253251854Y-144690435D02*
X253632807Y-144690435D01*
X253632807Y-144690435D02*
X253823283Y-144576150D01*
X253823283Y-144576150D02*
X254013759Y-144347578D01*
X254013759Y-144347578D02*
X254108997Y-143890435D01*
X254108997Y-143890435D02*
X254108997Y-143090435D01*
X254108997Y-143090435D02*
X254013759Y-142633292D01*
X254013759Y-142633292D02*
X253823283Y-142404721D01*
X253823283Y-142404721D02*
X253632807Y-142290435D01*
X251918521Y-144690435D02*
X251918521Y-142290435D01*
X251918521Y-142290435D02*
X251442331Y-142290435D01*
X251442331Y-142290435D02*
X251156616Y-142404721D01*
X251156616Y-142404721D02*
X250966140Y-142633292D01*
X250966140Y-142633292D02*
X250870902Y-142861864D01*
X250870902Y-142861864D02*
X250775664Y-143319007D01*
X250775664Y-143319007D02*
X250775664Y-143661864D01*
X250775664Y-143661864D02*
X250870902Y-144119007D01*
X250870902Y-144119007D02*
X250966140Y-144347578D01*
X250966140Y-144347578D02*
X251156616Y-144576150D01*
X251156616Y-144576150D02*
X251442331Y-144690435D01*
X251442331Y-144690435D02*
X251918521Y-144690435D01*
X249918521Y-142290435D02*
X249918521Y-144233292D01*
X249918521Y-144233292D02*
X249823283Y-144461864D01*
X249823283Y-144461864D02*
X249728045Y-144576150D01*
X249728045Y-144576150D02*
X249537569Y-144690435D01*
X249537569Y-144690435D02*
X249156616Y-144690435D01*
X249156616Y-144690435D02*
X248966140Y-144576150D01*
X248966140Y-144576150D02*
X248870902Y-144461864D01*
X248870902Y-144461864D02*
X248775664Y-144233292D01*
X248775664Y-144233292D02*
X248775664Y-142290435D01*
X246680426Y-144461864D02*
X246775664Y-144576150D01*
X246775664Y-144576150D02*
X247061378Y-144690435D01*
X247061378Y-144690435D02*
X247251854Y-144690435D01*
X247251854Y-144690435D02*
X247537569Y-144576150D01*
X247537569Y-144576150D02*
X247728045Y-144347578D01*
X247728045Y-144347578D02*
X247823283Y-144119007D01*
X247823283Y-144119007D02*
X247918521Y-143661864D01*
X247918521Y-143661864D02*
X247918521Y-143319007D01*
X247918521Y-143319007D02*
X247823283Y-142861864D01*
X247823283Y-142861864D02*
X247728045Y-142633292D01*
X247728045Y-142633292D02*
X247537569Y-142404721D01*
X247537569Y-142404721D02*
X247251854Y-142290435D01*
X247251854Y-142290435D02*
X247061378Y-142290435D01*
X247061378Y-142290435D02*
X246775664Y-142404721D01*
X246775664Y-142404721D02*
X246680426Y-142519007D01*
X246108997Y-142290435D02*
X244966140Y-142290435D01*
X245537569Y-144690435D02*
X245537569Y-142290435D01*
X244299473Y-144690435D02*
X244299473Y-142290435D01*
X242966140Y-142290435D02*
X242585187Y-142290435D01*
X242585187Y-142290435D02*
X242394711Y-142404721D01*
X242394711Y-142404721D02*
X242204235Y-142633292D01*
X242204235Y-142633292D02*
X242108997Y-143090435D01*
X242108997Y-143090435D02*
X242108997Y-143890435D01*
X242108997Y-143890435D02*
X242204235Y-144347578D01*
X242204235Y-144347578D02*
X242394711Y-144576150D01*
X242394711Y-144576150D02*
X242585187Y-144690435D01*
X242585187Y-144690435D02*
X242966140Y-144690435D01*
X242966140Y-144690435D02*
X243156616Y-144576150D01*
X243156616Y-144576150D02*
X243347092Y-144347578D01*
X243347092Y-144347578D02*
X243442330Y-143890435D01*
X243442330Y-143890435D02*
X243442330Y-143090435D01*
X243442330Y-143090435D02*
X243347092Y-142633292D01*
X243347092Y-142633292D02*
X243156616Y-142404721D01*
X243156616Y-142404721D02*
X242966140Y-142290435D01*
X241251854Y-144690435D02*
X241251854Y-142290435D01*
X241251854Y-142290435D02*
X240108997Y-144690435D01*
X240108997Y-144690435D02*
X240108997Y-142290435D01*
X237728044Y-142519007D02*
X237632806Y-142404721D01*
X237632806Y-142404721D02*
X237442330Y-142290435D01*
X237442330Y-142290435D02*
X236966139Y-142290435D01*
X236966139Y-142290435D02*
X236775663Y-142404721D01*
X236775663Y-142404721D02*
X236680425Y-142519007D01*
X236680425Y-142519007D02*
X236585187Y-142747578D01*
X236585187Y-142747578D02*
X236585187Y-142976150D01*
X236585187Y-142976150D02*
X236680425Y-143319007D01*
X236680425Y-143319007D02*
X237823282Y-144690435D01*
X237823282Y-144690435D02*
X236585187Y-144690435D01*
X235347092Y-142290435D02*
X235156615Y-142290435D01*
X235156615Y-142290435D02*
X234966139Y-142404721D01*
X234966139Y-142404721D02*
X234870901Y-142519007D01*
X234870901Y-142519007D02*
X234775663Y-142747578D01*
X234775663Y-142747578D02*
X234680425Y-143204721D01*
X234680425Y-143204721D02*
X234680425Y-143776150D01*
X234680425Y-143776150D02*
X234775663Y-144233292D01*
X234775663Y-144233292D02*
X234870901Y-144461864D01*
X234870901Y-144461864D02*
X234966139Y-144576150D01*
X234966139Y-144576150D02*
X235156615Y-144690435D01*
X235156615Y-144690435D02*
X235347092Y-144690435D01*
X235347092Y-144690435D02*
X235537568Y-144576150D01*
X235537568Y-144576150D02*
X235632806Y-144461864D01*
X235632806Y-144461864D02*
X235728044Y-144233292D01*
X235728044Y-144233292D02*
X235823282Y-143776150D01*
X235823282Y-143776150D02*
X235823282Y-143204721D01*
X235823282Y-143204721D02*
X235728044Y-142747578D01*
X235728044Y-142747578D02*
X235632806Y-142519007D01*
X235632806Y-142519007D02*
X235537568Y-142404721D01*
X235537568Y-142404721D02*
X235347092Y-142290435D01*
X233918520Y-142519007D02*
X233823282Y-142404721D01*
X233823282Y-142404721D02*
X233632806Y-142290435D01*
X233632806Y-142290435D02*
X233156615Y-142290435D01*
X233156615Y-142290435D02*
X232966139Y-142404721D01*
X232966139Y-142404721D02*
X232870901Y-142519007D01*
X232870901Y-142519007D02*
X232775663Y-142747578D01*
X232775663Y-142747578D02*
X232775663Y-142976150D01*
X232775663Y-142976150D02*
X232870901Y-143319007D01*
X232870901Y-143319007D02*
X234013758Y-144690435D01*
X234013758Y-144690435D02*
X232775663Y-144690435D01*
X231061377Y-142290435D02*
X231442330Y-142290435D01*
X231442330Y-142290435D02*
X231632806Y-142404721D01*
X231632806Y-142404721D02*
X231728044Y-142519007D01*
X231728044Y-142519007D02*
X231918520Y-142861864D01*
X231918520Y-142861864D02*
X232013758Y-143319007D01*
X232013758Y-143319007D02*
X232013758Y-144233292D01*
X232013758Y-144233292D02*
X231918520Y-144461864D01*
X231918520Y-144461864D02*
X231823282Y-144576150D01*
X231823282Y-144576150D02*
X231632806Y-144690435D01*
X231632806Y-144690435D02*
X231251853Y-144690435D01*
X231251853Y-144690435D02*
X231061377Y-144576150D01*
X231061377Y-144576150D02*
X230966139Y-144461864D01*
X230966139Y-144461864D02*
X230870901Y-144233292D01*
X230870901Y-144233292D02*
X230870901Y-143661864D01*
X230870901Y-143661864D02*
X230966139Y-143433292D01*
X230966139Y-143433292D02*
X231061377Y-143319007D01*
X231061377Y-143319007D02*
X231251853Y-143204721D01*
X231251853Y-143204721D02*
X231632806Y-143204721D01*
X231632806Y-143204721D02*
X231823282Y-143319007D01*
X231823282Y-143319007D02*
X231918520Y-143433292D01*
X231918520Y-143433292D02*
X232013758Y-143661864D01*
X228585186Y-144004721D02*
X227632805Y-144004721D01*
X228775662Y-144690435D02*
X228108996Y-142290435D01*
X228108996Y-142290435D02*
X227442329Y-144690435D01*
X225632805Y-144690435D02*
X226299472Y-143547578D01*
X226775662Y-144690435D02*
X226775662Y-142290435D01*
X226775662Y-142290435D02*
X226013757Y-142290435D01*
X226013757Y-142290435D02*
X225823281Y-142404721D01*
X225823281Y-142404721D02*
X225728043Y-142519007D01*
X225728043Y-142519007D02*
X225632805Y-142747578D01*
X225632805Y-142747578D02*
X225632805Y-143090435D01*
X225632805Y-143090435D02*
X225728043Y-143319007D01*
X225728043Y-143319007D02*
X225823281Y-143433292D01*
X225823281Y-143433292D02*
X226013757Y-143547578D01*
X226013757Y-143547578D02*
X226775662Y-143547578D01*
X224394710Y-142290435D02*
X224013757Y-142290435D01*
X224013757Y-142290435D02*
X223823281Y-142404721D01*
X223823281Y-142404721D02*
X223632805Y-142633292D01*
X223632805Y-142633292D02*
X223537567Y-143090435D01*
X223537567Y-143090435D02*
X223537567Y-143890435D01*
X223537567Y-143890435D02*
X223632805Y-144347578D01*
X223632805Y-144347578D02*
X223823281Y-144576150D01*
X223823281Y-144576150D02*
X224013757Y-144690435D01*
X224013757Y-144690435D02*
X224394710Y-144690435D01*
X224394710Y-144690435D02*
X224585186Y-144576150D01*
X224585186Y-144576150D02*
X224775662Y-144347578D01*
X224775662Y-144347578D02*
X224870900Y-143890435D01*
X224870900Y-143890435D02*
X224870900Y-143090435D01*
X224870900Y-143090435D02*
X224775662Y-142633292D01*
X224775662Y-142633292D02*
X224585186Y-142404721D01*
X224585186Y-142404721D02*
X224394710Y-142290435D01*
X222680424Y-144690435D02*
X222680424Y-142290435D01*
X222680424Y-142290435D02*
X221537567Y-144690435D01*
X221537567Y-144690435D02*
X221537567Y-142290435D01*
X219061376Y-144690435D02*
X219061376Y-142290435D01*
X219061376Y-143433292D02*
X217918519Y-143433292D01*
X217918519Y-144690435D02*
X217918519Y-142290435D01*
X216585186Y-142290435D02*
X216204233Y-142290435D01*
X216204233Y-142290435D02*
X216013757Y-142404721D01*
X216013757Y-142404721D02*
X215823281Y-142633292D01*
X215823281Y-142633292D02*
X215728043Y-143090435D01*
X215728043Y-143090435D02*
X215728043Y-143890435D01*
X215728043Y-143890435D02*
X215823281Y-144347578D01*
X215823281Y-144347578D02*
X216013757Y-144576150D01*
X216013757Y-144576150D02*
X216204233Y-144690435D01*
X216204233Y-144690435D02*
X216585186Y-144690435D01*
X216585186Y-144690435D02*
X216775662Y-144576150D01*
X216775662Y-144576150D02*
X216966138Y-144347578D01*
X216966138Y-144347578D02*
X217061376Y-143890435D01*
X217061376Y-143890435D02*
X217061376Y-143090435D01*
X217061376Y-143090435D02*
X216966138Y-142633292D01*
X216966138Y-142633292D02*
X216775662Y-142404721D01*
X216775662Y-142404721D02*
X216585186Y-142290435D01*
X214870900Y-143433292D02*
X214204233Y-143433292D01*
X213918519Y-144690435D02*
X214870900Y-144690435D01*
X214870900Y-144690435D02*
X214870900Y-142290435D01*
X214870900Y-142290435D02*
X213918519Y-142290435D01*
X213061376Y-144690435D02*
X213061376Y-142290435D01*
X211918519Y-144690435D02*
X212775662Y-143319007D01*
X211918519Y-142290435D02*
X213061376Y-143661864D01*
X211156614Y-144576150D02*
X210870900Y-144690435D01*
X210870900Y-144690435D02*
X210394709Y-144690435D01*
X210394709Y-144690435D02*
X210204233Y-144576150D01*
X210204233Y-144576150D02*
X210108995Y-144461864D01*
X210108995Y-144461864D02*
X210013757Y-144233292D01*
X210013757Y-144233292D02*
X210013757Y-144004721D01*
X210013757Y-144004721D02*
X210108995Y-143776150D01*
X210108995Y-143776150D02*
X210204233Y-143661864D01*
X210204233Y-143661864D02*
X210394709Y-143547578D01*
X210394709Y-143547578D02*
X210775662Y-143433292D01*
X210775662Y-143433292D02*
X210966138Y-143319007D01*
X210966138Y-143319007D02*
X211061376Y-143204721D01*
X211061376Y-143204721D02*
X211156614Y-142976150D01*
X211156614Y-142976150D02*
X211156614Y-142747578D01*
X211156614Y-142747578D02*
X211061376Y-142519007D01*
X211061376Y-142519007D02*
X210966138Y-142404721D01*
X210966138Y-142404721D02*
X210775662Y-142290435D01*
X210775662Y-142290435D02*
X210299471Y-142290435D01*
X210299471Y-142290435D02*
X210013757Y-142404721D01*
X209442328Y-142290435D02*
X208299471Y-142290435D01*
X208870900Y-144690435D02*
X208870900Y-142290435D01*
X206489947Y-144690435D02*
X207156614Y-143547578D01*
X207632804Y-144690435D02*
X207632804Y-142290435D01*
X207632804Y-142290435D02*
X206870899Y-142290435D01*
X206870899Y-142290435D02*
X206680423Y-142404721D01*
X206680423Y-142404721D02*
X206585185Y-142519007D01*
X206585185Y-142519007D02*
X206489947Y-142747578D01*
X206489947Y-142747578D02*
X206489947Y-143090435D01*
X206489947Y-143090435D02*
X206585185Y-143319007D01*
X206585185Y-143319007D02*
X206680423Y-143433292D01*
X206680423Y-143433292D02*
X206870899Y-143547578D01*
X206870899Y-143547578D02*
X207632804Y-143547578D01*
X205728042Y-144004721D02*
X204775661Y-144004721D01*
X205918518Y-144690435D02*
X205251852Y-142290435D01*
X205251852Y-142290435D02*
X204585185Y-144690435D01*
M02*
