%TF.GenerationSoftware,KiCad,Pcbnew,9.0.6*%
%TF.CreationDate,2026-03-30T14:03:52-05:00*%
%TF.ProjectId,88-CCC Board 1,38382d43-4343-4204-926f-61726420312e,rev?*%
%TF.SameCoordinates,Original*%
%TF.FileFunction,Copper,L1,Top*%
%TF.FilePolarity,Positive*%
%FSLAX46Y46*%
G04 Gerber Fmt 4.6, Leading zero omitted, Abs format (unit mm)*
G04 Created by KiCad (PCBNEW 9.0.6) date 2026-03-30 14:03:52*
%MOMM*%
%LPD*%
G01*
G04 APERTURE LIST*
G04 Aperture macros list*
%AMRoundRect*
0 Rectangle with rounded corners*
0 $1 Rounding radius*
0 $2 $3 $4 $5 $6 $7 $8 $9 X,Y pos of 4 corners*
0 Add a 4 corners polygon primitive as box body*
4,1,4,$2,$3,$4,$5,$6,$7,$8,$9,$2,$3,0*
0 Add four circle primitives for the rounded corners*
1,1,$1+$1,$2,$3*
1,1,$1+$1,$4,$5*
1,1,$1+$1,$6,$7*
1,1,$1+$1,$8,$9*
0 Add four rect primitives between the rounded corners*
20,1,$1+$1,$2,$3,$4,$5,0*
20,1,$1+$1,$4,$5,$6,$7,0*
20,1,$1+$1,$6,$7,$8,$9,0*
20,1,$1+$1,$8,$9,$2,$3,0*%
G04 Aperture macros list end*
%TA.AperFunction,Conductor*%
%ADD10C,0.100000*%
%TD*%
%TA.AperFunction,ComponentPad*%
%ADD11C,2.000000*%
%TD*%
%TA.AperFunction,ComponentPad*%
%ADD12C,1.600000*%
%TD*%
%TA.AperFunction,ComponentPad*%
%ADD13RoundRect,0.250000X0.550000X-0.550000X0.550000X0.550000X-0.550000X0.550000X-0.550000X-0.550000X0*%
%TD*%
%TA.AperFunction,ComponentPad*%
%ADD14R,1.300000X1.300000*%
%TD*%
%TA.AperFunction,ComponentPad*%
%ADD15C,1.300000*%
%TD*%
%TA.AperFunction,ConnectorPad*%
%ADD16R,2.794000X7.620000*%
%TD*%
%TA.AperFunction,ConnectorPad*%
%ADD17R,1.778000X7.620000*%
%TD*%
%TA.AperFunction,ComponentPad*%
%ADD18C,1.905000*%
%TD*%
%TA.AperFunction,ComponentPad*%
%ADD19O,1.905000X2.000000*%
%TD*%
%TA.AperFunction,ViaPad*%
%ADD20C,0.900000*%
%TD*%
%TA.AperFunction,ViaPad*%
%ADD21C,0.600000*%
%TD*%
%TA.AperFunction,Conductor*%
%ADD22C,1.000000*%
%TD*%
%TA.AperFunction,Conductor*%
%ADD23C,0.300000*%
%TD*%
G04 APERTURE END LIST*
D10*
%TO.N,+8V*%
X28663200Y-63392600D02*
X21830600Y-63392600D01*
X21856000Y-84398400D01*
X24208375Y-84398400D01*
X24233775Y-86328800D01*
X21830600Y-86328800D01*
X21830600Y-96819000D01*
X21551200Y-97123800D01*
X21398800Y-97530200D01*
X21322600Y-97835000D01*
X21246400Y-98190600D01*
X21322600Y-98647800D01*
X21424200Y-99054200D01*
X21678200Y-99359000D01*
X21830600Y-99562200D01*
X21830600Y-116478600D01*
X21729000Y-116758000D01*
X21576600Y-117012000D01*
X21398800Y-117367600D01*
X21322600Y-117748600D01*
X21373400Y-118409000D01*
X21525800Y-118840800D01*
X21856000Y-119298000D01*
X21856000Y-122015800D01*
X21627400Y-122193600D01*
X21424200Y-122523800D01*
X21221000Y-122828600D01*
X21170200Y-123260400D01*
X21195600Y-123870000D01*
X21297200Y-124352600D01*
X21500400Y-124682800D01*
X21856000Y-125013000D01*
X21830600Y-133268000D01*
X31431800Y-143097800D01*
X50177000Y-143072400D01*
X54418800Y-147492000D01*
X54418800Y-149016000D01*
X53072600Y-149041400D01*
X50532600Y-145993400D01*
X30339600Y-146069600D01*
X15277400Y-131363000D01*
X15252000Y-61919400D01*
X28663200Y-61919400D01*
X28663200Y-63392600D01*
%TA.AperFunction,Conductor*%
G36*
X28663200Y-63392600D02*
G01*
X21830600Y-63392600D01*
X21856000Y-84398400D01*
X24208375Y-84398400D01*
X24233775Y-86328800D01*
X21830600Y-86328800D01*
X21830600Y-96819000D01*
X21551200Y-97123800D01*
X21398800Y-97530200D01*
X21322600Y-97835000D01*
X21246400Y-98190600D01*
X21322600Y-98647800D01*
X21424200Y-99054200D01*
X21678200Y-99359000D01*
X21830600Y-99562200D01*
X21830600Y-116478600D01*
X21729000Y-116758000D01*
X21576600Y-117012000D01*
X21398800Y-117367600D01*
X21322600Y-117748600D01*
X21373400Y-118409000D01*
X21525800Y-118840800D01*
X21856000Y-119298000D01*
X21856000Y-122015800D01*
X21627400Y-122193600D01*
X21424200Y-122523800D01*
X21221000Y-122828600D01*
X21170200Y-123260400D01*
X21195600Y-123870000D01*
X21297200Y-124352600D01*
X21500400Y-124682800D01*
X21856000Y-125013000D01*
X21830600Y-133268000D01*
X31431800Y-143097800D01*
X50177000Y-143072400D01*
X54418800Y-147492000D01*
X54418800Y-149016000D01*
X53072600Y-149041400D01*
X50532600Y-145993400D01*
X30339600Y-146069600D01*
X15277400Y-131363000D01*
X15252000Y-61919400D01*
X28663200Y-61919400D01*
X28663200Y-63392600D01*
G37*
%TD.AperFunction*%
%TO.N,GND*%
X260147549Y-22754000D02*
X266446749Y-29027800D01*
X266446749Y-149500000D01*
X211277949Y-149500000D01*
X208687149Y-149347600D01*
X208687149Y-148382400D01*
X210566749Y-145436000D01*
X212014549Y-143404000D01*
X212649549Y-142997600D01*
X254229349Y-142997600D01*
X261315949Y-136088800D01*
X261366749Y-41880200D01*
X258496549Y-41880200D01*
X258496549Y-35860400D01*
X261315949Y-35860400D01*
X254813549Y-28824600D01*
X50902349Y-28824600D01*
X49276749Y-30323200D01*
X48590949Y-31009000D01*
X48616349Y-48763600D01*
X38989749Y-60142800D01*
X12624549Y-60142800D01*
X12624549Y-29027800D01*
X18949149Y-22703200D01*
X260147549Y-22754000D01*
%TA.AperFunction,Conductor*%
G36*
X260147549Y-22754000D02*
G01*
X266446749Y-29027800D01*
X266446749Y-149500000D01*
X211277949Y-149500000D01*
X208687149Y-149347600D01*
X208687149Y-148382400D01*
X210566749Y-145436000D01*
X212014549Y-143404000D01*
X212649549Y-142997600D01*
X254229349Y-142997600D01*
X261315949Y-136088800D01*
X261366749Y-41880200D01*
X258496549Y-41880200D01*
X258496549Y-35860400D01*
X261315949Y-35860400D01*
X254813549Y-28824600D01*
X50902349Y-28824600D01*
X49276749Y-30323200D01*
X48590949Y-31009000D01*
X48616349Y-48763600D01*
X38989749Y-60142800D01*
X12624549Y-60142800D01*
X12624549Y-29027800D01*
X18949149Y-22703200D01*
X260147549Y-22754000D01*
G37*
%TD.AperFunction*%
X265781444Y-28675178D02*
X266187844Y-149248978D01*
X208631444Y-149426778D01*
X208631444Y-148207578D01*
X209215644Y-146429578D01*
X211552444Y-143965778D01*
X253487844Y-143991178D01*
X261336444Y-135863178D01*
X261311044Y-35583978D01*
X254808644Y-28649778D01*
X50922844Y-28649778D01*
X48636844Y-30732578D01*
X48636844Y-48563378D01*
X39010244Y-59993378D01*
X13026044Y-59993378D01*
X13051444Y-28852978D01*
X18918844Y-22807778D01*
X259964844Y-22807778D01*
X265781444Y-28675178D01*
%TA.AperFunction,Conductor*%
G36*
X265781444Y-28675178D02*
G01*
X266187844Y-149248978D01*
X208631444Y-149426778D01*
X208631444Y-148207578D01*
X209215644Y-146429578D01*
X211552444Y-143965778D01*
X253487844Y-143991178D01*
X261336444Y-135863178D01*
X261311044Y-35583978D01*
X254808644Y-28649778D01*
X50922844Y-28649778D01*
X48636844Y-30732578D01*
X48636844Y-48563378D01*
X39010244Y-59993378D01*
X13026044Y-59993378D01*
X13051444Y-28852978D01*
X18918844Y-22807778D01*
X259964844Y-22807778D01*
X265781444Y-28675178D01*
G37*
%TD.AperFunction*%
%TD*%
D11*
%TO.P,C1,2*%
%TO.N,GND*%
X80350000Y-126900000D03*
%TO.P,C1,1*%
%TO.N,PSYNC*%
X80350000Y-119400000D03*
%TD*%
D12*
%TO.P,R4,1*%
%TO.N,+5V*%
X76000000Y-118400000D03*
%TO.P,R4,2*%
%TO.N,PHLDA*%
X76000000Y-128560000D03*
%TD*%
%TO.P,C10,1*%
%TO.N,+8V*%
X23200000Y-85400000D03*
%TO.P,C10,2*%
%TO.N,GND*%
X23200000Y-60400000D03*
%TD*%
D13*
%TO.P,U21,1,CP1..3*%
%TO.N,Net-(J11-Pin_2)*%
X230000000Y-76000000D03*
D12*
%TO.P,U21,2,R0(1)*%
%TO.N,Net-(J11-Pin_3)*%
X232540000Y-76000000D03*
%TO.P,U21,3,R0(2)*%
X235080000Y-76000000D03*
%TO.P,U21,4*%
%TO.N,N/C*%
X237620000Y-76000000D03*
%TO.P,U21,5,VCC*%
%TO.N,+5V*%
X240160000Y-76000000D03*
%TO.P,U21,6*%
%TO.N,N/C*%
X242700000Y-76000000D03*
%TO.P,U21,7*%
X245240000Y-76000000D03*
%TO.P,U21,8,Q2*%
%TO.N,Net-(U21-Q2)*%
X245240000Y-68380000D03*
%TO.P,U21,9,Q1*%
%TO.N,Net-(U12-I1)*%
X242700000Y-68380000D03*
%TO.P,U21,10,GND*%
%TO.N,GND*%
X240160000Y-68380000D03*
%TO.P,U21,11,Q3*%
%TO.N,Net-(U21-Q3)*%
X237620000Y-68380000D03*
%TO.P,U21,12,Q0*%
%TO.N,unconnected-(U21-Q0-Pad12)*%
X235080000Y-68380000D03*
%TO.P,U21,13*%
%TO.N,N/C*%
X232540000Y-68380000D03*
%TO.P,U21,14,CP0*%
%TO.N,unconnected-(U21-CP0-Pad14)*%
X230000000Y-68380000D03*
%TD*%
D13*
%TO.P,U45,1,OEa*%
%TO.N,Net-(J11-Pin_7)*%
X112300000Y-127000000D03*
D12*
%TO.P,U45,2,I1*%
%TO.N,unconnected-(U45-I1-Pad2)*%
X114840000Y-127000000D03*
%TO.P,U45,3,O1a*%
%TO.N,unconnected-(U45-O1a-Pad3)*%
X117380000Y-127000000D03*
%TO.P,U45,4,I2*%
%TO.N,Net-(U26-S2)*%
X119920000Y-127000000D03*
%TO.P,U45,5,O2a*%
%TO.N,A12*%
X122460000Y-127000000D03*
%TO.P,U45,6,I3*%
%TO.N,Net-(U26-S4)*%
X125000000Y-127000000D03*
%TO.P,U45,7,O3a*%
%TO.N,A14*%
X127540000Y-127000000D03*
%TO.P,U45,8,GND*%
%TO.N,GND*%
X130080000Y-127000000D03*
%TO.P,U45,9,O4a*%
%TO.N,A11*%
X130080000Y-119380000D03*
%TO.P,U45,10,I4*%
%TO.N,Net-(U26-S1)*%
X127540000Y-119380000D03*
%TO.P,U45,11,O5b*%
%TO.N,A13*%
X125000000Y-119380000D03*
%TO.P,U45,12,I5*%
%TO.N,Net-(U26-S3)*%
X122460000Y-119380000D03*
%TO.P,U45,13,O6b*%
%TO.N,A15*%
X119920000Y-119380000D03*
%TO.P,U45,14,I6*%
%TO.N,Net-(U26-C4)*%
X117380000Y-119380000D03*
%TO.P,U45,15,OEb*%
%TO.N,Net-(J11-Pin_7)*%
X114840000Y-119380000D03*
%TO.P,U45,16,VCC*%
%TO.N,+5V*%
X112300000Y-119380000D03*
%TD*%
D13*
%TO.P,J11,1,Pin_1*%
%TO.N,Net-(J11-Pin_1)*%
X228730000Y-50120000D03*
D12*
%TO.P,J11,2,Pin_2*%
%TO.N,Net-(J11-Pin_2)*%
X231270000Y-50120000D03*
%TO.P,J11,3,Pin_3*%
%TO.N,Net-(J11-Pin_3)*%
X233810000Y-50120000D03*
%TO.P,J11,4,Pin_4*%
%TO.N,unconnected-(J11-Pin_4-Pad4)*%
X236350000Y-50120000D03*
%TO.P,J11,5,Pin_5*%
%TO.N,Net-(J11-Pin_5)*%
X238890000Y-50120000D03*
%TO.P,J11,6,Pin_6*%
%TO.N,Net-(J11-Pin_6)*%
X241430000Y-50120000D03*
%TO.P,J11,7,Pin_7*%
%TO.N,Net-(J11-Pin_7)*%
X243970000Y-50120000D03*
%TO.P,J11,8,Pin_8*%
%TO.N,GND*%
X246510000Y-50120000D03*
%TO.P,J11,9,Pin_9*%
%TO.N,Net-(J11-Pin_9)*%
X246510000Y-42500000D03*
%TO.P,J11,10,Pin_10*%
%TO.N,Net-(J11-Pin_10)*%
X243970000Y-42500000D03*
%TO.P,J11,11,Pin_11*%
%TO.N,Net-(J11-Pin_11)*%
X241430000Y-42500000D03*
%TO.P,J11,12,Pin_12*%
%TO.N,Net-(J11-Pin_12)*%
X238890000Y-42500000D03*
%TO.P,J11,13,Pin_13*%
%TO.N,Net-(J11-Pin_13)*%
X236350000Y-42500000D03*
%TO.P,J11,14,Pin_14*%
%TO.N,Net-(J11-Pin_14)*%
X233810000Y-42500000D03*
%TO.P,J11,15,Pin_15*%
%TO.N,Net-(J11-Pin_15)*%
X231270000Y-42500000D03*
%TO.P,J11,16,Pin_16*%
%TO.N,unconnected-(J11-Pin_16-Pad16)*%
X228730000Y-42500000D03*
%TD*%
D13*
%TO.P,U34,1,~{Q0}*%
%TO.N,Net-(U24-D)*%
X141230000Y-101000000D03*
D12*
%TO.P,U34,2,D0*%
%TO.N,Net-(U32-D0)*%
X143770000Y-101000000D03*
%TO.P,U34,3,D1*%
%TO.N,Net-(U32-D1)*%
X146310000Y-101000000D03*
%TO.P,U34,4,E23*%
%TO.N,Net-(J11-Pin_10)*%
X148850000Y-101000000D03*
%TO.P,U34,5,VCC*%
%TO.N,+5V*%
X151390000Y-101000000D03*
%TO.P,U34,6,D2*%
%TO.N,Net-(U32-D2)*%
X153930000Y-101000000D03*
%TO.P,U34,7,D3*%
%TO.N,Net-(U32-D3)*%
X156470000Y-101000000D03*
%TO.P,U34,8,~{Q3}*%
%TO.N,Net-(U24-A)*%
X159010000Y-101000000D03*
%TO.P,U34,9,Q3*%
%TO.N,unconnected-(U34-Q3-Pad9)*%
X159010000Y-93380000D03*
%TO.P,U34,10,Q2*%
%TO.N,unconnected-(U34-Q2-Pad10)*%
X156470000Y-93380000D03*
%TO.P,U34,11,~{Q2}*%
%TO.N,Net-(U24-B)*%
X153930000Y-93380000D03*
%TO.P,U34,12,GND*%
%TO.N,GND*%
X151390000Y-93380000D03*
%TO.P,U34,13,E01*%
%TO.N,Net-(J11-Pin_10)*%
X148850000Y-93380000D03*
%TO.P,U34,14,~{Q1}*%
%TO.N,Net-(U24-C)*%
X146310000Y-93380000D03*
%TO.P,U34,15,Q1*%
%TO.N,unconnected-(U34-Q1-Pad15)*%
X143770000Y-93380000D03*
%TO.P,U34,16,Q0*%
%TO.N,unconnected-(U34-Q0-Pad16)*%
X141230000Y-93380000D03*
%TD*%
D11*
%TO.P,C2,1*%
%TO.N,+5V*%
X30050000Y-136000000D03*
%TO.P,C2,2*%
%TO.N,GND*%
X37550000Y-136000000D03*
%TD*%
D13*
%TO.P,U41,1,OEa*%
%TO.N,Net-(U41-OEa)*%
X228610000Y-127000000D03*
D12*
%TO.P,U41,2,I1*%
%TO.N,Net-(J17-Pin_13)*%
X231150000Y-127000000D03*
%TO.P,U41,3,O1a*%
%TO.N,D12*%
X233690000Y-127000000D03*
%TO.P,U41,4,I2*%
%TO.N,Net-(U31A-~{Q})*%
X236230000Y-127000000D03*
%TO.P,U41,5,O2a*%
%TO.N,D17*%
X238770000Y-127000000D03*
%TO.P,U41,6,I3*%
%TO.N,Net-(J17-Pin_14)*%
X241310000Y-127000000D03*
%TO.P,U41,7,O3a*%
%TO.N,D11*%
X243850000Y-127000000D03*
%TO.P,U41,8,GND*%
%TO.N,GND*%
X246390000Y-127000000D03*
%TO.P,U41,9,O4a*%
%TO.N,D10*%
X246390000Y-119380000D03*
%TO.P,U41,10,I4*%
%TO.N,Net-(J17-Pin_15)*%
X243850000Y-119380000D03*
%TO.P,U41,11,O5b*%
%TO.N,D16*%
X241310000Y-119380000D03*
%TO.P,U41,12,I5*%
%TO.N,Net-(U41-I5)*%
X238770000Y-119380000D03*
%TO.P,U41,13,O6b*%
%TO.N,D13*%
X236230000Y-119380000D03*
%TO.P,U41,14,I6*%
%TO.N,Net-(J17-Pin_12)*%
X233690000Y-119380000D03*
%TO.P,U41,15,OEb*%
%TO.N,Net-(U41-OEa)*%
X231150000Y-119380000D03*
%TO.P,U41,16,VCC*%
%TO.N,+5V*%
X228610000Y-119380000D03*
%TD*%
%TO.P,R3,1*%
%TO.N,Net-(U23A-Q)*%
X136680000Y-142000000D03*
%TO.P,R3,2*%
%TO.N,Net-(Q1-B)*%
X126520000Y-142000000D03*
%TD*%
D11*
%TO.P,C9,1*%
%TO.N,+5V*%
X253700000Y-45300000D03*
%TO.P,C9,2*%
%TO.N,GND*%
X261200000Y-45300000D03*
%TD*%
%TO.P,C7,1*%
%TO.N,+5V*%
X253700000Y-96200000D03*
%TO.P,C7,2*%
%TO.N,GND*%
X261200000Y-96200000D03*
%TD*%
D13*
%TO.P,U36,1,~{Q0}*%
%TO.N,Net-(U26-B1)*%
X83610000Y-101000000D03*
D12*
%TO.P,U36,2,D0*%
%TO.N,Net-(U33-D1)*%
X86150000Y-101000000D03*
%TO.P,U36,3,D1*%
%TO.N,Net-(U33-D0)*%
X88690000Y-101000000D03*
%TO.P,U36,4,E23*%
%TO.N,Net-(J11-Pin_9)*%
X91230000Y-101000000D03*
%TO.P,U36,5,VCC*%
%TO.N,+5V*%
X93770000Y-101000000D03*
%TO.P,U36,6,D2*%
%TO.N,Net-(U31B-D)*%
X96310000Y-101000000D03*
%TO.P,U36,7,D3*%
%TO.N,Net-(U31A-D)*%
X98850000Y-101000000D03*
%TO.P,U36,8,~{Q3}*%
%TO.N,Net-(U26-B4)*%
X101390000Y-101000000D03*
%TO.P,U36,9,Q3*%
%TO.N,unconnected-(U36-Q3-Pad9)*%
X101390000Y-93380000D03*
%TO.P,U36,10,Q2*%
%TO.N,unconnected-(U36-Q2-Pad10)*%
X98850000Y-93380000D03*
%TO.P,U36,11,~{Q2}*%
%TO.N,Net-(U26-B3)*%
X96310000Y-93380000D03*
%TO.P,U36,12,GND*%
%TO.N,GND*%
X93770000Y-93380000D03*
%TO.P,U36,13,E01*%
%TO.N,Net-(J11-Pin_9)*%
X91230000Y-93380000D03*
%TO.P,U36,14,~{Q1}*%
%TO.N,Net-(U26-B2)*%
X88690000Y-93380000D03*
%TO.P,U36,15,Q1*%
%TO.N,unconnected-(U36-Q1-Pad15)*%
X86150000Y-93380000D03*
%TO.P,U36,16,Q0*%
%TO.N,unconnected-(U36-Q0-Pad16)*%
X83610000Y-93380000D03*
%TD*%
D11*
%TO.P,C6,1*%
%TO.N,+5V*%
X253700000Y-122200000D03*
%TO.P,C6,2*%
%TO.N,GND*%
X261200000Y-122200000D03*
%TD*%
D13*
%TO.P,U32,1,~{Q0}*%
%TO.N,Net-(J17-Pin_12)*%
X198730000Y-101000000D03*
D12*
%TO.P,U32,2,D0*%
%TO.N,Net-(U32-D0)*%
X201270000Y-101000000D03*
%TO.P,U32,3,D1*%
%TO.N,Net-(U32-D1)*%
X203810000Y-101000000D03*
%TO.P,U32,4,E23*%
%TO.N,Net-(J11-Pin_11)*%
X206350000Y-101000000D03*
%TO.P,U32,5,VCC*%
%TO.N,+5V*%
X208890000Y-101000000D03*
%TO.P,U32,6,D2*%
%TO.N,Net-(U32-D2)*%
X211430000Y-101000000D03*
%TO.P,U32,7,D3*%
%TO.N,Net-(U32-D3)*%
X213970000Y-101000000D03*
%TO.P,U32,8,~{Q3}*%
%TO.N,Net-(J17-Pin_15)*%
X216510000Y-101000000D03*
%TO.P,U32,9,Q3*%
%TO.N,unconnected-(U32-Q3-Pad9)*%
X216510000Y-93380000D03*
%TO.P,U32,10,Q2*%
%TO.N,unconnected-(U32-Q2-Pad10)*%
X213970000Y-93380000D03*
%TO.P,U32,11,~{Q2}*%
%TO.N,Net-(J17-Pin_14)*%
X211430000Y-93380000D03*
%TO.P,U32,12,GND*%
%TO.N,GND*%
X208890000Y-93380000D03*
%TO.P,U32,13,E01*%
%TO.N,Net-(J11-Pin_11)*%
X206350000Y-93380000D03*
%TO.P,U32,14,~{Q1}*%
%TO.N,Net-(J17-Pin_13)*%
X203810000Y-93380000D03*
%TO.P,U32,15,Q1*%
%TO.N,unconnected-(U32-Q1-Pad15)*%
X201270000Y-93380000D03*
%TO.P,U32,16,Q0*%
%TO.N,unconnected-(U32-Q0-Pad16)*%
X198730000Y-93380000D03*
%TD*%
D13*
%TO.P,U43,1*%
%TO.N,Net-(J11-Pin_6)*%
X169880000Y-127000000D03*
D12*
%TO.P,U43,2*%
%TO.N,Net-(U41-OEa)*%
X172420000Y-127000000D03*
%TO.P,U43,3*%
%TO.N,D01*%
X174960000Y-127000000D03*
%TO.P,U43,4*%
%TO.N,Net-(U32-D2)*%
X177500000Y-127000000D03*
%TO.P,U43,5*%
%TO.N,D04*%
X180040000Y-127000000D03*
%TO.P,U43,6*%
%TO.N,Net-(U33-D3)*%
X182580000Y-127000000D03*
%TO.P,U43,7,GND*%
%TO.N,GND*%
X185120000Y-127000000D03*
%TO.P,U43,8*%
%TO.N,Net-(U33-D2)*%
X185120000Y-119380000D03*
%TO.P,U43,9*%
%TO.N,D05*%
X182580000Y-119380000D03*
%TO.P,U43,10*%
%TO.N,Net-(U32-D3)*%
X180040000Y-119380000D03*
%TO.P,U43,11*%
%TO.N,D00*%
X177500000Y-119380000D03*
%TO.P,U43,12*%
%TO.N,unconnected-(U43-Pad12)*%
X174960000Y-119380000D03*
%TO.P,U43,13*%
%TO.N,unconnected-(U43-Pad13)*%
X172420000Y-119380000D03*
%TO.P,U43,14,VCC*%
%TO.N,+5V*%
X169880000Y-119380000D03*
%TD*%
%TO.P,R2,1*%
%TO.N,+5V*%
X88880000Y-37000000D03*
%TO.P,R2,2*%
%TO.N,Net-(J17-Pin_6)*%
X78720000Y-37000000D03*
%TD*%
D13*
%TO.P,U12,1,I3*%
%TO.N,Net-(U12-I3)*%
X198620000Y-50120000D03*
D12*
%TO.P,U12,2,I2*%
%TO.N,Net-(U12-I2)*%
X201160000Y-50120000D03*
%TO.P,U12,3,I1*%
%TO.N,Net-(U12-I1)*%
X203700000Y-50120000D03*
%TO.P,U12,4,I0*%
%TO.N,GND*%
X206240000Y-50120000D03*
%TO.P,U12,5,Q*%
%TO.N,unconnected-(U12-Q-Pad5)*%
X208780000Y-50120000D03*
%TO.P,U12,6,~{Q}*%
%TO.N,Net-(U12-~{Q})*%
X211320000Y-50120000D03*
%TO.P,U12,7,~{E}*%
%TO.N,GND*%
X213860000Y-50120000D03*
%TO.P,U12,8,GND*%
X216400000Y-50120000D03*
%TO.P,U12,9,S2*%
X216400000Y-42500000D03*
%TO.P,U12,10,S1*%
%TO.N,Net-(U12-S1)*%
X213860000Y-42500000D03*
%TO.P,U12,11,S0*%
%TO.N,Net-(U12-S0)*%
X211320000Y-42500000D03*
%TO.P,U12,12,I7*%
%TO.N,GND*%
X208780000Y-42500000D03*
%TO.P,U12,13,I6*%
X206240000Y-42500000D03*
%TO.P,U12,14,I5*%
X203700000Y-42500000D03*
%TO.P,U12,15,I4*%
X201160000Y-42500000D03*
%TO.P,U12,16,VCC*%
%TO.N,+5V*%
X198620000Y-42500000D03*
%TD*%
%TO.P,R1,1*%
%TO.N,GND*%
X59520000Y-55300000D03*
%TO.P,R1,2*%
%TO.N,Net-(J17-Pin_2)*%
X69680000Y-55300000D03*
%TD*%
D13*
%TO.P,U46,1*%
%TO.N,+5V*%
X84760000Y-127000000D03*
D12*
%TO.P,U46,2*%
%TO.N,PHLDA*%
X87300000Y-127000000D03*
%TO.P,U46,3*%
%TO.N,Net-(U32-D3)*%
X89840000Y-127000000D03*
%TO.P,U46,4*%
X92380000Y-127000000D03*
%TO.P,U46,5*%
X94920000Y-127000000D03*
%TO.P,U46,6*%
%TO.N,Net-(U46-Pad6)*%
X97460000Y-127000000D03*
%TO.P,U46,7,GND*%
%TO.N,GND*%
X100000000Y-127000000D03*
%TO.P,U46,8*%
%TO.N,Net-(U48A-D)*%
X100000000Y-119380000D03*
%TO.P,U46,9*%
%TO.N,Net-(U46-Pad6)*%
X97460000Y-119380000D03*
%TO.P,U46,10*%
%TO.N,PSYNC*%
X94920000Y-119380000D03*
%TO.P,U46,11*%
%TO.N,Net-(U46-Pad11)*%
X92380000Y-119380000D03*
%TO.P,U46,12*%
X89840000Y-119380000D03*
%TO.P,U46,13*%
%TO.N,+5V*%
X87300000Y-119380000D03*
%TO.P,U46,14,VCC*%
X84760000Y-119380000D03*
%TD*%
D14*
%TO.P,Q1,1,E*%
%TO.N,GND*%
X117500000Y-141600000D03*
D15*
%TO.P,Q1,2,B*%
%TO.N,Net-(Q1-B)*%
X118770000Y-140330000D03*
%TO.P,Q1,3,C*%
%TO.N,PINT*%
X120040000Y-141600000D03*
%TD*%
D13*
%TO.P,U16,1*%
%TO.N,Net-(U24-~{LOAD})*%
X84800000Y-50120000D03*
D12*
%TO.P,U16,2*%
%TO.N,Net-(J11-Pin_3)*%
X87340000Y-50120000D03*
%TO.P,U16,3*%
%TO.N,Net-(J17-Pin_10)*%
X89880000Y-50120000D03*
%TO.P,U16,4*%
%TO.N,Net-(J11-Pin_15)*%
X92420000Y-50120000D03*
%TO.P,U16,5*%
%TO.N,Net-(U16-Pad11)*%
X94960000Y-50120000D03*
%TO.P,U16,6*%
%TO.N,Net-(J11-Pin_13)*%
X97500000Y-50120000D03*
%TO.P,U16,7,GND*%
%TO.N,GND*%
X100040000Y-50120000D03*
%TO.P,U16,8*%
%TO.N,Net-(U24-DOWN)*%
X100040000Y-42500000D03*
%TO.P,U16,9*%
%TO.N,Net-(U14-CP0)*%
X97500000Y-42500000D03*
%TO.P,U16,10*%
%TO.N,Net-(J11-Pin_13)*%
X94960000Y-42500000D03*
%TO.P,U16,11*%
%TO.N,Net-(U16-Pad11)*%
X92420000Y-42500000D03*
%TO.P,U16,12*%
%TO.N,unconnected-(U16-Pad12)*%
X89880000Y-42500000D03*
%TO.P,U16,13*%
%TO.N,unconnected-(U16-Pad13)*%
X87340000Y-42500000D03*
%TO.P,U16,14,VCC*%
%TO.N,+5V*%
X84800000Y-42500000D03*
%TD*%
D11*
%TO.P,C3,1*%
%TO.N,+5V*%
X24600000Y-89300000D03*
%TO.P,C3,2*%
%TO.N,GND*%
X32100000Y-89300000D03*
%TD*%
D13*
%TO.P,U38,1,B*%
%TO.N,Net-(U33-~{Q0})*%
X28610000Y-101000000D03*
D12*
%TO.P,U38,2,QB*%
%TO.N,unconnected-(U38-QB-Pad2)*%
X31150000Y-101000000D03*
%TO.P,U38,3,QA*%
%TO.N,unconnected-(U38-QA-Pad3)*%
X33690000Y-101000000D03*
%TO.P,U38,4,DOWN*%
%TO.N,Net-(U38-DOWN)*%
X36230000Y-101000000D03*
%TO.P,U38,5,UP*%
%TO.N,+5V*%
X38770000Y-101000000D03*
%TO.P,U38,6,QC*%
%TO.N,unconnected-(U38-QC-Pad6)*%
X41310000Y-101000000D03*
%TO.P,U38,7,QD*%
%TO.N,unconnected-(U38-QD-Pad7)*%
X43850000Y-101000000D03*
%TO.P,U38,8,GND*%
%TO.N,GND*%
X46390000Y-101000000D03*
%TO.P,U38,9,D*%
X46390000Y-93380000D03*
%TO.P,U38,10,C*%
%TO.N,Net-(U33-~{Q0})*%
X43850000Y-93380000D03*
%TO.P,U38,11,~{LOAD}*%
%TO.N,Net-(U38-~{LOAD})*%
X41310000Y-93380000D03*
%TO.P,U38,12,~{CO}*%
%TO.N,unconnected-(U38-~{CO}-Pad12)*%
X38770000Y-93380000D03*
%TO.P,U38,13,~{BO}*%
%TO.N,Net-(U24-~{LOAD})*%
X36230000Y-93380000D03*
%TO.P,U38,14,CLR*%
%TO.N,GND*%
X33690000Y-93380000D03*
%TO.P,U38,15,A*%
%TO.N,+5V*%
X31150000Y-93380000D03*
%TO.P,U38,16,VCC*%
X28610000Y-93380000D03*
%TD*%
D13*
%TO.P,U15,1,~{Q0}*%
%TO.N,unconnected-(U15-~{Q0}-Pad1)*%
X112420000Y-50120000D03*
D12*
%TO.P,U15,2,D0*%
%TO.N,Net-(U14-CP1..3)*%
X114960000Y-50120000D03*
%TO.P,U15,3,D1*%
%TO.N,Net-(U14-Q1)*%
X117500000Y-50120000D03*
%TO.P,U15,4,E23*%
%TO.N,Net-(J11-Pin_13)*%
X120040000Y-50120000D03*
%TO.P,U15,5,VCC*%
%TO.N,+5V*%
X122580000Y-50120000D03*
%TO.P,U15,6,D2*%
%TO.N,Net-(U14-Q2)*%
X125120000Y-50120000D03*
%TO.P,U15,7,D3*%
%TO.N,Net-(U14-Q3)*%
X127660000Y-50120000D03*
%TO.P,U15,8,~{Q3}*%
%TO.N,unconnected-(U15-~{Q3}-Pad8)*%
X130200000Y-50120000D03*
%TO.P,U15,9,Q3*%
%TO.N,Net-(U15-Q3)*%
X130200000Y-42500000D03*
%TO.P,U15,10,Q2*%
%TO.N,Net-(U15-Q2)*%
X127660000Y-42500000D03*
%TO.P,U15,11,~{Q2}*%
%TO.N,unconnected-(U15-~{Q2}-Pad11)*%
X125120000Y-42500000D03*
%TO.P,U15,12,GND*%
%TO.N,GND*%
X122580000Y-42500000D03*
%TO.P,U15,13,E01*%
%TO.N,Net-(J11-Pin_13)*%
X120040000Y-42500000D03*
%TO.P,U15,14,~{Q1}*%
%TO.N,unconnected-(U15-~{Q1}-Pad14)*%
X117500000Y-42500000D03*
%TO.P,U15,15,Q1*%
%TO.N,Net-(U15-Q1)*%
X114960000Y-42500000D03*
%TO.P,U15,16,Q0*%
%TO.N,Net-(U15-Q0)*%
X112420000Y-42500000D03*
%TD*%
D11*
%TO.P,C5,1*%
%TO.N,+5V*%
X79200000Y-42450000D03*
%TO.P,C5,2*%
%TO.N,GND*%
X79200000Y-49950000D03*
%TD*%
D13*
%TO.P,U48,1,~{R}*%
%TO.N,+5V*%
X29640000Y-127000000D03*
D12*
%TO.P,U48,2,D*%
%TO.N,Net-(U48A-D)*%
X32180000Y-127000000D03*
%TO.P,U48,3,C*%
%TO.N,Net-(J11-Pin_12)*%
X34720000Y-127000000D03*
%TO.P,U48,4,~{S}*%
%TO.N,+5V*%
X37260000Y-127000000D03*
%TO.P,U48,5,Q*%
%TO.N,Net-(U23A-~{R})*%
X39800000Y-127000000D03*
%TO.P,U48,6,~{Q}*%
%TO.N,unconnected-(U48A-~{Q}-Pad6)*%
X42340000Y-127000000D03*
%TO.P,U48,7,GND*%
%TO.N,GND*%
X44880000Y-127000000D03*
%TO.P,U48,8,~{Q}*%
%TO.N,Net-(U41-I5)*%
X44880000Y-119380000D03*
%TO.P,U48,9,Q*%
%TO.N,unconnected-(U48B-Q-Pad9)*%
X42340000Y-119380000D03*
%TO.P,U48,10,~{S}*%
%TO.N,+5V*%
X39800000Y-119380000D03*
%TO.P,U48,11,C*%
%TO.N,Net-(U41-OEa)*%
X37260000Y-119380000D03*
%TO.P,U48,12,D*%
%TO.N,+5V*%
X34720000Y-119380000D03*
%TO.P,U48,13,~{R}*%
%TO.N,Net-(U23A-~{Q})*%
X32180000Y-119380000D03*
%TO.P,U48,14,VCC*%
%TO.N,+5V*%
X29640000Y-119380000D03*
%TD*%
D13*
%TO.P,U47,1,~{R}*%
%TO.N,+5V*%
X57380000Y-127000000D03*
D12*
%TO.P,U47,2,D*%
%TO.N,Net-(U38-DOWN)*%
X59920000Y-127000000D03*
%TO.P,U47,3,C*%
%TO.N,Net-(J11-Pin_5)*%
X62460000Y-127000000D03*
%TO.P,U47,4,~{S}*%
%TO.N,+5V*%
X65000000Y-127000000D03*
%TO.P,U47,5,Q*%
%TO.N,unconnected-(U47A-Q-Pad5)*%
X67540000Y-127000000D03*
%TO.P,U47,6,~{Q}*%
%TO.N,Net-(U38-DOWN)*%
X70080000Y-127000000D03*
%TO.P,U47,7,GND*%
%TO.N,GND*%
X72620000Y-127000000D03*
%TO.P,U47,8,~{Q}*%
%TO.N,Net-(J17-Pin_11)*%
X72620000Y-119380000D03*
%TO.P,U47,9,Q*%
%TO.N,Net-(U38-~{LOAD})*%
X70080000Y-119380000D03*
%TO.P,U47,10,~{S}*%
%TO.N,+5V*%
X67540000Y-119380000D03*
%TO.P,U47,11,C*%
%TO.N,Net-(U38-DOWN)*%
X65000000Y-119380000D03*
%TO.P,U47,12,D*%
%TO.N,Net-(U31A-~{Q})*%
X62460000Y-119380000D03*
%TO.P,U47,13,~{R}*%
%TO.N,Net-(U37A-~{Q})*%
X59920000Y-119380000D03*
%TO.P,U47,14,VCC*%
%TO.N,+5V*%
X57380000Y-119380000D03*
%TD*%
D13*
%TO.P,U14,1,CP1..3*%
%TO.N,Net-(U14-CP1..3)*%
X142540000Y-50120000D03*
D12*
%TO.P,U14,2,R0(1)*%
%TO.N,Net-(J11-Pin_3)*%
X145080000Y-50120000D03*
%TO.P,U14,3,R0(2)*%
X147620000Y-50120000D03*
%TO.P,U14,4*%
%TO.N,N/C*%
X150160000Y-50120000D03*
%TO.P,U14,5,VCC*%
%TO.N,+5V*%
X152700000Y-50120000D03*
%TO.P,U14,6*%
%TO.N,N/C*%
X155240000Y-50120000D03*
%TO.P,U14,7*%
X157780000Y-50120000D03*
%TO.P,U14,8,Q2*%
%TO.N,Net-(U14-Q2)*%
X157780000Y-42500000D03*
%TO.P,U14,9,Q1*%
%TO.N,Net-(U14-Q1)*%
X155240000Y-42500000D03*
%TO.P,U14,10,GND*%
%TO.N,GND*%
X152700000Y-42500000D03*
%TO.P,U14,11,Q3*%
%TO.N,Net-(U14-Q3)*%
X150160000Y-42500000D03*
%TO.P,U14,12,Q0*%
%TO.N,Net-(U14-CP1..3)*%
X147620000Y-42500000D03*
%TO.P,U14,13*%
%TO.N,N/C*%
X145080000Y-42500000D03*
%TO.P,U14,14,CP0*%
%TO.N,Net-(U14-CP0)*%
X142540000Y-42500000D03*
%TD*%
D13*
%TO.P,U31,1,~{R}*%
%TO.N,+5V*%
X230000000Y-101000000D03*
D12*
%TO.P,U31,2,D*%
%TO.N,Net-(U31A-D)*%
X232540000Y-101000000D03*
%TO.P,U31,3,C*%
%TO.N,Net-(J11-Pin_11)*%
X235080000Y-101000000D03*
%TO.P,U31,4,~{S}*%
%TO.N,Net-(U23B-~{Q})*%
X237620000Y-101000000D03*
%TO.P,U31,5,Q*%
%TO.N,unconnected-(U31A-Q-Pad5)*%
X240160000Y-101000000D03*
%TO.P,U31,6,~{Q}*%
%TO.N,Net-(U31A-~{Q})*%
X242700000Y-101000000D03*
%TO.P,U31,7,GND*%
%TO.N,GND*%
X245240000Y-101000000D03*
%TO.P,U31,8,~{Q}*%
%TO.N,unconnected-(U31B-~{Q}-Pad8)*%
X245240000Y-93380000D03*
%TO.P,U31,9,Q*%
%TO.N,Net-(U23A-C)*%
X242700000Y-93380000D03*
%TO.P,U31,10,~{S}*%
%TO.N,Net-(U23B-~{Q})*%
X240160000Y-93380000D03*
%TO.P,U31,11,C*%
%TO.N,Net-(J11-Pin_11)*%
X237620000Y-93380000D03*
%TO.P,U31,12,D*%
%TO.N,Net-(U31B-D)*%
X235080000Y-93380000D03*
%TO.P,U31,13,~{R}*%
%TO.N,+5V*%
X232540000Y-93380000D03*
%TO.P,U31,14,VCC*%
X230000000Y-93380000D03*
%TD*%
D11*
%TO.P,C8,1*%
%TO.N,+5V*%
X253700000Y-71000000D03*
%TO.P,C8,2*%
%TO.N,GND*%
X261200000Y-71000000D03*
%TD*%
D16*
%TO.P,P1,1,+8_V*%
%TO.N,+8V*%
X53467000Y-152781000D03*
D17*
%TO.P,P1,2,+16_V*%
%TO.N,+16V*%
X57150000Y-152781000D03*
%TO.P,P1,3,XRDY*%
%TO.N,unconnected-(P1-XRDY-Pad3)*%
X60325000Y-152781000D03*
%TO.P,P1,4,VIO\u002A*%
%TO.N,unconnected-(P1-VIO\u002A-Pad4)*%
X63500000Y-152781000D03*
%TO.P,P1,5,VI1\u002A*%
%TO.N,unconnected-(P1-VI1\u002A-Pad5)*%
X66675000Y-152781000D03*
%TO.P,P1,6,VI2\u002A*%
%TO.N,unconnected-(P1-VI2\u002A-Pad6)*%
X69850000Y-152781000D03*
%TO.P,P1,7,VI3\u002A*%
%TO.N,unconnected-(P1-VI3\u002A-Pad7)*%
X73025000Y-152781000D03*
%TO.P,P1,8,VI4\u002A*%
%TO.N,unconnected-(P1-VI4\u002A-Pad8)*%
X76200000Y-152781000D03*
%TO.P,P1,9,VI5\u002A*%
%TO.N,unconnected-(P1-VI5\u002A-Pad9)*%
X79375000Y-152781000D03*
%TO.P,P1,10,VI6\u002A*%
%TO.N,unconnected-(P1-VI6\u002A-Pad10)*%
X82550000Y-152781000D03*
%TO.P,P1,11,VI7\u002A*%
%TO.N,unconnected-(P1-VI7\u002A-Pad11)*%
X85725000Y-152781000D03*
%TO.P,P1,12,NMI\u002A*%
%TO.N,unconnected-(P1-NMI\u002A-Pad12)*%
X88900000Y-152781000D03*
%TO.P,P1,13,PWRFAIL\u002A*%
%TO.N,unconnected-(P1-PWRFAIL\u002A-Pad13)*%
X92075000Y-152781000D03*
%TO.P,P1,14,TMA3\u002A*%
%TO.N,unconnected-(P1-TMA3\u002A-Pad14)*%
X95250000Y-152781000D03*
%TO.P,P1,15,A18*%
%TO.N,unconnected-(P1-A18-Pad15)*%
X98425000Y-152781000D03*
%TO.P,P1,16,A16*%
%TO.N,unconnected-(P1-A16-Pad16)*%
X101600000Y-152781000D03*
%TO.P,P1,17,A17*%
%TO.N,unconnected-(P1-A17-Pad17)*%
X104775000Y-152781000D03*
%TO.P,P1,18,SDSB\u002A*%
%TO.N,unconnected-(P1-SDSB\u002A-Pad18)*%
X107950000Y-152781000D03*
%TO.P,P1,19,CDSB\u002A*%
%TO.N,unconnected-(P1-CDSB\u002A-Pad19)*%
X111125000Y-152781000D03*
%TO.P,P1,20,0_V1*%
%TO.N,unconnected-(P1-0_V1-Pad20)*%
X114300000Y-152781000D03*
%TO.P,P1,21,NDEF1*%
%TO.N,unconnected-(P1-NDEF1-Pad21)*%
X117475000Y-152781000D03*
%TO.P,P1,22,ADSB\u002A*%
%TO.N,unconnected-(P1-ADSB\u002A-Pad22)*%
X120650000Y-152781000D03*
%TO.P,P1,23,DODSB\u002A*%
%TO.N,unconnected-(P1-DODSB\u002A-Pad23)*%
X123825000Y-152781000D03*
%TO.P,P1,24,PHI*%
%TO.N,unconnected-(P1-PHI-Pad24)*%
X127000000Y-152781000D03*
%TO.P,P1,25,pSTVAL\u002A*%
%TO.N,unconnected-(P1-pSTVAL\u002A-Pad25)*%
X130175000Y-152781000D03*
%TO.P,P1,26,pHDLA*%
%TO.N,PHLDA*%
X133350000Y-152781000D03*
%TO.P,P1,27,RFU_1*%
%TO.N,unconnected-(P1-RFU_1-Pad27)*%
X136525000Y-152781000D03*
%TO.P,P1,28,RFU_2*%
%TO.N,unconnected-(P1-RFU_2-Pad28)*%
X139700000Y-152781000D03*
%TO.P,P1,29,A5*%
%TO.N,unconnected-(P1-A5-Pad29)*%
X142875000Y-152781000D03*
%TO.P,P1,30,A4*%
%TO.N,unconnected-(P1-A4-Pad30)*%
X146050000Y-152781000D03*
%TO.P,P1,31,A3*%
%TO.N,unconnected-(P1-A3-Pad31)*%
X149225000Y-152781000D03*
%TO.P,P1,32,A15*%
%TO.N,A15*%
X152400000Y-152781000D03*
%TO.P,P1,33,A12*%
%TO.N,A12*%
X155575000Y-152781000D03*
%TO.P,P1,34,A9*%
%TO.N,A9*%
X158750000Y-152781000D03*
%TO.P,P1,35,DO1*%
%TO.N,D01*%
X161925000Y-152781000D03*
%TO.P,P1,36,DO0*%
%TO.N,D00*%
X165100000Y-152781000D03*
%TO.P,P1,37,A10*%
%TO.N,A10*%
X168275000Y-152781000D03*
%TO.P,P1,38,DO4*%
%TO.N,D04*%
X171450000Y-152781000D03*
%TO.P,P1,39,DO5*%
%TO.N,D05*%
X174625000Y-152781000D03*
%TO.P,P1,40,DO6*%
%TO.N,D06*%
X177800000Y-152781000D03*
%TO.P,P1,41,D12*%
%TO.N,D12*%
X180975000Y-152781000D03*
%TO.P,P1,42,D13*%
%TO.N,D13*%
X184150000Y-152781000D03*
%TO.P,P1,43,D17*%
%TO.N,D17*%
X187325000Y-152781000D03*
%TO.P,P1,44,sM1*%
%TO.N,unconnected-(P1-sM1-Pad44)*%
X190500000Y-152781000D03*
%TO.P,P1,45,sOUT*%
%TO.N,unconnected-(P1-sOUT-Pad45)*%
X193675000Y-152781000D03*
%TO.P,P1,46,sINP*%
%TO.N,unconnected-(P1-sINP-Pad46)*%
X196850000Y-152781000D03*
%TO.P,P1,47,sMEMR*%
%TO.N,unconnected-(P1-sMEMR-Pad47)*%
X200025000Y-152781000D03*
%TO.P,P1,48,sHLTA*%
%TO.N,unconnected-(P1-sHLTA-Pad48)*%
X203200000Y-152781000D03*
%TO.P,P1,49,CLOCK*%
%TO.N,unconnected-(P1-CLOCK-Pad49)*%
X206375000Y-152781000D03*
D16*
%TO.P,P1,50,0_V2*%
%TO.N,GND*%
X210058000Y-152781000D03*
%TD*%
D11*
%TO.P,C4,1*%
%TO.N,+5V*%
X51100000Y-68550000D03*
%TO.P,C4,2*%
%TO.N,GND*%
X51100000Y-76050000D03*
%TD*%
D13*
%TO.P,U25,1,A4*%
%TO.N,Net-(U15-Q3)*%
X112420000Y-76000000D03*
D12*
%TO.P,U25,2,S3*%
%TO.N,Net-(U25-S3)*%
X114960000Y-76000000D03*
%TO.P,U25,3,A3*%
%TO.N,Net-(U15-Q2)*%
X117500000Y-76000000D03*
%TO.P,U25,4,B3*%
%TO.N,Net-(U25-B3)*%
X120040000Y-76000000D03*
%TO.P,U25,5,VCC*%
%TO.N,+5V*%
X122580000Y-76000000D03*
%TO.P,U25,6,S2*%
%TO.N,Net-(U25-S2)*%
X125120000Y-76000000D03*
%TO.P,U25,7,B2*%
%TO.N,Net-(U25-B2)*%
X127660000Y-76000000D03*
%TO.P,U25,8,A2*%
%TO.N,Net-(U15-Q1)*%
X130200000Y-76000000D03*
%TO.P,U25,9,S1*%
%TO.N,Net-(U25-S1)*%
X130200000Y-68380000D03*
%TO.P,U25,10,A1*%
%TO.N,Net-(U15-Q0)*%
X127660000Y-68380000D03*
%TO.P,U25,11,B1*%
%TO.N,Net-(U25-B1)*%
X125120000Y-68380000D03*
%TO.P,U25,12,GND*%
%TO.N,GND*%
X122580000Y-68380000D03*
%TO.P,U25,13,C0*%
X120040000Y-68380000D03*
%TO.P,U25,14,C4*%
%TO.N,Net-(U25-C4)*%
X117500000Y-68380000D03*
%TO.P,U25,15,S4*%
%TO.N,Net-(U25-S4)*%
X114960000Y-68380000D03*
%TO.P,U25,16,B4*%
%TO.N,Net-(U25-B4)*%
X112420000Y-68380000D03*
%TD*%
D13*
%TO.P,U28,1,CP1..3*%
%TO.N,Net-(J11-Pin_15)*%
X29800000Y-76000000D03*
D12*
%TO.P,U28,2,R0(1)*%
%TO.N,Net-(J11-Pin_3)*%
X32340000Y-76000000D03*
%TO.P,U28,3,R0(2)*%
X34880000Y-76000000D03*
%TO.P,U28,4*%
%TO.N,N/C*%
X37420000Y-76000000D03*
%TO.P,U28,5,VCC*%
%TO.N,+5V*%
X39960000Y-76000000D03*
%TO.P,U28,6*%
%TO.N,N/C*%
X42500000Y-76000000D03*
%TO.P,U28,7*%
X45040000Y-76000000D03*
%TO.P,U28,8,Q2*%
%TO.N,Net-(U28-Q2)*%
X45040000Y-68380000D03*
%TO.P,U28,9,Q1*%
%TO.N,Net-(U28-Q1)*%
X42500000Y-68380000D03*
%TO.P,U28,10,GND*%
%TO.N,GND*%
X39960000Y-68380000D03*
%TO.P,U28,11,Q3*%
%TO.N,Net-(U28-Q3)*%
X37420000Y-68380000D03*
%TO.P,U28,12,Q0*%
%TO.N,unconnected-(U28-Q0-Pad12)*%
X34880000Y-68380000D03*
%TO.P,U28,13*%
%TO.N,N/C*%
X32340000Y-68380000D03*
%TO.P,U28,14,CP0*%
%TO.N,unconnected-(U28-CP0-Pad14)*%
X29800000Y-68380000D03*
%TD*%
D13*
%TO.P,U33,1,~{Q0}*%
%TO.N,Net-(U33-~{Q0})*%
X168730000Y-101000000D03*
D12*
%TO.P,U33,2,D0*%
%TO.N,Net-(U33-D0)*%
X171270000Y-101000000D03*
%TO.P,U33,3,D1*%
%TO.N,Net-(U33-D1)*%
X173810000Y-101000000D03*
%TO.P,U33,4,E23*%
%TO.N,Net-(J11-Pin_10)*%
X176350000Y-101000000D03*
%TO.P,U33,5,VCC*%
%TO.N,+5V*%
X178890000Y-101000000D03*
%TO.P,U33,6,D2*%
%TO.N,Net-(U33-D2)*%
X181430000Y-101000000D03*
%TO.P,U33,7,D3*%
%TO.N,Net-(U33-D3)*%
X183970000Y-101000000D03*
%TO.P,U33,8,~{Q3}*%
%TO.N,Net-(U12-S0)*%
X186510000Y-101000000D03*
%TO.P,U33,9,Q3*%
%TO.N,unconnected-(U33-Q3-Pad9)*%
X186510000Y-93380000D03*
%TO.P,U33,10,Q2*%
%TO.N,unconnected-(U33-Q2-Pad10)*%
X183970000Y-93380000D03*
%TO.P,U33,11,~{Q2}*%
%TO.N,Net-(U12-S1)*%
X181430000Y-93380000D03*
%TO.P,U33,12,GND*%
%TO.N,GND*%
X178890000Y-93380000D03*
%TO.P,U33,13,E01*%
%TO.N,Net-(J11-Pin_11)*%
X176350000Y-93380000D03*
%TO.P,U33,14,~{Q1}*%
%TO.N,Net-(U33-~{Q1})*%
X173810000Y-93380000D03*
%TO.P,U33,15,Q1*%
%TO.N,unconnected-(U33-Q1-Pad15)*%
X171270000Y-93380000D03*
%TO.P,U33,16,Q0*%
%TO.N,unconnected-(U33-Q0-Pad16)*%
X168730000Y-93380000D03*
%TD*%
D13*
%TO.P,J17,1,Pin_1*%
%TO.N,GND*%
X55880000Y-50000000D03*
D12*
%TO.P,J17,2,Pin_2*%
%TO.N,Net-(J17-Pin_2)*%
X58420000Y-50000000D03*
%TO.P,J17,3,Pin_3*%
%TO.N,Net-(J11-Pin_14)*%
X60960000Y-50000000D03*
%TO.P,J17,4,Pin_4*%
%TO.N,+16V*%
X63500000Y-50000000D03*
%TO.P,J17,5,Pin_5*%
%TO.N,unconnected-(J17-Pin_5-Pad5)*%
X66040000Y-50000000D03*
%TO.P,J17,6,Pin_6*%
%TO.N,Net-(J17-Pin_6)*%
X68580000Y-50000000D03*
%TO.P,J17,7,Pin_7*%
%TO.N,Net-(J17-Pin_7)*%
X71120000Y-50000000D03*
%TO.P,J17,8,Pin_8*%
%TO.N,-16V*%
X73660000Y-50000000D03*
%TO.P,J17,9,Pin_9*%
%TO.N,unconnected-(J17-Pin_9-Pad9)*%
X73660000Y-42380000D03*
%TO.P,J17,10,Pin_10*%
%TO.N,Net-(J17-Pin_10)*%
X71120000Y-42380000D03*
%TO.P,J17,11,Pin_11*%
%TO.N,Net-(J17-Pin_11)*%
X68580000Y-42380000D03*
%TO.P,J17,12,Pin_12*%
%TO.N,Net-(J17-Pin_12)*%
X66040000Y-42380000D03*
%TO.P,J17,13,Pin_13*%
%TO.N,Net-(J17-Pin_13)*%
X63500000Y-42380000D03*
%TO.P,J17,14,Pin_14*%
%TO.N,Net-(J17-Pin_14)*%
X60960000Y-42380000D03*
%TO.P,J17,15,Pin_15*%
%TO.N,Net-(J17-Pin_15)*%
X58420000Y-42380000D03*
%TO.P,J17,16,Pin_16*%
%TO.N,unconnected-(J17-Pin_16-Pad16)*%
X55880000Y-42380000D03*
%TD*%
D13*
%TO.P,U42,1*%
%TO.N,unconnected-(U42-Pad1)*%
X199760000Y-127000000D03*
D12*
%TO.P,U42,2*%
%TO.N,unconnected-(U42-Pad2)*%
X202300000Y-127000000D03*
%TO.P,U42,3*%
%TO.N,D02*%
X204840000Y-127000000D03*
%TO.P,U42,4*%
%TO.N,Net-(U32-D1)*%
X207380000Y-127000000D03*
%TO.P,U42,5*%
%TO.N,D03*%
X209920000Y-127000000D03*
%TO.P,U42,6*%
%TO.N,Net-(U32-D0)*%
X212460000Y-127000000D03*
%TO.P,U42,7,GND*%
%TO.N,GND*%
X215000000Y-127000000D03*
%TO.P,U42,8*%
%TO.N,Net-(U31A-D)*%
X215000000Y-119380000D03*
%TO.P,U42,9*%
%TO.N,D07*%
X212460000Y-119380000D03*
%TO.P,U42,10*%
%TO.N,Net-(U31B-D)*%
X209920000Y-119380000D03*
%TO.P,U42,11*%
%TO.N,D06*%
X207380000Y-119380000D03*
%TO.P,U42,12*%
%TO.N,unconnected-(U42-Pad12)*%
X204840000Y-119380000D03*
%TO.P,U42,13*%
%TO.N,unconnected-(U42-Pad13)*%
X202300000Y-119380000D03*
%TO.P,U42,14,VCC*%
%TO.N,+5V*%
X199760000Y-119380000D03*
%TD*%
D13*
%TO.P,U26,1,A4*%
%TO.N,GND*%
X83610000Y-76000000D03*
D12*
%TO.P,U26,2,S3*%
%TO.N,Net-(U26-S3)*%
X86150000Y-76000000D03*
%TO.P,U26,3,A3*%
%TO.N,GND*%
X88690000Y-76000000D03*
%TO.P,U26,4,B3*%
%TO.N,Net-(U26-B3)*%
X91230000Y-76000000D03*
%TO.P,U26,5,VCC*%
%TO.N,+5V*%
X93770000Y-76000000D03*
%TO.P,U26,6,S2*%
%TO.N,Net-(U26-S2)*%
X96310000Y-76000000D03*
%TO.P,U26,7,B2*%
%TO.N,Net-(U26-B2)*%
X98850000Y-76000000D03*
%TO.P,U26,8,A2*%
%TO.N,GND*%
X101390000Y-76000000D03*
%TO.P,U26,9,S1*%
%TO.N,Net-(U26-S1)*%
X101390000Y-68380000D03*
%TO.P,U26,10,A1*%
%TO.N,GND*%
X98850000Y-68380000D03*
%TO.P,U26,11,B1*%
%TO.N,Net-(U26-B1)*%
X96310000Y-68380000D03*
%TO.P,U26,12,GND*%
%TO.N,GND*%
X93770000Y-68380000D03*
%TO.P,U26,13,C0*%
%TO.N,Net-(U25-C4)*%
X91230000Y-68380000D03*
%TO.P,U26,14,C4*%
%TO.N,Net-(U26-C4)*%
X88690000Y-68380000D03*
%TO.P,U26,15,S4*%
%TO.N,Net-(U26-S4)*%
X86150000Y-68380000D03*
%TO.P,U26,16,B4*%
%TO.N,Net-(U26-B4)*%
X83610000Y-68380000D03*
%TD*%
D13*
%TO.P,U23,1,~{R}*%
%TO.N,Net-(U23A-~{R})*%
X170000000Y-76000000D03*
D12*
%TO.P,U23,2,D*%
%TO.N,+5V*%
X172540000Y-76000000D03*
%TO.P,U23,3,C*%
%TO.N,Net-(U23A-C)*%
X175080000Y-76000000D03*
%TO.P,U23,4,~{S}*%
%TO.N,+5V*%
X177620000Y-76000000D03*
%TO.P,U23,5,Q*%
%TO.N,Net-(U23A-Q)*%
X180160000Y-76000000D03*
%TO.P,U23,6,~{Q}*%
%TO.N,Net-(U23A-~{Q})*%
X182700000Y-76000000D03*
%TO.P,U23,7,GND*%
%TO.N,GND*%
X185240000Y-76000000D03*
%TO.P,U23,8,~{Q}*%
%TO.N,Net-(U23B-~{Q})*%
X185240000Y-68380000D03*
%TO.P,U23,9,Q*%
%TO.N,unconnected-(U23B-Q-Pad9)*%
X182700000Y-68380000D03*
%TO.P,U23,10,~{S}*%
%TO.N,PRESET*%
X180160000Y-68380000D03*
%TO.P,U23,11,C*%
%TO.N,Net-(U23B-C)*%
X177620000Y-68380000D03*
%TO.P,U23,12,D*%
%TO.N,+5V*%
X175080000Y-68380000D03*
%TO.P,U23,13,~{R}*%
%TO.N,Net-(U23B-~{R})*%
X172540000Y-68380000D03*
%TO.P,U23,14,VCC*%
%TO.N,+5V*%
X170000000Y-68380000D03*
%TD*%
D13*
%TO.P,U44,1,OEa*%
%TO.N,Net-(J11-Pin_7)*%
X140990000Y-127000000D03*
D12*
%TO.P,U44,2,I1*%
%TO.N,Net-(U25-S1)*%
X143530000Y-127000000D03*
%TO.P,U44,3,O1a*%
%TO.N,A7*%
X146070000Y-127000000D03*
%TO.P,U44,4,I2*%
%TO.N,Net-(U25-S4)*%
X148610000Y-127000000D03*
%TO.P,U44,5,O2a*%
%TO.N,A10*%
X151150000Y-127000000D03*
%TO.P,U44,6,I3*%
%TO.N,Net-(U25-S3)*%
X153690000Y-127000000D03*
%TO.P,U44,7,O3a*%
%TO.N,A9*%
X156230000Y-127000000D03*
%TO.P,U44,8,GND*%
%TO.N,GND*%
X158770000Y-127000000D03*
%TO.P,U44,9,O4a*%
%TO.N,A8*%
X158770000Y-119380000D03*
%TO.P,U44,10,I4*%
%TO.N,Net-(U25-S2)*%
X156230000Y-119380000D03*
%TO.P,U44,11,O5b*%
%TO.N,unconnected-(U44-O5b-Pad11)*%
X153690000Y-119380000D03*
%TO.P,U44,12,I5*%
%TO.N,Net-(U33-~{Q0})*%
X151150000Y-119380000D03*
%TO.P,U44,13,O6b*%
%TO.N,unconnected-(U44-O6b-Pad13)*%
X148610000Y-119380000D03*
%TO.P,U44,14,I6*%
%TO.N,Net-(U33-~{Q1})*%
X146070000Y-119380000D03*
%TO.P,U44,15,OEb*%
%TO.N,Net-(J11-Pin_7)*%
X143530000Y-119380000D03*
%TO.P,U44,16,VCC*%
%TO.N,+5V*%
X140990000Y-119380000D03*
%TD*%
D13*
%TO.P,U13,1*%
%TO.N,Net-(J11-Pin_2)*%
X170000000Y-50120000D03*
D12*
%TO.P,U13,2*%
%TO.N,Net-(U13-Pad11)*%
X172540000Y-50120000D03*
%TO.P,U13,3*%
%TO.N,Net-(U14-CP0)*%
X175080000Y-50120000D03*
%TO.P,U13,4*%
%TO.N,Net-(U13-Pad11)*%
X177620000Y-50120000D03*
%TO.P,U13,5*%
%TO.N,Net-(J11-Pin_13)*%
X180160000Y-50120000D03*
%TO.P,U13,6*%
%TO.N,Net-(J11-Pin_1)*%
X182700000Y-50120000D03*
%TO.P,U13,7,GND*%
%TO.N,GND*%
X185240000Y-50120000D03*
%TO.P,U13,8*%
%TO.N,unconnected-(U13-Pad8)*%
X185240000Y-42500000D03*
%TO.P,U13,9*%
%TO.N,unconnected-(U13-Pad9)*%
X182700000Y-42500000D03*
%TO.P,U13,10*%
%TO.N,unconnected-(U13-Pad10)*%
X180160000Y-42500000D03*
%TO.P,U13,11*%
%TO.N,Net-(U13-Pad11)*%
X177620000Y-42500000D03*
%TO.P,U13,12*%
%TO.N,Net-(U12-~{Q})*%
X175080000Y-42500000D03*
%TO.P,U13,13*%
%TO.N,Net-(U37B-Q)*%
X172540000Y-42500000D03*
%TO.P,U13,14,VCC*%
%TO.N,+5V*%
X170000000Y-42500000D03*
%TD*%
D13*
%TO.P,U27,1*%
%TO.N,Net-(J17-Pin_11)*%
X57260000Y-76000000D03*
D12*
%TO.P,U27,2*%
X59800000Y-76000000D03*
%TO.P,U27,3*%
%TO.N,N/C*%
X62340000Y-76000000D03*
%TO.P,U27,4*%
%TO.N,Net-(J17-Pin_10)*%
X64880000Y-76000000D03*
%TO.P,U27,5*%
X67420000Y-76000000D03*
%TO.P,U27,6*%
%TO.N,Net-(J17-Pin_7)*%
X69960000Y-76000000D03*
%TO.P,U27,7,GND*%
%TO.N,GND*%
X72500000Y-76000000D03*
%TO.P,U27,8*%
%TO.N,Net-(U16-Pad11)*%
X72500000Y-68380000D03*
%TO.P,U27,9*%
%TO.N,Net-(J11-Pin_15)*%
X69960000Y-68380000D03*
%TO.P,U27,10*%
%TO.N,Net-(U28-Q3)*%
X67420000Y-68380000D03*
%TO.P,U27,11*%
%TO.N,N/C*%
X64880000Y-68380000D03*
%TO.P,U27,12*%
%TO.N,Net-(U28-Q1)*%
X62340000Y-68380000D03*
%TO.P,U27,13*%
%TO.N,Net-(U28-Q2)*%
X59800000Y-68380000D03*
%TO.P,U27,14,VCC*%
%TO.N,+5V*%
X57260000Y-68380000D03*
%TD*%
%TO.P,C11,1*%
%TO.N,+5V*%
X23500000Y-124200000D03*
%TO.P,C11,2*%
%TO.N,GND*%
X23500000Y-99200000D03*
%TD*%
D18*
%TO.P,U18,1,IN*%
%TO.N,+8V*%
X27560000Y-62467500D03*
D19*
%TO.P,U18,2,GND*%
%TO.N,GND*%
X30100000Y-60267500D03*
%TO.P,U18,3,OUT*%
%TO.N,+5V*%
X32640000Y-62467500D03*
%TD*%
D13*
%TO.P,U22,1*%
%TO.N,Net-(U12-I3)*%
X200000000Y-76000000D03*
D12*
%TO.P,U22,2*%
%TO.N,Net-(U22-Pad2)*%
X202540000Y-76000000D03*
%TO.P,U22,3*%
X205080000Y-76000000D03*
%TO.P,U22,4*%
X207620000Y-76000000D03*
%TO.P,U22,5*%
%TO.N,Net-(U12-I2)*%
X210160000Y-76000000D03*
%TO.P,U22,6*%
%TO.N,Net-(U21-Q3)*%
X212700000Y-76000000D03*
%TO.P,U22,7,GND*%
%TO.N,GND*%
X215240000Y-76000000D03*
%TO.P,U22,8*%
%TO.N,Net-(U12-I1)*%
X215240000Y-68380000D03*
%TO.P,U22,9*%
%TO.N,Net-(U21-Q2)*%
X212700000Y-68380000D03*
%TO.P,U22,10*%
%TO.N,Net-(U22-Pad10)*%
X210160000Y-68380000D03*
%TO.P,U22,11*%
X207620000Y-68380000D03*
%TO.P,U22,12*%
X205080000Y-68380000D03*
%TO.P,U22,13*%
%TO.N,Net-(U12-I2)*%
X202540000Y-68380000D03*
%TO.P,U22,14,VCC*%
%TO.N,+5V*%
X200000000Y-68380000D03*
%TD*%
D13*
%TO.P,U37,1,~{R}*%
%TO.N,Net-(U31A-~{Q})*%
X57340000Y-101000000D03*
D12*
%TO.P,U37,2,D*%
%TO.N,+5V*%
X59880000Y-101000000D03*
%TO.P,U37,3,C*%
%TO.N,Net-(U24-~{LOAD})*%
X62420000Y-101000000D03*
%TO.P,U37,4,~{S}*%
%TO.N,+5V*%
X64960000Y-101000000D03*
%TO.P,U37,5,Q*%
%TO.N,Net-(U23B-~{R})*%
X67500000Y-101000000D03*
%TO.P,U37,6,~{Q}*%
%TO.N,Net-(U37A-~{Q})*%
X70040000Y-101000000D03*
%TO.P,U37,7,GND*%
%TO.N,GND*%
X72580000Y-101000000D03*
%TO.P,U37,8,~{Q}*%
%TO.N,unconnected-(U37B-~{Q}-Pad8)*%
X72580000Y-93380000D03*
%TO.P,U37,9,Q*%
%TO.N,Net-(U37B-Q)*%
X70040000Y-93380000D03*
%TO.P,U37,10,~{S}*%
%TO.N,+5V*%
X67500000Y-93380000D03*
%TO.P,U37,11,C*%
%TO.N,Net-(U12-I1)*%
X64960000Y-93380000D03*
%TO.P,U37,12,D*%
%TO.N,Net-(U23B-~{R})*%
X62420000Y-93380000D03*
%TO.P,U37,13,~{R}*%
%TO.N,Net-(U31A-~{Q})*%
X59880000Y-93380000D03*
%TO.P,U37,14,VCC*%
%TO.N,+5V*%
X57340000Y-93380000D03*
%TD*%
D13*
%TO.P,U35,1,~{Q0}*%
%TO.N,Net-(U25-B1)*%
X112420000Y-101000000D03*
D12*
%TO.P,U35,2,D0*%
%TO.N,Net-(U32-D3)*%
X114960000Y-101000000D03*
%TO.P,U35,3,D1*%
%TO.N,Net-(U32-D2)*%
X117500000Y-101000000D03*
%TO.P,U35,4,E23*%
%TO.N,Net-(J11-Pin_9)*%
X120040000Y-101000000D03*
%TO.P,U35,5,VCC*%
%TO.N,+5V*%
X122580000Y-101000000D03*
%TO.P,U35,6,D2*%
%TO.N,Net-(U32-D1)*%
X125120000Y-101000000D03*
%TO.P,U35,7,D3*%
%TO.N,Net-(U32-D0)*%
X127660000Y-101000000D03*
%TO.P,U35,8,~{Q3}*%
%TO.N,Net-(U25-B4)*%
X130200000Y-101000000D03*
%TO.P,U35,9,Q3*%
%TO.N,unconnected-(U35-Q3-Pad9)*%
X130200000Y-93380000D03*
%TO.P,U35,10,Q2*%
%TO.N,unconnected-(U35-Q2-Pad10)*%
X127660000Y-93380000D03*
%TO.P,U35,11,~{Q2}*%
%TO.N,Net-(U25-B3)*%
X125120000Y-93380000D03*
%TO.P,U35,12,GND*%
%TO.N,GND*%
X122580000Y-93380000D03*
%TO.P,U35,13,E01*%
%TO.N,Net-(J11-Pin_9)*%
X120040000Y-93380000D03*
%TO.P,U35,14,~{Q1}*%
%TO.N,Net-(U25-B2)*%
X117500000Y-93380000D03*
%TO.P,U35,15,Q1*%
%TO.N,unconnected-(U35-Q1-Pad15)*%
X114960000Y-93380000D03*
%TO.P,U35,16,Q0*%
%TO.N,unconnected-(U35-Q0-Pad16)*%
X112420000Y-93380000D03*
%TD*%
D13*
%TO.P,U24,1,B*%
%TO.N,Net-(U24-B)*%
X141230000Y-76000000D03*
D12*
%TO.P,U24,2,QB*%
%TO.N,unconnected-(U24-QB-Pad2)*%
X143770000Y-76000000D03*
%TO.P,U24,3,QA*%
%TO.N,unconnected-(U24-QA-Pad3)*%
X146310000Y-76000000D03*
%TO.P,U24,4,DOWN*%
%TO.N,Net-(U24-DOWN)*%
X148850000Y-76000000D03*
%TO.P,U24,5,UP*%
%TO.N,+5V*%
X151390000Y-76000000D03*
%TO.P,U24,6,QC*%
%TO.N,unconnected-(U24-QC-Pad6)*%
X153930000Y-76000000D03*
%TO.P,U24,7,QD*%
%TO.N,unconnected-(U24-QD-Pad7)*%
X156470000Y-76000000D03*
%TO.P,U24,8,GND*%
%TO.N,GND*%
X159010000Y-76000000D03*
%TO.P,U24,9,D*%
%TO.N,Net-(U24-D)*%
X159010000Y-68380000D03*
%TO.P,U24,10,C*%
%TO.N,Net-(U24-C)*%
X156470000Y-68380000D03*
%TO.P,U24,11,~{LOAD}*%
%TO.N,Net-(U24-~{LOAD})*%
X153930000Y-68380000D03*
%TO.P,U24,12,~{CO}*%
%TO.N,unconnected-(U24-~{CO}-Pad12)*%
X151390000Y-68380000D03*
%TO.P,U24,13,~{BO}*%
%TO.N,Net-(U23B-C)*%
X148850000Y-68380000D03*
%TO.P,U24,14,CLR*%
%TO.N,GND*%
X146310000Y-68380000D03*
%TO.P,U24,15,A*%
%TO.N,Net-(U24-A)*%
X143770000Y-68380000D03*
%TO.P,U24,16,VCC*%
%TO.N,+5V*%
X141230000Y-68380000D03*
%TD*%
D20*
%TO.N,+8V*%
X53500000Y-149000000D03*
%TO.N,GND*%
X95900000Y-98200000D03*
X181000000Y-98200000D03*
X211000000Y-98200000D03*
X242330000Y-73025000D03*
X147100000Y-73000000D03*
X124700000Y-98200000D03*
X153500000Y-98200000D03*
X120000000Y-73000000D03*
X35600000Y-98200000D03*
X124730000Y-47325000D03*
X26600000Y-73000000D03*
X72400000Y-73000000D03*
X208800000Y-47300000D03*
X154830000Y-47325000D03*
X42300000Y-73000000D03*
D21*
%TO.N,PSYNC*%
X131950000Y-144500000D03*
X99538600Y-117803000D03*
D20*
%TO.N,+5V*%
X150000000Y-96200000D03*
X151400000Y-71000000D03*
X38600000Y-71000000D03*
X238830000Y-71025000D03*
X92400000Y-96200000D03*
X177500000Y-96200000D03*
X121230000Y-45325000D03*
X121200000Y-96200000D03*
X207500000Y-96200000D03*
X38700000Y-96200000D03*
X91700000Y-71000000D03*
X124400000Y-71000000D03*
X151330000Y-45325000D03*
D21*
%TO.N,Net-(J11-Pin_12)*%
X57269500Y-77430300D03*
X229231000Y-60882000D03*
X49982500Y-95053100D03*
X234023000Y-48405800D03*
%TO.N,Net-(J11-Pin_11)*%
X235052000Y-74137100D03*
X236034000Y-69861300D03*
X236578000Y-48438700D03*
%TO.N,Net-(J11-Pin_1)*%
X222982000Y-51906500D03*
%TO.N,Net-(J11-Pin_3)*%
X83300000Y-60208400D03*
X59294100Y-74446000D03*
X52088900Y-78367000D03*
X228625000Y-69867600D03*
%TO.N,Net-(J11-Pin_9)*%
X134741000Y-74165200D03*
%TO.N,Net-(J11-Pin_10)*%
X157750000Y-74138700D03*
X160970000Y-69870500D03*
X169606000Y-58038000D03*
%TO.N,Net-(J11-Pin_14)*%
X71256700Y-48438700D03*
%TO.N,Net-(J11-Pin_7)*%
X138145000Y-99947900D03*
%TO.N,Net-(J11-Pin_5)*%
X72053600Y-117944000D03*
X74610500Y-95061300D03*
X78887900Y-99338700D03*
X75261300Y-74145400D03*
%TO.N,Net-(J11-Pin_13)*%
X123978000Y-54210700D03*
X175721000Y-54559100D03*
X234689000Y-44161300D03*
%TO.N,Net-(J11-Pin_6)*%
X192272000Y-120446000D03*
X198113000Y-99338700D03*
X237942000Y-69861300D03*
%TO.N,Net-(J11-Pin_15)*%
X38863100Y-69754200D03*
X80658600Y-65074300D03*
%TO.N,Net-(J11-Pin_2)*%
X226428000Y-69872100D03*
%TO.N,Net-(J17-Pin_15)*%
X200396000Y-78795100D03*
X214227000Y-95061300D03*
X188691000Y-69861300D03*
X85060700Y-46161300D03*
X187936000Y-55741800D03*
%TO.N,Net-(J17-Pin_13)*%
X95147400Y-40098800D03*
X179148000Y-52045000D03*
X193449000Y-78783500D03*
X180677000Y-66878400D03*
%TO.N,Net-(J17-Pin_7)*%
X71091600Y-69861300D03*
D20*
%TO.N,-16V*%
X55200000Y-134200000D03*
D21*
%TO.N,Net-(J17-Pin_11)*%
X59277600Y-64900000D03*
X65216700Y-95061300D03*
X68662300Y-99303900D03*
X50305800Y-48438700D03*
%TO.N,Net-(J17-Pin_14)*%
X202428000Y-78043400D03*
X189207000Y-59282400D03*
X191376000Y-69861300D03*
X83327900Y-45372500D03*
X75653700Y-40481400D03*
%TO.N,Net-(J17-Pin_10)*%
X80687000Y-45899400D03*
X81707200Y-62881200D03*
%TO.N,Net-(J17-Pin_12)*%
X84328200Y-45372600D03*
X156874000Y-84708100D03*
X94704000Y-51693700D03*
X77297000Y-41742600D03*
X155651000Y-77640300D03*
X99992900Y-69861300D03*
%TO.N,D05*%
X181310100Y-125617100D03*
X175853100Y-146589400D03*
%TO.N,PRESET*%
X131439500Y-125696800D03*
X168699900Y-69861300D03*
X164422500Y-74138700D03*
X173543200Y-111777000D03*
X130728700Y-111777000D03*
X170347300Y-92128300D03*
X125665900Y-121161300D03*
X178912800Y-105150000D03*
%TO.N,D12*%
X214010300Y-139067500D03*
%TO.N,A10*%
X158578100Y-145693459D03*
%TO.N,A11*%
X161326000Y-141083900D03*
%TO.N,D13*%
X214086100Y-140054900D03*
X226675700Y-130049700D03*
%TO.N,D04*%
X172597100Y-146589400D03*
%TO.N,D00*%
X167911300Y-147255600D03*
X178770100Y-125617100D03*
%TO.N,D16*%
X233765400Y-125500000D03*
%TO.N,A8*%
X177049800Y-125434400D03*
X163650800Y-119821500D03*
X174691900Y-120904000D03*
%TO.N,D06*%
X202441300Y-131344200D03*
X197010600Y-120027000D03*
X179659650Y-146659650D03*
%TO.N,A14*%
X161001400Y-143506800D03*
%TO.N,D01*%
X166705500Y-146143500D03*
%TO.N,D10*%
X243016400Y-128947400D03*
%TO.N,A13*%
X160197700Y-142755100D03*
%TO.N,D07*%
X180704000Y-131292200D03*
X180700000Y-147100000D03*
X180704000Y-140633500D03*
X202213900Y-120904000D03*
%TO.N,Net-(U23A-Q)*%
X137573000Y-121159000D03*
X134218000Y-102119000D03*
X137573000Y-125433000D03*
%TO.N,Net-(U12-S1)*%
X181430000Y-76744000D03*
X180707000Y-69861300D03*
X193531000Y-48762000D03*
%TO.N,Net-(U12-S0)*%
X211551000Y-48405800D03*
X215784000Y-69861300D03*
%TO.N,Net-(U12-I3)*%
X198861000Y-69858300D03*
%TO.N,Net-(U12-I1)*%
X202654000Y-61370000D03*
X73915900Y-78611500D03*
%TO.N,Net-(U37B-Q)*%
X74309400Y-74109900D03*
X148672000Y-58928700D03*
X164689000Y-44161300D03*
X154248000Y-48572500D03*
%TO.N,Net-(U14-CP1..3)*%
X110187000Y-44185200D03*
%TO.N,Net-(U15-Q3)*%
X106008000Y-68696500D03*
X111900000Y-48438700D03*
%TO.N,Net-(U15-Q0)*%
X121233000Y-48438700D03*
%TO.N,Net-(U15-Q1)*%
X125516000Y-48438700D03*
X128012000Y-69892100D03*
%TO.N,Net-(U15-Q2)*%
X110824000Y-69540100D03*
X115523000Y-48405800D03*
%TO.N,Net-(U24-DOWN)*%
X105761000Y-69861300D03*
X101403000Y-51511200D03*
X95521700Y-44177100D03*
%TO.N,Net-(U24-~{LOAD})*%
X56334800Y-78242500D03*
X80882100Y-69892600D03*
X44025400Y-99338700D03*
X128894000Y-54962400D03*
%TO.N,Net-(U23B-~{Q})*%
X207399000Y-79546800D03*
%TO.N,Net-(U23B-~{R})*%
X69136800Y-86663200D03*
%TO.N,Net-(U23A-~{R})*%
X60724900Y-88235400D03*
X52075700Y-95070500D03*
%TO.N,Net-(U23A-~{Q})*%
X56334500Y-113815000D03*
X176232000Y-95061300D03*
X172597000Y-110764000D03*
X177384000Y-99338700D03*
%TO.N,Net-(U24-A)*%
X155015000Y-90450600D03*
X149104000Y-74137100D03*
X147443000Y-69861300D03*
%TO.N,Net-(U24-D)*%
X154802000Y-91489300D03*
X156057000Y-74138700D03*
%TO.N,Net-(U24-C)*%
X145703000Y-78261900D03*
%TO.N,Net-(U25-B1)*%
X118457000Y-77124400D03*
X106436000Y-94268900D03*
%TO.N,Net-(U25-S4)*%
X132711000Y-95066100D03*
X134777000Y-76152200D03*
X134854000Y-99947900D03*
X139859000Y-120820000D03*
%TO.N,Net-(U25-S2)*%
X129462000Y-89108900D03*
X136019000Y-99947900D03*
X141839000Y-114221000D03*
%TO.N,Net-(U25-S1)*%
X134680000Y-95061300D03*
X135446000Y-101478000D03*
X138304000Y-120502000D03*
X135942000Y-75202500D03*
%TO.N,Net-(U25-S3)*%
X118153000Y-88995300D03*
X143192000Y-120904000D03*
X137256000Y-102697000D03*
%TO.N,Net-(U25-B4)*%
X120285000Y-74446000D03*
X120734000Y-89747000D03*
%TO.N,Net-(U26-B3)*%
X95977300Y-79324500D03*
%TO.N,Net-(U26-C4)*%
X82414100Y-74123800D03*
X76419400Y-95061300D03*
X114000000Y-112185000D03*
%TO.N,Net-(U26-S2)*%
X115385000Y-99338700D03*
X107829000Y-95061300D03*
X113727000Y-121074000D03*
%TO.N,Net-(U26-S3)*%
X115816000Y-104264000D03*
X95671700Y-95061300D03*
%TO.N,Net-(U26-B4)*%
X87420000Y-90858200D03*
X86118400Y-74138700D03*
X90750800Y-99338700D03*
%TO.N,Net-(U26-S4)*%
X119285000Y-99338700D03*
X119161000Y-121161000D03*
X107916000Y-80726900D03*
X108726000Y-94647400D03*
%TO.N,Net-(U26-B1)*%
X85647600Y-69861300D03*
X77523100Y-95061300D03*
X84552200Y-78187200D03*
%TO.N,Net-(U26-S1)*%
X111801000Y-108794000D03*
X120420000Y-108794000D03*
X112836000Y-99338700D03*
X109781000Y-93448400D03*
X114060000Y-77794400D03*
%TO.N,Net-(U31A-D)*%
X105869000Y-108019000D03*
%TO.N,Net-(U31A-~{Q})*%
X66095200Y-99350500D03*
X64880100Y-116889000D03*
X241153000Y-121061000D03*
%TO.N,Net-(U31B-D)*%
X102577000Y-107267000D03*
%TO.N,Net-(U32-D0)*%
X194166000Y-113761000D03*
X194166000Y-119066000D03*
X152487000Y-113761000D03*
%TO.N,Net-(U32-D2)*%
X161881000Y-121161000D03*
X197728000Y-114702000D03*
%TO.N,Net-(U32-D1)*%
X193984000Y-120090000D03*
X195369000Y-108891000D03*
X152519000Y-108891000D03*
%TO.N,Net-(U32-D3)*%
X96823400Y-121182000D03*
%TO.N,Net-(U33-~{Q1})*%
X147936000Y-105422000D03*
%TO.N,Net-(U33-~{Q0})*%
X155062000Y-103247000D03*
X56302900Y-90012700D03*
%TO.N,Net-(U33-D3)*%
X187550000Y-120440000D03*
%TO.N,Net-(U37A-~{Q})*%
X70047400Y-115684000D03*
%TO.N,Net-(U38-~{LOAD})*%
X48152100Y-103032000D03*
%TO.N,Net-(U41-OEa)*%
X56343500Y-116699000D03*
X177534000Y-132114000D03*
%TO.N,Net-(U41-I5)*%
X58322600Y-115736000D03*
%TO.N,Net-(U48A-D)*%
X58494100Y-125439000D03*
%TD*%
D22*
%TO.N,GND*%
X37550000Y-136000000D02*
X44880000Y-128670000D01*
X44880000Y-128670000D02*
X44880000Y-127000000D01*
%TO.N,+5V*%
X29640000Y-135590000D02*
X30050000Y-136000000D01*
X29640000Y-127000000D02*
X29640000Y-135590000D01*
D23*
%TO.N,D00*%
X167866900Y-147300000D02*
X167911300Y-147255600D01*
X165100000Y-147300000D02*
X167866900Y-147300000D01*
X165100000Y-152781000D02*
X165100000Y-147300000D01*
%TO.N,PHLDA*%
X133350000Y-145550000D02*
X133350000Y-152781000D01*
X105850000Y-145550000D02*
X133350000Y-145550000D01*
X87300000Y-127000000D02*
X105850000Y-145550000D01*
%TO.N,PSYNC*%
X126948700Y-144500000D02*
X100251700Y-117803000D01*
X100251700Y-117803000D02*
X99538600Y-117803000D01*
X131950000Y-144500000D02*
X126948700Y-144500000D01*
X81627000Y-118123000D02*
X80350000Y-119400000D01*
X93663200Y-118123000D02*
X81627000Y-118123000D01*
X94920000Y-119380000D02*
X93663200Y-118123000D01*
%TO.N,GND*%
X122580000Y-94065000D02*
X122580000Y-93380000D01*
X152700000Y-42505000D02*
X152700000Y-42500000D01*
X122570000Y-94075000D02*
X122580000Y-94065000D01*
D22*
X124700000Y-96900000D02*
X122570000Y-94770000D01*
X208780000Y-47280000D02*
X208800000Y-47300000D01*
D23*
X178870000Y-94075000D02*
X178890000Y-94055000D01*
D22*
X95350000Y-71250000D02*
X93770000Y-69670000D01*
X211000000Y-96900000D02*
X208870000Y-94770000D01*
X154830000Y-47325000D02*
X154830000Y-46025000D01*
X93770000Y-69670000D02*
X93770000Y-68380000D01*
X124700000Y-98200000D02*
X124700000Y-96900000D01*
X122570000Y-94770000D02*
X122570000Y-94075000D01*
X98850000Y-71250000D02*
X98850000Y-68380000D01*
X178870000Y-94770000D02*
X178870000Y-94075000D01*
X153500000Y-96900000D02*
X151370000Y-94770000D01*
X26600000Y-73000000D02*
X26600000Y-67600000D01*
X120040000Y-68380000D02*
X120040000Y-72960000D01*
X72500000Y-76000000D02*
X72500000Y-73100000D01*
D23*
X240160000Y-68860000D02*
X240160000Y-68380000D01*
D22*
X151370000Y-94770000D02*
X151370000Y-94075000D01*
D23*
X39960000Y-68707100D02*
X39960000Y-68380000D01*
D22*
X208870000Y-94075000D02*
X208870000Y-93380000D01*
X151370000Y-94075000D02*
X151370000Y-93380000D01*
X26600000Y-67600000D02*
X30100000Y-64100000D01*
X211000000Y-98200000D02*
X211000000Y-96900000D01*
X42300000Y-71850000D02*
X39970000Y-69520000D01*
X101390000Y-76000000D02*
X101390000Y-73790000D01*
X208870000Y-94770000D02*
X208870000Y-94075000D01*
X95900000Y-98200000D02*
X95900000Y-96900000D01*
X120040000Y-68380000D02*
X122580000Y-68380000D01*
X146310000Y-72210000D02*
X147100000Y-73000000D01*
X98850000Y-71250000D02*
X95350000Y-71250000D01*
X33690000Y-93380000D02*
X33690000Y-96490000D01*
D23*
X208870000Y-94075000D02*
X208890000Y-94055000D01*
D22*
X124730000Y-47325000D02*
X124730000Y-46025000D01*
X154830000Y-46025000D02*
X152700000Y-43895000D01*
D23*
X178890000Y-94055000D02*
X178890000Y-93380000D01*
D22*
X208780000Y-42500000D02*
X208780000Y-47280000D01*
D23*
X151370000Y-94075000D02*
X151390000Y-94055000D01*
D22*
X240200000Y-69595000D02*
X240200000Y-68900000D01*
X30100000Y-60879700D02*
X30100000Y-60267500D01*
X39970000Y-68717100D02*
X39970000Y-68130000D01*
X122600000Y-43200000D02*
X122600000Y-42505000D01*
X216400000Y-50120000D02*
X216400000Y-42500000D01*
X242330000Y-73025000D02*
X242330000Y-71725000D01*
D23*
X122580000Y-43180000D02*
X122580000Y-42500000D01*
D22*
X93770000Y-94770000D02*
X93770000Y-93380000D01*
X46390000Y-101000000D02*
X46390000Y-93380000D01*
X39970000Y-69520000D02*
X39970000Y-68717100D01*
X124730000Y-46025000D02*
X122600000Y-43895000D01*
X120040000Y-72960000D02*
X120000000Y-73000000D01*
D23*
X208890000Y-94055000D02*
X208890000Y-93380000D01*
D22*
X240200000Y-68900000D02*
X240200000Y-68205000D01*
X146310000Y-68380000D02*
X146310000Y-72210000D01*
D23*
X122600000Y-43200000D02*
X122580000Y-43180000D01*
D22*
X30100000Y-64100000D02*
X30100000Y-60879700D01*
X101390000Y-73790000D02*
X98850000Y-71250000D01*
D23*
X240200000Y-68900000D02*
X240160000Y-68860000D01*
D22*
X72500000Y-73100000D02*
X72400000Y-73000000D01*
X152700000Y-43895000D02*
X152700000Y-42505000D01*
X35400000Y-98200000D02*
X35600000Y-98200000D01*
X39900000Y-68440000D02*
X39960000Y-68380000D01*
X33690000Y-96490000D02*
X35400000Y-98200000D01*
X178870000Y-94075000D02*
X178870000Y-93380000D01*
X153500000Y-98200000D02*
X153500000Y-96900000D01*
X122570000Y-94075000D02*
X122570000Y-93380000D01*
D23*
X151390000Y-94055000D02*
X151390000Y-93380000D01*
X39970000Y-68717100D02*
X39960000Y-68707100D01*
D22*
X181000000Y-96900000D02*
X178870000Y-94770000D01*
X242330000Y-71725000D02*
X240200000Y-69595000D01*
X122600000Y-43895000D02*
X122600000Y-43200000D01*
X42300000Y-73000000D02*
X42300000Y-71850000D01*
X95900000Y-96900000D02*
X93770000Y-94770000D01*
X181000000Y-98200000D02*
X181000000Y-96900000D01*
%TO.N,+5V*%
X177500000Y-96200000D02*
X177500000Y-97700000D01*
D23*
X175060000Y-68400000D02*
X175060000Y-68460000D01*
X177600000Y-74300000D02*
X177620000Y-74320000D01*
D22*
X177600000Y-72520000D02*
X177600000Y-74300000D01*
D23*
X122580000Y-49526800D02*
X122580000Y-50120000D01*
D22*
X170000000Y-69900000D02*
X172540000Y-72440000D01*
X79200000Y-43900000D02*
X77800000Y-45300000D01*
X151370000Y-100035000D02*
X151370000Y-101000000D01*
X92400000Y-97700000D02*
X93770000Y-99070000D01*
X38700000Y-96200000D02*
X38700000Y-100930000D01*
X151370000Y-99070000D02*
X151370000Y-100035000D01*
X93770000Y-73070000D02*
X93770000Y-76000000D01*
X57380000Y-119380000D02*
X57380000Y-127000000D01*
X152700000Y-48195000D02*
X152700000Y-50120000D01*
X122570000Y-99070000D02*
X122570000Y-100035000D01*
D23*
X122570000Y-100035000D02*
X122580000Y-100045000D01*
D22*
X151330000Y-45325000D02*
X151330000Y-46825000D01*
X57340000Y-95840000D02*
X59880000Y-98380000D01*
X122580000Y-74520000D02*
X122580000Y-76000000D01*
X122570000Y-100035000D02*
X122570000Y-101000000D01*
D23*
X122600000Y-49506800D02*
X122580000Y-49526800D01*
D22*
X67540000Y-119380000D02*
X67540000Y-121560000D01*
D23*
X177620000Y-74320000D02*
X177620000Y-76000000D01*
D22*
X34720000Y-119380000D02*
X34720000Y-121720000D01*
X59880000Y-98380000D02*
X59880000Y-101000000D01*
X39960000Y-73960000D02*
X38600000Y-72600000D01*
D23*
X208870000Y-100035000D02*
X208890000Y-100055000D01*
D22*
X84760000Y-119380000D02*
X84760000Y-127000000D01*
X65000000Y-124100000D02*
X65000000Y-127000000D01*
X240160000Y-73855000D02*
X238830000Y-72525000D01*
X151400000Y-75990000D02*
X151390000Y-76000000D01*
X151400000Y-71000000D02*
X151400000Y-75990000D01*
X207500000Y-97700000D02*
X208870000Y-99070000D01*
D23*
X208890000Y-100055000D02*
X208890000Y-101000000D01*
X151370000Y-100035000D02*
X151390000Y-100055000D01*
D22*
X150000000Y-97700000D02*
X151370000Y-99070000D01*
X34720000Y-121720000D02*
X37260000Y-124260000D01*
X121200000Y-97700000D02*
X122570000Y-99070000D01*
X208870000Y-99070000D02*
X208870000Y-100035000D01*
D23*
X32640000Y-62467500D02*
X32790000Y-62617500D01*
D22*
X39960000Y-76000000D02*
X39960000Y-73960000D01*
X150000000Y-96200000D02*
X150000000Y-97700000D01*
X77800000Y-45300000D02*
X57300000Y-45300000D01*
X240160000Y-76000000D02*
X240160000Y-73855000D01*
D23*
X175080000Y-68380000D02*
X175060000Y-68400000D01*
D22*
X175060000Y-68460000D02*
X175060000Y-69980000D01*
X172540000Y-72440000D02*
X172540000Y-76000000D01*
X177500000Y-97700000D02*
X178870000Y-99070000D01*
D23*
X178870000Y-100035000D02*
X178890000Y-100055000D01*
D22*
X122600000Y-49506800D02*
X122600000Y-50125000D01*
X64960000Y-99560000D02*
X64960000Y-101000000D01*
D23*
X32790000Y-62617500D02*
X32790000Y-62750000D01*
D22*
X151330000Y-46825000D02*
X152700000Y-48195000D01*
X39850000Y-62750000D02*
X32790000Y-62750000D01*
X91700000Y-71000000D02*
X93770000Y-73070000D01*
D23*
X178890000Y-100055000D02*
X178890000Y-101000000D01*
D22*
X230000000Y-93380000D02*
X230000000Y-101000000D01*
X38600000Y-72600000D02*
X38600000Y-71000000D01*
X152700000Y-50120000D02*
X152700000Y-50125000D01*
X67540000Y-121560000D02*
X65000000Y-124100000D01*
X178870000Y-99070000D02*
X178870000Y-100035000D01*
X207500000Y-96200000D02*
X207500000Y-97700000D01*
X121230000Y-46825000D02*
X122600000Y-48195000D01*
X170000000Y-68380000D02*
X170000000Y-69900000D01*
X59880000Y-98380000D02*
X63780000Y-98380000D01*
X57300000Y-45300000D02*
X39850000Y-62750000D01*
X29640000Y-119380000D02*
X29640000Y-127000000D01*
X178870000Y-100035000D02*
X178870000Y-101000000D01*
X177600000Y-74300000D02*
X177600000Y-76080000D01*
X63780000Y-98380000D02*
X64960000Y-99560000D01*
X124400000Y-71000000D02*
X124400000Y-72700000D01*
X92400000Y-96200000D02*
X92400000Y-97700000D01*
X37260000Y-124260000D02*
X37260000Y-127000000D01*
X208870000Y-100035000D02*
X208870000Y-101000000D01*
X238830000Y-72525000D02*
X238830000Y-71025000D01*
X79200000Y-42450000D02*
X79200000Y-43900000D01*
D23*
X122580000Y-100045000D02*
X122580000Y-101000000D01*
D22*
X124400000Y-72700000D02*
X122580000Y-74520000D01*
X121200000Y-96200000D02*
X121200000Y-97700000D01*
X57340000Y-93380000D02*
X57340000Y-95840000D01*
X93770000Y-99070000D02*
X93770000Y-101000000D01*
X121230000Y-45325000D02*
X121230000Y-46825000D01*
X175060000Y-69980000D02*
X177600000Y-72520000D01*
X38700000Y-100930000D02*
X38770000Y-101000000D01*
X122600000Y-48195000D02*
X122600000Y-49506800D01*
D23*
X151390000Y-100055000D02*
X151390000Y-101000000D01*
%TO.N,Net-(J11-Pin_12)*%
X238890000Y-42500000D02*
X234023000Y-47367100D01*
X87617400Y-60880500D02*
X80128800Y-68369100D01*
X202081000Y-60880500D02*
X87617400Y-60880500D01*
X33451500Y-125732000D02*
X33451500Y-118848000D01*
X33451500Y-118848000D02*
X49982500Y-102317000D01*
X34720000Y-127000000D02*
X33451500Y-125732000D01*
X228967000Y-60618300D02*
X202343000Y-60618300D01*
X49982500Y-102317000D02*
X49982500Y-95053100D01*
X229231000Y-60882000D02*
X228967000Y-60618300D01*
X234023000Y-47367100D02*
X234023000Y-48405800D01*
X202343000Y-60618300D02*
X202081000Y-60880500D01*
X73057500Y-77430300D02*
X57269500Y-77430300D01*
X80128800Y-68369100D02*
X80128800Y-70359000D01*
X80128800Y-70359000D02*
X73057500Y-77430300D01*
%TO.N,Net-(J11-Pin_11)*%
X235466000Y-95533900D02*
X235080000Y-95533900D01*
X237620000Y-93380000D02*
X235466000Y-95533900D01*
X232880000Y-95533900D02*
X235080000Y-95533900D01*
X241430000Y-43586900D02*
X241430000Y-42500000D01*
X236578000Y-48438700D02*
X241430000Y-43586900D01*
X231270000Y-92840100D02*
X231270000Y-93924300D01*
X230506000Y-92075500D02*
X231270000Y-92840100D01*
X206350000Y-93380000D02*
X206350000Y-101000000D01*
X207654000Y-92075500D02*
X230506000Y-92075500D01*
X206350000Y-93380000D02*
X207654000Y-92075500D01*
X235052000Y-70842500D02*
X236034000Y-69861300D01*
X235052000Y-74137100D02*
X235052000Y-70842500D01*
X235080000Y-95533900D02*
X235080000Y-101000000D01*
X231270000Y-93924300D02*
X232880000Y-95533900D01*
%TO.N,Net-(J11-Pin_1)*%
X184556000Y-51976100D02*
X222912000Y-51976100D01*
X182700000Y-50120000D02*
X184556000Y-51976100D01*
X222912000Y-51976100D02*
X222982000Y-51906500D01*
%TO.N,Net-(J11-Pin_3)*%
X89731000Y-52617400D02*
X142583000Y-52617400D01*
X59294100Y-74446000D02*
X60677700Y-74446000D01*
X60677700Y-74446000D02*
X66150000Y-68973700D01*
X34880000Y-76000000D02*
X32340000Y-76000000D01*
X222172000Y-53861600D02*
X230068000Y-53861600D01*
X147620000Y-50120000D02*
X151281000Y-53781200D01*
X37247000Y-78367000D02*
X34880000Y-76000000D01*
X73821200Y-60208400D02*
X83300000Y-60208400D01*
X52088900Y-78367000D02*
X37247000Y-78367000D01*
X87340000Y-50120000D02*
X87340000Y-50226400D01*
X228625000Y-72085000D02*
X228625000Y-69867600D01*
X142583000Y-52617400D02*
X145080000Y-50120000D01*
X145080000Y-50120000D02*
X147620000Y-50120000D01*
X66150000Y-67879600D02*
X73821200Y-60208400D01*
X222092000Y-53781200D02*
X222172000Y-53861600D01*
X66150000Y-68973700D02*
X66150000Y-67879600D01*
X230068000Y-53861600D02*
X233810000Y-50120000D01*
X232540000Y-76000000D02*
X228625000Y-72085000D01*
X87340000Y-50226400D02*
X89731000Y-52617400D01*
X151281000Y-53781200D02*
X222092000Y-53781200D01*
%TO.N,Net-(J11-Pin_9)*%
X240160000Y-48850000D02*
X246510000Y-42500000D01*
X91230000Y-101000000D02*
X91516000Y-100714000D01*
X92535200Y-92074800D02*
X91230000Y-93380000D01*
X148253000Y-62121700D02*
X229054000Y-62121700D01*
X120040000Y-93380000D02*
X118735000Y-92074800D01*
X91230000Y-98342500D02*
X91230000Y-93380000D01*
X91516000Y-98628500D02*
X91230000Y-98342500D01*
X118735000Y-92074800D02*
X92535200Y-92074800D01*
X134741000Y-74165200D02*
X137223000Y-74165200D01*
X120040000Y-93380000D02*
X120040000Y-101000000D01*
X142500000Y-68888500D02*
X142500000Y-67874600D01*
X91516000Y-100714000D02*
X91516000Y-98628500D01*
X229054000Y-62121700D02*
X240160000Y-51015700D01*
X142500000Y-67874600D02*
X148253000Y-62121700D01*
X137223000Y-74165200D02*
X142500000Y-68888500D01*
X240160000Y-51015700D02*
X240160000Y-48850000D01*
%TO.N,Net-(J11-Pin_10)*%
X160970000Y-70918200D02*
X157750000Y-74138700D01*
X148850000Y-101000000D02*
X148850000Y-93380000D01*
X237620000Y-48850000D02*
X237620000Y-50661400D01*
X243970000Y-42500000D02*
X237620000Y-48850000D01*
X237620000Y-50661400D02*
X230243000Y-58038000D01*
X160970000Y-69870500D02*
X160970000Y-70918200D01*
X230243000Y-58038000D02*
X169606000Y-58038000D01*
%TO.N,Net-(J11-Pin_14)*%
X77032300Y-48438700D02*
X86769000Y-38702000D01*
X97478000Y-38702000D02*
X98779900Y-37400100D01*
X228710000Y-37400100D02*
X233810000Y-42500000D01*
X86769000Y-38702000D02*
X97478000Y-38702000D01*
X98779900Y-37400100D02*
X228710000Y-37400100D01*
X71256700Y-48438700D02*
X77032300Y-48438700D01*
%TO.N,Net-(J11-Pin_7)*%
X114840000Y-119380000D02*
X114358000Y-119380000D01*
X181519000Y-64893700D02*
X178890000Y-67523100D01*
X147494000Y-89153900D02*
X146225000Y-89153900D01*
X142500000Y-92878500D02*
X142500000Y-95593200D01*
X138642000Y-118094000D02*
X116126000Y-118094000D01*
X112300000Y-121438000D02*
X112300000Y-127000000D01*
X172433000Y-82988500D02*
X153660000Y-82988500D01*
X178890000Y-76531200D02*
X172433000Y-82988500D01*
X178890000Y-67523100D02*
X178890000Y-76531200D01*
X114358000Y-119380000D02*
X112300000Y-121438000D01*
X243970000Y-50120000D02*
X229196000Y-64893700D01*
X116126000Y-118094000D02*
X114840000Y-119380000D01*
X139524000Y-118088000D02*
X139080000Y-118532000D01*
X139080000Y-118532000D02*
X138642000Y-118094000D01*
X143530000Y-119380000D02*
X142238000Y-118088000D01*
X139080000Y-125090000D02*
X139080000Y-118532000D01*
X229196000Y-64893700D02*
X181519000Y-64893700D01*
X142500000Y-95593200D02*
X138145000Y-99947900D01*
X153660000Y-82988500D02*
X147494000Y-89153900D01*
X142238000Y-118088000D02*
X139524000Y-118088000D01*
X146225000Y-89153900D02*
X142500000Y-92878500D01*
X140990000Y-127000000D02*
X139080000Y-125090000D01*
%TO.N,Net-(J11-Pin_5)*%
X63723100Y-128263000D02*
X65515600Y-128263000D01*
X71350000Y-121396000D02*
X71350000Y-118647000D01*
X71350000Y-118647000D02*
X72053600Y-117944000D01*
X66270000Y-126476000D02*
X71350000Y-121396000D01*
X202094000Y-60016600D02*
X202076000Y-60034100D01*
X74610500Y-95061300D02*
X78887900Y-99338700D01*
X75261300Y-72385700D02*
X75261300Y-74145400D01*
X87612900Y-60034100D02*
X75261300Y-72385700D01*
X202076000Y-60034100D02*
X87612900Y-60034100D01*
X229121000Y-60016600D02*
X202094000Y-60016600D01*
X238890000Y-50120000D02*
X238890000Y-50247300D01*
X66270000Y-127509000D02*
X66270000Y-126476000D01*
X62460000Y-127000000D02*
X63723100Y-128263000D01*
X65515600Y-128263000D02*
X66270000Y-127509000D01*
X238890000Y-50247300D02*
X229121000Y-60016600D01*
%TO.N,Net-(J11-Pin_13)*%
X223294000Y-52658200D02*
X222671000Y-52658200D01*
X222671000Y-52658200D02*
X222590000Y-52577800D01*
X115041000Y-46890800D02*
X111168000Y-43018400D01*
X129205000Y-54210700D02*
X123978000Y-54210700D01*
X182618000Y-52577800D02*
X180160000Y-50120000D01*
X120040000Y-50120000D02*
X116811000Y-46890800D01*
X97500000Y-45040000D02*
X97500000Y-50120000D01*
X94960000Y-42500000D02*
X97500000Y-45040000D01*
X175721000Y-54559100D02*
X129554000Y-54559100D01*
X129554000Y-54559100D02*
X129205000Y-54210700D01*
X222590000Y-52577800D02*
X182618000Y-52577800D01*
X111902000Y-41248300D02*
X112938000Y-41248300D01*
X112938000Y-41248300D02*
X113672000Y-41981500D01*
X234689000Y-44161300D02*
X231790000Y-44161300D01*
X116811000Y-46890800D02*
X115041000Y-46890800D01*
X118762000Y-43778200D02*
X120040000Y-42500000D01*
X114381000Y-43778200D02*
X118762000Y-43778200D01*
X111168000Y-43018400D02*
X111168000Y-41981600D01*
X111168000Y-41981600D02*
X111902000Y-41248300D01*
X113672000Y-43068600D02*
X114381000Y-43778200D01*
X113672000Y-41981500D02*
X113672000Y-43068600D01*
X231790000Y-44161300D02*
X223294000Y-52658200D01*
%TO.N,Net-(J11-Pin_6)*%
X192272000Y-120446000D02*
X189844000Y-120446000D01*
X222279000Y-90575900D02*
X236350000Y-76505000D01*
X183085000Y-128268000D02*
X171148000Y-128268000D01*
X236350000Y-71453500D02*
X237942000Y-69861300D01*
X183868000Y-126421000D02*
X183868000Y-127485000D01*
X189844000Y-120446000D02*
X183868000Y-126421000D01*
X183868000Y-127485000D02*
X183085000Y-128268000D01*
X236350000Y-76505000D02*
X236350000Y-71453500D01*
X198113000Y-99338700D02*
X200018000Y-97433800D01*
X200018000Y-92857400D02*
X202300000Y-90575900D01*
X202300000Y-90575900D02*
X222279000Y-90575900D01*
X171148000Y-128268000D02*
X169880000Y-127000000D01*
X200018000Y-97433800D02*
X200018000Y-92857400D01*
%TO.N,Net-(J11-Pin_15)*%
X226774000Y-38003800D02*
X99027200Y-38003800D01*
X91150000Y-41969600D02*
X91150000Y-48850000D01*
X231270000Y-42500000D02*
X226774000Y-38003800D01*
X97719400Y-39311600D02*
X93808000Y-39311600D01*
X73265700Y-65074300D02*
X69960000Y-68380000D01*
X93808000Y-39311600D02*
X91150000Y-41969600D01*
X99027200Y-38003800D02*
X97719400Y-39311600D01*
X29800000Y-76000000D02*
X36045800Y-69754200D01*
X80658600Y-65074300D02*
X73265700Y-65074300D01*
X36045800Y-69754200D02*
X38863100Y-69754200D01*
X91150000Y-48850000D02*
X92420000Y-50120000D01*
%TO.N,Net-(J11-Pin_2)*%
X222341000Y-53179500D02*
X222422000Y-53259900D01*
X226428000Y-72427900D02*
X230000000Y-76000000D01*
X170000000Y-50120000D02*
X173060000Y-53179500D01*
X173060000Y-53179500D02*
X222341000Y-53179500D01*
X228130000Y-53259900D02*
X231270000Y-50120000D01*
X222422000Y-53259900D02*
X228130000Y-53259900D01*
X226428000Y-69872100D02*
X226428000Y-72427900D01*
%TO.N,Net-(J17-Pin_15)*%
X188691000Y-69861300D02*
X197625000Y-78795100D01*
X83528100Y-50960900D02*
X88309000Y-55741800D01*
X88309000Y-55741800D02*
X187936000Y-55741800D01*
X216510000Y-101000000D02*
X216510000Y-97344600D01*
X85060700Y-46161300D02*
X83528100Y-47693900D01*
X216510000Y-97344600D02*
X214227000Y-95061300D01*
X197625000Y-78795100D02*
X200396000Y-78795100D01*
X83528100Y-47693900D02*
X83528100Y-50960900D01*
%TO.N,Net-(J17-Pin_13)*%
X236841000Y-121309000D02*
X238623000Y-121309000D01*
X176350000Y-49490000D02*
X171270000Y-44410000D01*
X181412000Y-68878600D02*
X181412000Y-67613200D01*
X167966000Y-38651900D02*
X99529800Y-38651900D01*
X179148000Y-52045000D02*
X177730000Y-52045000D01*
X231150000Y-127000000D02*
X236841000Y-121309000D01*
X99529800Y-38651900D02*
X98082900Y-40098800D01*
X193449000Y-78783500D02*
X191317000Y-78783500D01*
X191317000Y-78783500D02*
X181412000Y-68878600D01*
X205080000Y-94650000D02*
X203810000Y-93380000D01*
X237706000Y-116488000D02*
X220035000Y-116488000D01*
X171270000Y-41955700D02*
X167966000Y-38651900D01*
X240040000Y-119892000D02*
X240040000Y-118822000D01*
X205080000Y-101533000D02*
X205080000Y-94650000D01*
X240040000Y-118822000D02*
X237706000Y-116488000D01*
X171270000Y-44410000D02*
X171270000Y-41955700D01*
X220035000Y-116488000D02*
X205080000Y-101533000D01*
X98082900Y-40098800D02*
X95147400Y-40098800D01*
X177730000Y-52045000D02*
X176350000Y-50665100D01*
X176350000Y-50665100D02*
X176350000Y-49490000D01*
X238623000Y-121309000D02*
X240040000Y-119892000D01*
X181412000Y-67613200D02*
X180677000Y-66878400D01*
%TO.N,Net-(J17-Pin_7)*%
X71091600Y-69861300D02*
X69960000Y-70992900D01*
X69960000Y-70992900D02*
X69960000Y-76000000D01*
D22*
%TO.N,-16V*%
X55200000Y-134200000D02*
X55200000Y-66900000D01*
X59900000Y-62200000D02*
X67900000Y-62200000D01*
X67900000Y-62200000D02*
X73660000Y-56440000D01*
X73660000Y-56440000D02*
X73660000Y-50000000D01*
X55200000Y-66900000D02*
X59900000Y-62200000D01*
D23*
%TO.N,Net-(J17-Pin_11)*%
X68662300Y-99303900D02*
X68662300Y-98506900D01*
X59800000Y-76000000D02*
X58530000Y-76000000D01*
X54542300Y-44202200D02*
X66757800Y-44202200D01*
X58530000Y-76000000D02*
X58530000Y-65647600D01*
X68662300Y-98506900D02*
X65216700Y-95061300D01*
X58530000Y-76000000D02*
X57260000Y-76000000D01*
X58530000Y-65647600D02*
X59277600Y-64900000D01*
X50305800Y-48438700D02*
X54542300Y-44202200D01*
X66757800Y-44202200D02*
X68580000Y-42380000D01*
%TO.N,Net-(J17-Pin_14)*%
X169696000Y-59282400D02*
X189207000Y-59282400D01*
X199558000Y-78043400D02*
X191376000Y-69861300D01*
X62858600Y-40481400D02*
X60960000Y-42380000D01*
X75653700Y-40481400D02*
X62858600Y-40481400D01*
X215258000Y-97208300D02*
X215258000Y-101518000D01*
X215992000Y-102252000D02*
X225975000Y-102252000D01*
X167787000Y-57372800D02*
X169696000Y-59282400D01*
X225975000Y-102252000D02*
X242580000Y-118857000D01*
X82874700Y-51179600D02*
X89067900Y-57372800D01*
X202428000Y-78043400D02*
X199558000Y-78043400D01*
X242580000Y-125730000D02*
X241310000Y-127000000D01*
X215258000Y-101518000D02*
X215992000Y-102252000D01*
X242580000Y-118857000D02*
X242580000Y-125730000D01*
X83327900Y-45372500D02*
X82874700Y-45825700D01*
X211430000Y-93380000D02*
X215258000Y-97208300D01*
X89067900Y-57372800D02*
X167787000Y-57372800D01*
X82874700Y-45825700D02*
X82874700Y-51179600D01*
%TO.N,Net-(J17-Pin_10)*%
X89880000Y-50120000D02*
X89880000Y-49066300D01*
X82002400Y-44584000D02*
X80687000Y-45899400D01*
X89880000Y-49066300D02*
X85397700Y-44584000D01*
X67420000Y-76000000D02*
X68690000Y-74730000D01*
X73617900Y-62881200D02*
X81707200Y-62881200D01*
X85397700Y-44584000D02*
X82002400Y-44584000D01*
X64880000Y-76000000D02*
X67420000Y-76000000D01*
X68690000Y-74730000D02*
X68690000Y-67809100D01*
X68690000Y-67809100D02*
X73617900Y-62881200D01*
%TO.N,Net-(J17-Pin_12)*%
X109182000Y-79050800D02*
X99992900Y-69861300D01*
X186030000Y-102291000D02*
X185240000Y-101501000D01*
X197439000Y-102291000D02*
X186030000Y-102291000D01*
X94704000Y-51693700D02*
X89662500Y-51693700D01*
X89662500Y-51693700D02*
X88610000Y-50641200D01*
X172045000Y-84708100D02*
X156874000Y-84708100D01*
X155651000Y-77640300D02*
X154240000Y-79050800D01*
X154240000Y-79050800D02*
X109182000Y-79050800D01*
X77297000Y-41742600D02*
X75829300Y-41742600D01*
X180160000Y-92823200D02*
X172045000Y-84708100D01*
X75829300Y-41742600D02*
X75213500Y-41126800D01*
X88610000Y-50641200D02*
X88610000Y-48647200D01*
X185240000Y-99677300D02*
X180160000Y-94597300D01*
X85335400Y-45372600D02*
X84328200Y-45372600D01*
X88610000Y-48647200D02*
X85335400Y-45372600D01*
X180160000Y-94597300D02*
X180160000Y-92823200D01*
X75213500Y-41126800D02*
X67293200Y-41126800D01*
X67293200Y-41126800D02*
X66040000Y-42380000D01*
X185240000Y-101501000D02*
X185240000Y-99677300D01*
X198730000Y-101000000D02*
X197439000Y-102291000D01*
D22*
%TO.N,+16V*%
X53200000Y-65400000D02*
X53200000Y-136900000D01*
X63500000Y-55100000D02*
X53200000Y-65400000D01*
X57150000Y-140850000D02*
X57150000Y-152781000D01*
X53200000Y-136900000D02*
X57150000Y-140850000D01*
X63500000Y-50000000D02*
X63500000Y-55100000D01*
D23*
%TO.N,Net-(J17-Pin_6)*%
X77180600Y-47322000D02*
X80676700Y-43825900D01*
X71258000Y-47322000D02*
X77180600Y-47322000D01*
X68580000Y-50000000D02*
X71258000Y-47322000D01*
X80676700Y-38956700D02*
X78720000Y-37000000D01*
X80676700Y-43825900D02*
X80676700Y-38956700D01*
%TO.N,D05*%
X181310100Y-125617100D02*
X182580000Y-124347200D01*
X182580000Y-124347200D02*
X182580000Y-119380000D01*
X174625000Y-147817500D02*
X174625000Y-152781000D01*
X175853100Y-146589400D02*
X174625000Y-147817500D01*
%TO.N,PRESET*%
X130728700Y-111777000D02*
X173543200Y-111777000D01*
X168699900Y-69861300D02*
X164422500Y-74138700D01*
X178641100Y-105150000D02*
X175080000Y-101588900D01*
X175080000Y-92848800D02*
X174359500Y-92128300D01*
X174359500Y-92128300D02*
X170347300Y-92128300D01*
X130201400Y-125696800D02*
X125665900Y-121161300D01*
X178912800Y-105150000D02*
X178641100Y-105150000D01*
X175080000Y-101588900D02*
X175080000Y-92848800D01*
X131439500Y-125696800D02*
X130201400Y-125696800D01*
%TO.N,D12*%
X180975000Y-148519300D02*
X190426800Y-139067500D01*
X180975000Y-152781000D02*
X180975000Y-148519300D01*
X190426800Y-139067500D02*
X214010300Y-139067500D01*
%TO.N,A9*%
X158750000Y-152781000D02*
X158750000Y-148519300D01*
X157817700Y-147587000D02*
X158750000Y-148519300D01*
X162087500Y-132857500D02*
X162087500Y-143484400D01*
X162087500Y-143484400D02*
X161313400Y-144258500D01*
X161313400Y-144258500D02*
X158952400Y-144258500D01*
X158952400Y-144258500D02*
X157817700Y-145393200D01*
X156230000Y-127000000D02*
X162087500Y-132857500D01*
X157817700Y-145393200D02*
X157817700Y-147587000D01*
%TO.N,A12*%
X141080000Y-134875200D02*
X154724100Y-148519300D01*
X154724100Y-148519300D02*
X155575000Y-148519300D01*
X155575000Y-152781000D02*
X155575000Y-148519300D01*
X122460000Y-127000000D02*
X130335200Y-134875200D01*
X130335200Y-134875200D02*
X141080000Y-134875200D01*
%TO.N,A10*%
X168275000Y-148519300D02*
X168275000Y-152781000D01*
X158578100Y-145693459D02*
X158580441Y-145693459D01*
X158580441Y-145693459D02*
X158882100Y-145391800D01*
X158882100Y-145391800D02*
X167110600Y-145391800D01*
X168675100Y-146956300D02*
X168675100Y-148119200D01*
X168675100Y-148119200D02*
X168275000Y-148519300D01*
X167110600Y-145391800D02*
X168675100Y-146956300D01*
%TO.N,A11*%
X130080000Y-119380000D02*
X151783900Y-141083900D01*
X151783900Y-141083900D02*
X161326000Y-141083900D01*
%TO.N,D17*%
X187325000Y-148519300D02*
X194340800Y-141503500D01*
X194340800Y-141503500D02*
X224266500Y-141503500D01*
X187325000Y-152781000D02*
X187325000Y-148519300D01*
X224266500Y-141503500D02*
X238770000Y-127000000D01*
%TO.N,D13*%
X236230000Y-119380000D02*
X229880500Y-125729500D01*
X227699700Y-130049700D02*
X226675700Y-130049700D01*
X192614400Y-140054900D02*
X214086100Y-140054900D01*
X184150000Y-152781000D02*
X184150000Y-148519300D01*
X229880500Y-127868900D02*
X227699700Y-130049700D01*
X229880500Y-125729500D02*
X229880500Y-127868900D01*
X184150000Y-148519300D02*
X192614400Y-140054900D01*
%TO.N,D04*%
X171450000Y-147750000D02*
X172597100Y-146602900D01*
X172597100Y-146602900D02*
X172597100Y-146589400D01*
X171450000Y-152781000D02*
X171450000Y-147750000D01*
%TO.N,D00*%
X177500000Y-124347000D02*
X177500000Y-119380000D01*
X178770100Y-125617100D02*
X177500000Y-124347000D01*
%TO.N,D16*%
X235320500Y-125500000D02*
X233765400Y-125500000D01*
X241310000Y-119510500D02*
X235320500Y-125500000D01*
X241310000Y-119380000D02*
X241310000Y-119510500D01*
%TO.N,A8*%
X163650800Y-119821500D02*
X163209300Y-119380000D01*
X174691900Y-120904000D02*
X174691900Y-123076500D01*
X174691900Y-123076500D02*
X177049800Y-125434400D01*
X163209300Y-119380000D02*
X158770000Y-119380000D01*
%TO.N,A15*%
X129767200Y-136078600D02*
X139959300Y-136078600D01*
X118407000Y-122500000D02*
X121190000Y-125283000D01*
X121190000Y-125283000D02*
X121190000Y-127501400D01*
X139959300Y-136078600D02*
X152400000Y-148519300D01*
X118407000Y-120806300D02*
X118407000Y-122500000D01*
X119920000Y-119380000D02*
X119833300Y-119380000D01*
X121190000Y-127501400D02*
X129767200Y-136078600D01*
X152400000Y-152781000D02*
X152400000Y-148519300D01*
X119833300Y-119380000D02*
X118407000Y-120806300D01*
%TO.N,D06*%
X213730100Y-126423300D02*
X213730100Y-127501500D01*
X209973100Y-122666300D02*
X213730100Y-126423300D01*
X197010600Y-120027000D02*
X199649900Y-122666300D01*
X179659650Y-146659650D02*
X177800000Y-148519300D01*
X213730100Y-127501500D02*
X209887400Y-131344200D01*
X209887400Y-131344200D02*
X202441300Y-131344200D01*
X177800000Y-148519300D02*
X177800000Y-152781000D01*
X199649900Y-122666300D02*
X209973100Y-122666300D01*
%TO.N,A14*%
X161001400Y-143506800D02*
X150562500Y-143506800D01*
X150562500Y-143506800D02*
X137537600Y-130481900D01*
X137537600Y-130481900D02*
X131021900Y-130481900D01*
X131021900Y-130481900D02*
X127540000Y-127000000D01*
%TO.N,D01*%
X161925000Y-148519300D02*
X164300800Y-146143500D01*
X164300800Y-146143500D02*
X166705500Y-146143500D01*
X161925000Y-152781000D02*
X161925000Y-148519300D01*
%TO.N,D10*%
X245119900Y-127561600D02*
X243734100Y-128947400D01*
X246390000Y-119380000D02*
X245119900Y-120650100D01*
X245119900Y-120650100D02*
X245119900Y-127561600D01*
X243734100Y-128947400D02*
X243016400Y-128947400D01*
%TO.N,A13*%
X152579600Y-142755100D02*
X130535800Y-120711300D01*
X126331300Y-120711300D02*
X125000000Y-119380000D01*
X160197700Y-142755100D02*
X152579600Y-142755100D01*
X130535800Y-120711300D02*
X126331300Y-120711300D01*
%TO.N,D07*%
X193814000Y-118279400D02*
X193232300Y-118861100D01*
X180700000Y-140637500D02*
X180704000Y-140633500D01*
X202213900Y-120904000D02*
X199513900Y-120904000D01*
X193232300Y-120703900D02*
X182644000Y-131292200D01*
X196889300Y-118279400D02*
X193814000Y-118279400D01*
X180700000Y-147100000D02*
X180700000Y-140637500D01*
X182644000Y-131292200D02*
X180704000Y-131292200D01*
X193232300Y-118861100D02*
X193232300Y-120703900D01*
X199513900Y-120904000D02*
X196889300Y-118279400D01*
%TO.N,Net-(U23A-Q)*%
X172764000Y-83590200D02*
X154329000Y-83590200D01*
X136579000Y-102229000D02*
X134328000Y-102229000D01*
X137573000Y-125433000D02*
X137573000Y-121159000D01*
X180160000Y-76193700D02*
X172764000Y-83590200D01*
X180160000Y-76000000D02*
X180160000Y-76193700D01*
X145051000Y-94168200D02*
X137672000Y-101547000D01*
X137672000Y-101547000D02*
X137260000Y-101547000D01*
X137260000Y-101547000D02*
X136579000Y-102229000D01*
X154329000Y-83590200D02*
X145051000Y-92867600D01*
X134328000Y-102229000D02*
X134218000Y-102119000D01*
X145051000Y-92867600D02*
X145051000Y-94168200D01*
%TO.N,Net-(U12-S1)*%
X208225000Y-41241200D02*
X207510000Y-41955800D01*
X212601000Y-41241200D02*
X208225000Y-41241200D01*
X201772000Y-48762000D02*
X193531000Y-48762000D01*
X213860000Y-42500000D02*
X212601000Y-41241200D01*
X180707000Y-69861300D02*
X181430000Y-70584100D01*
X181430000Y-70584100D02*
X181430000Y-76744000D01*
X207510000Y-43023500D02*
X201772000Y-48762000D01*
X207510000Y-41955800D02*
X207510000Y-43023500D01*
%TO.N,Net-(U12-S0)*%
X211551000Y-42731000D02*
X211551000Y-48405800D01*
X211430000Y-76631000D02*
X211430000Y-74215700D01*
X186510000Y-101000000D02*
X187061000Y-101000000D01*
X211430000Y-74215700D02*
X215784000Y-69861300D01*
X187061000Y-101000000D02*
X211430000Y-76631000D01*
X211320000Y-42500000D02*
X211551000Y-42731000D01*
%TO.N,Net-(U12-I2)*%
X202540000Y-68380000D02*
X210160000Y-76000000D01*
%TO.N,Net-(U12-I3)*%
X200000000Y-70996900D02*
X200000000Y-76000000D01*
X198861000Y-69858300D02*
X200000000Y-70996900D01*
%TO.N,Net-(U12-I1)*%
X81693000Y-70834400D02*
X81693000Y-67660000D01*
X73915900Y-78611500D02*
X81693000Y-70834400D01*
X81693000Y-67660000D02*
X87869300Y-61483700D01*
X87869300Y-61483700D02*
X202540000Y-61483700D01*
X242700000Y-68380000D02*
X240847000Y-66526600D01*
X240847000Y-66526600D02*
X217093000Y-66526600D01*
X202540000Y-61483700D02*
X202654000Y-61370000D01*
X217093000Y-66526600D02*
X215240000Y-68380000D01*
%TO.N,Net-(U12-~{Q})*%
X180741000Y-41235100D02*
X176345000Y-41235100D01*
X211320000Y-50120000D02*
X210066000Y-51374400D01*
X176345000Y-41235100D02*
X175080000Y-42500000D01*
X181430000Y-41924400D02*
X180741000Y-41235100D01*
X210066000Y-51374400D02*
X189756000Y-51374400D01*
X181430000Y-43048700D02*
X181430000Y-41924400D01*
X189756000Y-51374400D02*
X181430000Y-43048700D01*
%TO.N,Net-(U13-Pad11)*%
X177620000Y-42500000D02*
X177620000Y-50120000D01*
%TO.N,Net-(U37B-Q)*%
X74309400Y-72486700D02*
X74309400Y-74109900D01*
X164689000Y-44161300D02*
X160277000Y-48572500D01*
X160277000Y-48572500D02*
X154248000Y-48572500D01*
X87867400Y-58928700D02*
X74309400Y-72486700D01*
X148672000Y-58928700D02*
X87867400Y-58928700D01*
%TO.N,Net-(U14-CP0)*%
X142540000Y-41178100D02*
X142540000Y-42500000D01*
X143738000Y-39980400D02*
X164940000Y-39980400D01*
X142540000Y-41178100D02*
X140660000Y-39297800D01*
X142540000Y-41178100D02*
X143738000Y-39980400D01*
X164940000Y-39980400D02*
X175080000Y-50120000D01*
X140660000Y-39297800D02*
X100702000Y-39297800D01*
X100702000Y-39297800D02*
X97500000Y-42500000D01*
%TO.N,Net-(U14-Q1)*%
X134576000Y-47688500D02*
X146743000Y-47688500D01*
X153971000Y-41231100D02*
X155240000Y-42500000D01*
X152158000Y-41231100D02*
X153971000Y-41231100D01*
X130850000Y-51414000D02*
X134576000Y-47688500D01*
X151430000Y-43001200D02*
X151430000Y-41958800D01*
X117500000Y-50120000D02*
X118794000Y-51414000D01*
X151430000Y-41958800D02*
X152158000Y-41231100D01*
X146743000Y-47688500D02*
X151430000Y-43001200D01*
X118794000Y-51414000D02*
X130850000Y-51414000D01*
%TO.N,Net-(U14-Q2)*%
X157780000Y-42500000D02*
X155891000Y-40610700D01*
X143810000Y-41931900D02*
X143810000Y-43068800D01*
X155891000Y-40610700D02*
X145131000Y-40610700D01*
X143810000Y-43068800D02*
X143124000Y-43754800D01*
X143124000Y-43754800D02*
X131485000Y-43754800D01*
X131485000Y-43754800D02*
X125120000Y-50120000D01*
X145131000Y-40610700D02*
X143810000Y-41931900D01*
%TO.N,Net-(U14-CP1..3)*%
X116856000Y-52015700D02*
X114960000Y-50120000D01*
X114960000Y-50120000D02*
X110187000Y-45346600D01*
X142540000Y-50120000D02*
X140644000Y-52015700D01*
X110187000Y-45346600D02*
X110187000Y-44185200D01*
X140644000Y-52015700D02*
X116856000Y-52015700D01*
%TO.N,Net-(U14-Q3)*%
X133415000Y-44365100D02*
X127660000Y-50120000D01*
X150160000Y-42500000D02*
X148295000Y-44365100D01*
X148295000Y-44365100D02*
X133415000Y-44365100D01*
%TO.N,Net-(U15-Q3)*%
X104988000Y-70203300D02*
X104988000Y-69484900D01*
X109427000Y-41965100D02*
X109427000Y-45965700D01*
X111434000Y-39957700D02*
X109427000Y-41965100D01*
X127658000Y-39957700D02*
X111434000Y-39957700D01*
X130200000Y-42500000D02*
X127658000Y-39957700D01*
X104988000Y-69484900D02*
X105776000Y-68696500D01*
X110784000Y-76000000D02*
X104988000Y-70203300D01*
X112420000Y-76000000D02*
X110784000Y-76000000D01*
X109427000Y-45965700D02*
X111900000Y-48438700D01*
X105776000Y-68696500D02*
X106008000Y-68696500D01*
%TO.N,Net-(U15-Q0)*%
X112420000Y-42748200D02*
X114936000Y-45263900D01*
X114936000Y-45263900D02*
X118058000Y-45263900D01*
X118058000Y-45263900D02*
X121233000Y-48438700D01*
X112420000Y-42500000D02*
X112420000Y-42748200D01*
%TO.N,Net-(U15-Q1)*%
X123850000Y-41996300D02*
X123850000Y-43022600D01*
X116231000Y-41229200D02*
X123083000Y-41229200D01*
X125691000Y-48263100D02*
X125516000Y-48438700D01*
X123850000Y-43022600D02*
X125691000Y-44864000D01*
X123083000Y-41229200D02*
X123850000Y-41996300D01*
X130200000Y-76000000D02*
X128012000Y-73812400D01*
X114960000Y-42500000D02*
X116231000Y-41229200D01*
X128012000Y-73812400D02*
X128012000Y-69892100D01*
X125691000Y-44864000D02*
X125691000Y-48263100D01*
%TO.N,Net-(U15-Q2)*%
X111664000Y-40579400D02*
X125739000Y-40579400D01*
X115523000Y-48405800D02*
X110526000Y-43409600D01*
X111158000Y-69540100D02*
X110824000Y-69540100D01*
X125739000Y-40579400D02*
X127660000Y-42500000D01*
X110526000Y-43409600D02*
X110526000Y-41717200D01*
X117500000Y-75881600D02*
X111158000Y-69540100D01*
X110526000Y-41717200D02*
X111664000Y-40579400D01*
X117500000Y-76000000D02*
X117500000Y-75881600D01*
%TO.N,Net-(U24-DOWN)*%
X96211700Y-50647700D02*
X96211700Y-44867100D01*
X136203000Y-77882200D02*
X136817000Y-77268800D01*
X136817000Y-77268800D02*
X147581000Y-77268800D01*
X117560000Y-77882200D02*
X136203000Y-77882200D01*
X147581000Y-77268800D02*
X148850000Y-76000000D01*
X96211700Y-44867100D02*
X95521700Y-44177100D01*
X111053000Y-70291800D02*
X116232000Y-75470000D01*
X105761000Y-69861300D02*
X106192000Y-70291800D01*
X106192000Y-70291800D02*
X111053000Y-70291800D01*
X116232000Y-75470000D02*
X116232000Y-76553700D01*
X97075200Y-51511200D02*
X96211700Y-50647700D01*
X116232000Y-76553700D02*
X117560000Y-77882200D01*
X101403000Y-51511200D02*
X97075200Y-51511200D01*
%TO.N,Net-(U24-~{LOAD})*%
X128894000Y-54962400D02*
X89642400Y-54962400D01*
X89642400Y-54962400D02*
X84800000Y-50120000D01*
X36230000Y-93380000D02*
X37809900Y-94959900D01*
X39646600Y-94959900D02*
X44025400Y-99338700D01*
X37809900Y-94959900D02*
X39646600Y-94959900D01*
X80882100Y-70502900D02*
X80882100Y-69892600D01*
X56334800Y-78242500D02*
X73142500Y-78242500D01*
X73142500Y-78242500D02*
X80882100Y-70502900D01*
%TO.N,Net-(U16-Pad11)*%
X94960000Y-45040000D02*
X94960000Y-50120000D01*
X92420000Y-42500000D02*
X94960000Y-45040000D01*
%TO.N,Net-(U21-Q2)*%
X245240000Y-68380000D02*
X242785000Y-65924900D01*
X242785000Y-65924900D02*
X215155000Y-65924900D01*
X215155000Y-65924900D02*
X212700000Y-68380000D01*
%TO.N,Net-(U21-Q3)*%
X236368000Y-67128300D02*
X237620000Y-68380000D01*
X221572000Y-67128300D02*
X236368000Y-67128300D01*
X212700000Y-76000000D02*
X221572000Y-67128300D01*
%TO.N,Net-(U22-Pad2)*%
X207620000Y-76000000D02*
X205080000Y-76000000D01*
X205080000Y-76000000D02*
X202540000Y-76000000D01*
%TO.N,Net-(U22-Pad10)*%
X207620000Y-68380000D02*
X210160000Y-68380000D01*
X205080000Y-68380000D02*
X207620000Y-68380000D01*
%TO.N,Net-(U23B-~{Q})*%
X196407000Y-79546800D02*
X207399000Y-79546800D01*
X237620000Y-95920000D02*
X237620000Y-101000000D01*
X185240000Y-68380000D02*
X196407000Y-79546800D01*
X240160000Y-93380000D02*
X237620000Y-95920000D01*
%TO.N,Net-(U23B-~{R})*%
X157740000Y-76614400D02*
X147691000Y-86663200D01*
X171265000Y-67105100D02*
X166134000Y-67105100D01*
X67500000Y-98460000D02*
X67500000Y-101000000D01*
X166134000Y-67105100D02*
X157740000Y-75499400D01*
X157740000Y-75499400D02*
X157740000Y-76614400D01*
X62420000Y-93380000D02*
X67500000Y-98460000D01*
X147691000Y-86663200D02*
X69136800Y-86663200D01*
X172540000Y-68380000D02*
X171265000Y-67105100D01*
%TO.N,Net-(U23A-~{R})*%
X163913000Y-82086800D02*
X153643000Y-82086800D01*
X170000000Y-76000000D02*
X163913000Y-82086800D01*
X39800000Y-127000000D02*
X52075700Y-114724000D01*
X147495000Y-88235400D02*
X60724900Y-88235400D01*
X153643000Y-82086800D02*
X147495000Y-88235400D01*
X52075700Y-114724000D02*
X52075700Y-95070500D01*
%TO.N,Net-(U23B-C)*%
X150751000Y-66478700D02*
X148850000Y-68380000D01*
X177620000Y-68380000D02*
X175719000Y-66478700D01*
X175719000Y-66478700D02*
X150751000Y-66478700D01*
%TO.N,Net-(U23A-~{Q})*%
X116232000Y-113616000D02*
X119084000Y-110764000D01*
X177384000Y-99338700D02*
X176232000Y-98186500D01*
X176232000Y-98186500D02*
X176232000Y-95061300D01*
X56532900Y-113616000D02*
X116232000Y-113616000D01*
X119084000Y-110764000D02*
X172597000Y-110764000D01*
X56334500Y-113815000D02*
X56532900Y-113616000D01*
%TO.N,Net-(U24-A)*%
X149104000Y-74137100D02*
X149104000Y-71522500D01*
X160311000Y-92888100D02*
X160311000Y-99698700D01*
X157874000Y-90450600D02*
X160311000Y-92888100D01*
X160311000Y-99698700D02*
X159010000Y-101000000D01*
X155015000Y-90450600D02*
X157874000Y-90450600D01*
X149104000Y-71522500D02*
X147443000Y-69861300D01*
%TO.N,Net-(U24-D)*%
X141230000Y-101000000D02*
X147562000Y-94668300D01*
X147562000Y-92842600D02*
X148915000Y-91489300D01*
X156057000Y-74138700D02*
X159010000Y-71185400D01*
X148915000Y-91489300D02*
X154802000Y-91489300D01*
X147562000Y-94668300D02*
X147562000Y-92842600D01*
X159010000Y-71185400D02*
X159010000Y-68380000D01*
%TO.N,Net-(U24-C)*%
X155200000Y-69650000D02*
X155200000Y-76527000D01*
X156470000Y-68380000D02*
X155200000Y-69650000D01*
X153465000Y-78261900D02*
X145703000Y-78261900D01*
X155200000Y-76527000D02*
X153465000Y-78261900D01*
%TO.N,Net-(U25-B1)*%
X111780000Y-101000000D02*
X106436000Y-95656600D01*
X121328000Y-72171700D02*
X125120000Y-68380000D01*
X106436000Y-95656600D02*
X106436000Y-94268900D01*
X121328000Y-76553800D02*
X121328000Y-72171700D01*
X118457000Y-77124400D02*
X118593000Y-77260700D01*
X112420000Y-101000000D02*
X111780000Y-101000000D01*
X120621000Y-77260700D02*
X121328000Y-76553800D01*
X118593000Y-77260700D02*
X120621000Y-77260700D01*
%TO.N,Net-(U25-S4)*%
X118016000Y-69643100D02*
X118770000Y-68888700D01*
X128144000Y-67092400D02*
X128948000Y-67897200D01*
X134854000Y-99947900D02*
X132711000Y-97805300D01*
X128948000Y-67897200D02*
X128948000Y-70323100D01*
X128948000Y-70323100D02*
X134777000Y-76152200D01*
X118770000Y-67789400D02*
X119467000Y-67092400D01*
X114960000Y-68380000D02*
X116223000Y-69643100D01*
X119467000Y-67092400D02*
X128144000Y-67092400D01*
X139859000Y-120820000D02*
X140833000Y-121793000D01*
X132711000Y-97805300D02*
X132711000Y-95066100D01*
X143403000Y-121793000D02*
X148610000Y-127000000D01*
X116223000Y-69643100D02*
X118016000Y-69643100D01*
X118770000Y-68888700D02*
X118770000Y-67789400D01*
X140833000Y-121793000D02*
X143403000Y-121793000D01*
%TO.N,Net-(U25-C4)*%
X116218000Y-67098200D02*
X117500000Y-68380000D01*
X92511800Y-67098200D02*
X116218000Y-67098200D01*
X91230000Y-68380000D02*
X92511800Y-67098200D01*
%TO.N,Net-(U25-S2)*%
X151071000Y-114221000D02*
X141839000Y-114221000D01*
X129462000Y-89108900D02*
X133808000Y-93454700D01*
X133808000Y-97737200D02*
X136019000Y-99947900D01*
X133808000Y-93454700D02*
X133808000Y-97737200D01*
X156230000Y-119380000D02*
X151071000Y-114221000D01*
%TO.N,Net-(U25-S1)*%
X142254000Y-128276000D02*
X140129000Y-128276000D01*
X135446000Y-101478000D02*
X135629000Y-101478000D01*
X135629000Y-101478000D02*
X136827000Y-100279000D01*
X134704000Y-75202500D02*
X130200000Y-70698000D01*
X130200000Y-70698000D02*
X130200000Y-68380000D01*
X138478000Y-126625000D02*
X138478000Y-120676000D01*
X140129000Y-128276000D02*
X138478000Y-126625000D01*
X136827000Y-97208400D02*
X134680000Y-95061300D01*
X138478000Y-120676000D02*
X138304000Y-120502000D01*
X135942000Y-75202500D02*
X134704000Y-75202500D01*
X136827000Y-100279000D02*
X136827000Y-97208400D01*
X143530000Y-127000000D02*
X142254000Y-128276000D01*
%TO.N,Net-(U25-S3)*%
X126390000Y-95375900D02*
X126390000Y-92813700D01*
X122572000Y-88995300D02*
X118153000Y-88995300D01*
X144535000Y-120904000D02*
X143192000Y-120904000D01*
X137256000Y-102697000D02*
X137061000Y-102892000D01*
X146907000Y-123276000D02*
X144535000Y-120904000D01*
X133906000Y-102892000D02*
X126390000Y-95375900D01*
X153690000Y-127000000D02*
X149966000Y-123276000D01*
X126390000Y-92813700D02*
X122572000Y-88995300D01*
X149966000Y-123276000D02*
X146907000Y-123276000D01*
X137061000Y-102892000D02*
X133906000Y-102892000D01*
%TO.N,Net-(U25-B4)*%
X130200000Y-101000000D02*
X123850000Y-94650000D01*
X123850000Y-94650000D02*
X123850000Y-92863100D01*
X123850000Y-92863100D02*
X120734000Y-89747000D01*
X112420000Y-68380000D02*
X118486000Y-74446000D01*
X118486000Y-74446000D02*
X120285000Y-74446000D01*
%TO.N,Net-(U26-B3)*%
X94554500Y-79324500D02*
X95977300Y-79324500D01*
X91230000Y-76000000D02*
X94554500Y-79324500D01*
%TO.N,Net-(U26-C4)*%
X82356900Y-74066600D02*
X82356900Y-67847000D01*
X83094600Y-67109300D02*
X87419300Y-67109300D01*
X114000000Y-112185000D02*
X92651400Y-112185000D01*
X82414100Y-74123800D02*
X82356900Y-74066600D01*
X79887500Y-99421400D02*
X79887500Y-98529400D01*
X87419300Y-67109300D02*
X88690000Y-68380000D01*
X82356900Y-67847000D02*
X83094600Y-67109300D01*
X92651400Y-112185000D02*
X79887500Y-99421400D01*
X79887500Y-98529400D02*
X76419400Y-95061300D01*
%TO.N,Net-(U26-S2)*%
X107829000Y-95061300D02*
X108423000Y-95655100D01*
X111702000Y-95655100D02*
X115385000Y-99338700D01*
X113994000Y-121074000D02*
X119920000Y-127000000D01*
X113727000Y-121074000D02*
X113994000Y-121074000D01*
X108423000Y-95655100D02*
X111702000Y-95655100D01*
%TO.N,Net-(U26-S3)*%
X103382000Y-95061300D02*
X95671700Y-95061300D01*
X112585000Y-104264000D02*
X103382000Y-95061300D01*
X115816000Y-104264000D02*
X112585000Y-104264000D01*
%TO.N,Net-(U26-B4)*%
X83610000Y-68380000D02*
X83610000Y-71630300D01*
X83610000Y-71630300D02*
X86118400Y-74138700D01*
X87420000Y-96007900D02*
X90750800Y-99338700D01*
X87420000Y-90858200D02*
X87420000Y-96007900D01*
%TO.N,Net-(U26-S4)*%
X114594000Y-94647400D02*
X119285000Y-99338700D01*
X91989700Y-69840000D02*
X97580000Y-75430300D01*
X101750000Y-80726900D02*
X107916000Y-80726900D01*
X87610000Y-69840000D02*
X91989700Y-69840000D01*
X97580000Y-76557400D02*
X101750000Y-80726900D01*
X108726000Y-94647400D02*
X114594000Y-94647400D01*
X119161000Y-121161000D02*
X125000000Y-127000000D01*
X86150000Y-68380000D02*
X87610000Y-69840000D01*
X97580000Y-75430300D02*
X97580000Y-76557400D01*
%TO.N,Net-(U26-B1)*%
X85763200Y-78187200D02*
X87438300Y-76512100D01*
X87438300Y-71652000D02*
X85647600Y-69861300D01*
X83610000Y-101000000D02*
X83461800Y-101000000D01*
X84552200Y-78187200D02*
X85763200Y-78187200D01*
X87438300Y-76512100D02*
X87438300Y-71652000D01*
X83461800Y-101000000D02*
X77523100Y-95061300D01*
%TO.N,Net-(U26-S1)*%
X120420000Y-108794000D02*
X111801000Y-108794000D01*
X108350000Y-93448400D02*
X109781000Y-93448400D01*
X112836000Y-99338700D02*
X111044000Y-99338700D01*
X110804000Y-77794400D02*
X101390000Y-68380000D01*
X114060000Y-77794400D02*
X110804000Y-77794400D01*
X107070000Y-94728400D02*
X108350000Y-93448400D01*
X107070000Y-95364700D02*
X107070000Y-94728400D01*
X111044000Y-99338700D02*
X107070000Y-95364700D01*
%TO.N,Net-(U31A-D)*%
X206110000Y-118547000D02*
X195582000Y-108019000D01*
X213712000Y-120668000D02*
X206888000Y-120668000D01*
X215000000Y-119380000D02*
X213712000Y-120668000D01*
X195582000Y-108019000D02*
X105869000Y-108019000D01*
X206110000Y-119890000D02*
X206110000Y-118547000D01*
X206888000Y-120668000D02*
X206110000Y-119890000D01*
%TO.N,Net-(U31A-~{Q})*%
X147550000Y-122674000D02*
X144800000Y-119924000D01*
X65239500Y-116530000D02*
X64880100Y-116889000D01*
X62460000Y-119380000D02*
X62460000Y-119221000D01*
X156215000Y-122674000D02*
X147550000Y-122674000D01*
X59880000Y-93380000D02*
X60224100Y-93380000D01*
X236230000Y-125984000D02*
X236230000Y-127000000D01*
X144800000Y-118858000D02*
X142472000Y-116530000D01*
X230357000Y-132873000D02*
X166413000Y-132873000D01*
X60224100Y-93380000D02*
X66095200Y-99251100D01*
X66095200Y-99251100D02*
X66095200Y-99350500D01*
X142472000Y-116530000D02*
X65239500Y-116530000D01*
X166413000Y-132873000D02*
X156215000Y-122674000D01*
X64791200Y-116889000D02*
X64880100Y-116889000D01*
X236230000Y-127000000D02*
X230357000Y-132873000D01*
X144800000Y-119924000D02*
X144800000Y-118858000D01*
X241153000Y-121061000D02*
X236230000Y-125984000D01*
X62460000Y-119221000D02*
X64791200Y-116889000D01*
%TO.N,Net-(U31B-D)*%
X202522000Y-92822600D02*
X203872000Y-91472300D01*
X203872000Y-91472300D02*
X233172000Y-91472300D01*
X197345000Y-106805000D02*
X196773000Y-107377000D01*
X119946000Y-107267000D02*
X102577000Y-107267000D01*
X209920000Y-119380000D02*
X197345000Y-106805000D01*
X202522000Y-101629000D02*
X202522000Y-92822600D01*
X233172000Y-91472300D02*
X235080000Y-93380000D01*
X120056000Y-107377000D02*
X119946000Y-107267000D01*
X196773000Y-107377000D02*
X120056000Y-107377000D01*
X197345000Y-106805000D02*
X202522000Y-101629000D01*
%TO.N,Net-(U32-D0)*%
X152487000Y-113761000D02*
X194166000Y-113761000D01*
X137604000Y-103514000D02*
X138460000Y-102659000D01*
X127660000Y-101000000D02*
X130174000Y-103514000D01*
X130174000Y-103514000D02*
X137604000Y-103514000D01*
X194166000Y-119066000D02*
X198891000Y-123792000D01*
X138460000Y-102659000D02*
X142111000Y-102659000D01*
X142111000Y-102659000D02*
X143770000Y-101000000D01*
X209252000Y-123792000D02*
X212460000Y-127000000D01*
X198891000Y-123792000D02*
X209252000Y-123792000D01*
%TO.N,Net-(U32-D2)*%
X138655000Y-103314000D02*
X151616000Y-103314000D01*
X177500000Y-127000000D02*
X173690000Y-123190000D01*
X120618000Y-104118000D02*
X137851000Y-104118000D01*
X137851000Y-104118000D02*
X138655000Y-103314000D01*
X173690000Y-121161000D02*
X173690000Y-118849000D01*
X173690000Y-123190000D02*
X173690000Y-121161000D01*
X173690000Y-118849000D02*
X177837000Y-114702000D01*
X177837000Y-114702000D02*
X197728000Y-114702000D01*
X173690000Y-121161000D02*
X161881000Y-121161000D01*
X117500000Y-101000000D02*
X120618000Y-104118000D01*
X151616000Y-103314000D02*
X153930000Y-101000000D01*
%TO.N,Net-(U32-D1)*%
X204860000Y-124480000D02*
X198374000Y-124480000D01*
X198374000Y-124480000D02*
X193984000Y-120090000D01*
X207380000Y-127000000D02*
X204860000Y-124480000D01*
X152519000Y-108891000D02*
X195369000Y-108891000D01*
%TO.N,Net-(U32-D3)*%
X118680000Y-104720000D02*
X138100000Y-104720000D01*
X94920000Y-127000000D02*
X94920000Y-123085000D01*
X138100000Y-104720000D02*
X138842000Y-103978000D01*
X94920000Y-123085000D02*
X96823400Y-121182000D01*
X114960000Y-101000000D02*
X118680000Y-104720000D01*
X94920000Y-127000000D02*
X92380000Y-127000000D01*
X155789000Y-101000000D02*
X156470000Y-101000000D01*
X92380000Y-127000000D02*
X89840000Y-127000000D01*
X138842000Y-103978000D02*
X152811000Y-103978000D01*
X152811000Y-103978000D02*
X155789000Y-101000000D01*
%TO.N,Net-(U33-~{Q1})*%
X170002000Y-101844000D02*
X166424000Y-105422000D01*
X173810000Y-93380000D02*
X170002000Y-97188000D01*
X166424000Y-105422000D02*
X147936000Y-105422000D01*
X170002000Y-97188000D02*
X170002000Y-101844000D01*
%TO.N,Net-(U33-D0)*%
X171270000Y-101000000D02*
X171270000Y-101532000D01*
X126957000Y-106064000D02*
X104786000Y-106064000D01*
X171270000Y-101532000D02*
X166628000Y-106174000D01*
X166628000Y-106174000D02*
X127068000Y-106174000D01*
X127068000Y-106174000D02*
X126957000Y-106064000D01*
X103785000Y-105062000D02*
X92539800Y-105062000D01*
X104786000Y-106064000D02*
X103785000Y-105062000D01*
X88690000Y-101213000D02*
X88690000Y-101000000D01*
X92539800Y-105062000D02*
X88690000Y-101213000D01*
%TO.N,Net-(U33-~{Q0})*%
X73537600Y-90012700D02*
X78250600Y-94725700D01*
X43850000Y-93380000D02*
X42548300Y-92078300D01*
X32420000Y-92828900D02*
X32420000Y-97190000D01*
X168730000Y-101000000D02*
X166483000Y-103247000D01*
X111138000Y-105322000D02*
X138349000Y-105322000D01*
X139084000Y-104586000D02*
X153722000Y-104586000D01*
X84199300Y-94725700D02*
X89978300Y-100505000D01*
X78250600Y-94725700D02*
X84199300Y-94725700D01*
X89978300Y-100505000D02*
X89978300Y-101577000D01*
X92862100Y-104461000D02*
X110278000Y-104461000D01*
X89978300Y-101577000D02*
X92862100Y-104461000D01*
X32420000Y-97190000D02*
X28610000Y-101000000D01*
X110278000Y-104461000D02*
X111138000Y-105322000D01*
X33170600Y-92078300D02*
X32420000Y-92828900D01*
X42548300Y-92078300D02*
X33170600Y-92078300D01*
X166483000Y-103247000D02*
X155062000Y-103247000D01*
X138349000Y-105322000D02*
X139084000Y-104586000D01*
X56302900Y-90012700D02*
X73537600Y-90012700D01*
X153722000Y-104586000D02*
X155062000Y-103247000D01*
%TO.N,Net-(U33-D3)*%
X187550000Y-120440000D02*
X182580000Y-125410000D01*
X182580000Y-125410000D02*
X182580000Y-127000000D01*
%TO.N,Net-(U33-D1)*%
X173810000Y-101000000D02*
X168034000Y-106776000D01*
X126818000Y-106776000D02*
X126708000Y-106665000D01*
X126708000Y-106665000D02*
X103914000Y-106665000D01*
X103914000Y-106665000D02*
X103074000Y-105825000D01*
X103074000Y-105825000D02*
X90975400Y-105825000D01*
X90975400Y-105825000D02*
X86150000Y-101000000D01*
X168034000Y-106776000D02*
X126818000Y-106776000D01*
%TO.N,Net-(U37A-~{Q})*%
X70047400Y-115684000D02*
X64167100Y-115684000D01*
X64167100Y-115684000D02*
X60471100Y-119380000D01*
X60471100Y-119380000D02*
X59920000Y-119380000D01*
%TO.N,Net-(U38-DOWN)*%
X65000000Y-119380000D02*
X65000000Y-121920000D01*
X65000000Y-121920000D02*
X59920000Y-127000000D01*
%TO.N,Net-(U38-~{LOAD})*%
X41310000Y-93380000D02*
X45119900Y-97189900D01*
X45119900Y-101590000D02*
X46561900Y-103032000D01*
X45119900Y-97189900D02*
X45119900Y-101590000D01*
X46561900Y-103032000D02*
X48152100Y-103032000D01*
%TO.N,Net-(U41-OEa)*%
X172420000Y-127000000D02*
X167493000Y-122073000D01*
X228610000Y-121920000D02*
X228610000Y-127000000D01*
X147340000Y-118879000D02*
X143897000Y-115435000D01*
X231150000Y-119380000D02*
X228610000Y-121920000D01*
X143897000Y-115435000D02*
X71087100Y-115435000D01*
X167493000Y-122073000D02*
X149464000Y-122073000D01*
X62000900Y-116699000D02*
X56343500Y-116699000D01*
X147340000Y-119949000D02*
X147340000Y-118879000D01*
X223496000Y-132114000D02*
X177534000Y-132114000D01*
X63805600Y-114894000D02*
X62000900Y-116699000D01*
X149464000Y-122073000D02*
X147340000Y-119949000D01*
X71087100Y-115435000D02*
X70546100Y-114894000D01*
X70546100Y-114894000D02*
X63805600Y-114894000D01*
X228610000Y-127000000D02*
X223496000Y-132114000D01*
%TO.N,Net-(U41-I5)*%
X217461000Y-121307000D02*
X220675000Y-118093000D01*
X220675000Y-118093000D02*
X237483000Y-118093000D01*
X197704000Y-113009000D02*
X203570000Y-118876000D01*
X204935000Y-121307000D02*
X217461000Y-121307000D01*
X117819000Y-113009000D02*
X197704000Y-113009000D01*
X116610000Y-114218000D02*
X117819000Y-113009000D01*
X203570000Y-119942000D02*
X204935000Y-121307000D01*
X237483000Y-118093000D02*
X238770000Y-119380000D01*
X59840700Y-114218000D02*
X116610000Y-114218000D01*
X58322600Y-115736000D02*
X59840700Y-114218000D01*
X203570000Y-118876000D02*
X203570000Y-119942000D01*
%TO.N,Net-(U48A-D)*%
X63748300Y-120184000D02*
X58494100Y-125439000D01*
X66040800Y-117965000D02*
X64606900Y-117965000D01*
X66863200Y-117142000D02*
X66040800Y-117965000D01*
X97762400Y-117142000D02*
X66863200Y-117142000D01*
X63748300Y-118823000D02*
X63748300Y-120184000D01*
X100000000Y-119380000D02*
X97762400Y-117142000D01*
X64606900Y-117965000D02*
X63748300Y-118823000D01*
%TO.N,Net-(U46-Pad6)*%
X97575100Y-119495000D02*
X97460000Y-119380000D01*
X97575100Y-126885000D02*
X97575100Y-119495000D01*
X97460000Y-127000000D02*
X97575100Y-126885000D01*
%TO.N,Net-(U46-Pad11)*%
X89840000Y-119380000D02*
X92380000Y-119380000D01*
%TD*%
M02*
