M48
; DRILL file {KiCad 9.0.6} date 2026-03-30T14:03:56-0500
; FORMAT={-:-/ absolute / metric / decimal}
; #@! TF.CreationDate,2026-03-30T14:03:56-05:00
; #@! TF.GenerationSoftware,Kicad,Pcbnew,9.0.6
; #@! TF.FileFunction,Plated,1,2,PTH
FMAT,2
METRIC
; #@! TA.AperFunction,Plated,PTH,ViaDrill
T1C0.300
; #@! TA.AperFunction,Plated,PTH,ViaDrill
T2C0.400
; #@! TA.AperFunction,Plated,PTH,ComponentDrill
T3C0.750
; #@! TA.AperFunction,Plated,PTH,ComponentDrill
T4C0.800
; #@! TA.AperFunction,Plated,PTH,ComponentDrill
T5C1.000
; #@! TA.AperFunction,Plated,PTH,ComponentDrill
T6C1.100
%
G90
G05
T1
X38.863Y-69.754
X44.025Y-99.339
X48.152Y-103.032
X49.982Y-95.053
X50.306Y-48.439
X52.076Y-95.07
X52.089Y-78.367
X56.303Y-90.013
X56.334Y-113.815
X56.335Y-78.242
X56.343Y-116.699
X57.27Y-77.43
X58.323Y-115.736
X58.494Y-125.439
X59.278Y-64.9
X59.294Y-74.446
X60.725Y-88.235
X64.88Y-116.889
X65.217Y-95.061
X66.095Y-99.35
X68.662Y-99.304
X69.137Y-86.663
X70.047Y-115.684
X71.092Y-69.861
X71.257Y-48.439
X72.054Y-117.944
X73.916Y-78.611
X74.309Y-74.11
X74.611Y-95.061
X75.261Y-74.145
X75.654Y-40.481
X76.419Y-95.061
X77.297Y-41.743
X77.523Y-95.061
X78.888Y-99.339
X80.659Y-65.074
X80.687Y-45.899
X80.882Y-69.893
X81.707Y-62.881
X82.414Y-74.124
X83.3Y-60.208
X83.328Y-45.372
X84.328Y-45.373
X84.552Y-78.187
X85.061Y-46.161
X85.648Y-69.861
X86.118Y-74.139
X87.42Y-90.858
X90.751Y-99.339
X94.704Y-51.694
X95.147Y-40.099
X95.522Y-44.177
X95.672Y-95.061
X95.977Y-79.325
X96.823Y-121.182
X99.539Y-117.803
X99.993Y-69.861
X101.403Y-51.511
X102.577Y-107.267
X105.761Y-69.861
X105.869Y-108.019
X106.008Y-68.697
X106.436Y-94.269
X107.829Y-95.061
X107.916Y-80.727
X108.726Y-94.647
X109.781Y-93.448
X110.187Y-44.185
X110.824Y-69.54
X111.801Y-108.794
X111.9Y-48.439
X112.836Y-99.339
X113.727Y-121.074
X114.0Y-112.185
X114.06Y-77.794
X115.385Y-99.339
X115.523Y-48.406
X115.816Y-104.264
X118.153Y-88.995
X118.457Y-77.124
X119.161Y-121.161
X119.285Y-99.339
X120.285Y-74.446
X120.42Y-108.794
X120.734Y-89.747
X121.233Y-48.439
X123.978Y-54.211
X125.516Y-48.439
X125.666Y-121.161
X128.012Y-69.892
X128.894Y-54.962
X129.462Y-89.109
X130.729Y-111.777
X131.439Y-125.697
X131.95Y-144.5
X132.711Y-95.066
X134.218Y-102.119
X134.68Y-95.061
X134.741Y-74.165
X134.777Y-76.152
X134.854Y-99.948
X135.446Y-101.478
X135.942Y-75.203
X136.019Y-99.948
X137.256Y-102.697
X137.573Y-121.159
X137.573Y-125.433
X138.145Y-99.948
X138.304Y-120.502
X139.859Y-120.82
X141.839Y-114.221
X143.192Y-120.904
X145.703Y-78.262
X147.443Y-69.861
X147.936Y-105.422
X148.672Y-58.929
X149.104Y-74.137
X152.487Y-113.761
X152.519Y-108.891
X154.248Y-48.572
X154.802Y-91.489
X155.015Y-90.451
X155.062Y-103.247
X155.651Y-77.64
X156.057Y-74.139
X156.874Y-84.708
X157.75Y-74.139
X158.578Y-145.693
X160.198Y-142.755
X160.97Y-69.87
X161.001Y-143.507
X161.326Y-141.084
X161.881Y-121.161
X163.651Y-119.822
X164.422Y-74.139
X164.689Y-44.161
X166.706Y-146.143
X167.911Y-147.256
X168.7Y-69.861
X169.606Y-58.038
X170.347Y-92.128
X172.597Y-110.764
X172.597Y-146.589
X173.543Y-111.777
X174.692Y-120.904
X175.721Y-54.559
X175.853Y-146.589
X176.232Y-95.061
X177.05Y-125.434
X177.384Y-99.339
X177.534Y-132.114
X178.77Y-125.617
X178.913Y-105.15
X179.148Y-52.045
X179.66Y-146.66
X180.677Y-66.878
X180.7Y-147.1
X180.704Y-131.292
X180.704Y-140.633
X180.707Y-69.861
X181.31Y-125.617
X181.43Y-76.744
X187.55Y-120.44
X187.936Y-55.742
X188.691Y-69.861
X189.207Y-59.282
X191.376Y-69.861
X192.272Y-120.446
X193.449Y-78.783
X193.531Y-48.762
X193.984Y-120.09
X194.166Y-113.761
X194.166Y-119.066
X195.369Y-108.891
X197.011Y-120.027
X197.728Y-114.702
X198.113Y-99.339
X198.861Y-69.858
X200.396Y-78.795
X202.214Y-120.904
X202.428Y-78.043
X202.441Y-131.344
X202.654Y-61.37
X207.399Y-79.547
X211.551Y-48.406
X214.01Y-139.067
X214.086Y-140.055
X214.227Y-95.061
X215.784Y-69.861
X222.982Y-51.907
X226.428Y-69.872
X226.676Y-130.05
X228.625Y-69.868
X229.231Y-60.882
X233.765Y-125.5
X234.023Y-48.406
X234.689Y-44.161
X235.052Y-74.137
X236.034Y-69.861
X236.578Y-48.439
X237.942Y-69.861
X241.153Y-121.061
X243.016Y-128.947
T2
X26.6Y-73.0
X35.6Y-98.2
X38.6Y-71.0
X38.7Y-96.2
X42.3Y-73.0
X53.5Y-149.0
X55.2Y-134.2
X72.4Y-73.0
X91.7Y-71.0
X92.4Y-96.2
X95.9Y-98.2
X120.0Y-73.0
X121.2Y-96.2
X121.23Y-45.325
X124.4Y-71.0
X124.7Y-98.2
X124.73Y-47.325
X147.1Y-73.0
X150.0Y-96.2
X151.33Y-45.325
X151.4Y-71.0
X153.5Y-98.2
X154.83Y-47.325
X177.5Y-96.2
X181.0Y-98.2
X207.5Y-96.2
X208.8Y-47.3
X211.0Y-98.2
X238.83Y-71.025
X242.33Y-73.025
T3
X117.5Y-141.6
X118.77Y-140.33
X120.04Y-141.6
T4
X23.2Y-60.4
X23.2Y-85.4
X23.5Y-99.2
X23.5Y-124.2
X28.61Y-93.38
X28.61Y-101.0
X29.64Y-119.38
X29.64Y-127.0
X29.8Y-68.38
X29.8Y-76.0
X31.15Y-93.38
X31.15Y-101.0
X32.18Y-119.38
X32.18Y-127.0
X32.34Y-68.38
X32.34Y-76.0
X33.69Y-93.38
X33.69Y-101.0
X34.72Y-119.38
X34.72Y-127.0
X34.88Y-68.38
X34.88Y-76.0
X36.23Y-93.38
X36.23Y-101.0
X37.26Y-119.38
X37.26Y-127.0
X37.42Y-68.38
X37.42Y-76.0
X38.77Y-93.38
X38.77Y-101.0
X39.8Y-119.38
X39.8Y-127.0
X39.96Y-68.38
X39.96Y-76.0
X41.31Y-93.38
X41.31Y-101.0
X42.34Y-119.38
X42.34Y-127.0
X42.5Y-68.38
X42.5Y-76.0
X43.85Y-93.38
X43.85Y-101.0
X44.88Y-119.38
X44.88Y-127.0
X45.04Y-68.38
X45.04Y-76.0
X46.39Y-93.38
X46.39Y-101.0
X55.88Y-42.38
X55.88Y-50.0
X57.26Y-68.38
X57.26Y-76.0
X57.34Y-93.38
X57.34Y-101.0
X57.38Y-119.38
X57.38Y-127.0
X58.42Y-42.38
X58.42Y-50.0
X59.52Y-55.3
X59.8Y-68.38
X59.8Y-76.0
X59.88Y-93.38
X59.88Y-101.0
X59.92Y-119.38
X59.92Y-127.0
X60.96Y-42.38
X60.96Y-50.0
X62.34Y-68.38
X62.34Y-76.0
X62.42Y-93.38
X62.42Y-101.0
X62.46Y-119.38
X62.46Y-127.0
X63.5Y-42.38
X63.5Y-50.0
X64.88Y-68.38
X64.88Y-76.0
X64.96Y-93.38
X64.96Y-101.0
X65.0Y-119.38
X65.0Y-127.0
X66.04Y-42.38
X66.04Y-50.0
X67.42Y-68.38
X67.42Y-76.0
X67.5Y-93.38
X67.5Y-101.0
X67.54Y-119.38
X67.54Y-127.0
X68.58Y-42.38
X68.58Y-50.0
X69.68Y-55.3
X69.96Y-68.38
X69.96Y-76.0
X70.04Y-93.38
X70.04Y-101.0
X70.08Y-119.38
X70.08Y-127.0
X71.12Y-42.38
X71.12Y-50.0
X72.5Y-68.38
X72.5Y-76.0
X72.58Y-93.38
X72.58Y-101.0
X72.62Y-119.38
X72.62Y-127.0
X73.66Y-42.38
X73.66Y-50.0
X76.0Y-118.4
X76.0Y-128.56
X78.72Y-37.0
X83.61Y-68.38
X83.61Y-76.0
X83.61Y-93.38
X83.61Y-101.0
X84.76Y-119.38
X84.76Y-127.0
X84.8Y-42.5
X84.8Y-50.12
X86.15Y-68.38
X86.15Y-76.0
X86.15Y-93.38
X86.15Y-101.0
X87.3Y-119.38
X87.3Y-127.0
X87.34Y-42.5
X87.34Y-50.12
X88.69Y-68.38
X88.69Y-76.0
X88.69Y-93.38
X88.69Y-101.0
X88.88Y-37.0
X89.84Y-119.38
X89.84Y-127.0
X89.88Y-42.5
X89.88Y-50.12
X91.23Y-68.38
X91.23Y-76.0
X91.23Y-93.38
X91.23Y-101.0
X92.38Y-119.38
X92.38Y-127.0
X92.42Y-42.5
X92.42Y-50.12
X93.77Y-68.38
X93.77Y-76.0
X93.77Y-93.38
X93.77Y-101.0
X94.92Y-119.38
X94.92Y-127.0
X94.96Y-42.5
X94.96Y-50.12
X96.31Y-68.38
X96.31Y-76.0
X96.31Y-93.38
X96.31Y-101.0
X97.46Y-119.38
X97.46Y-127.0
X97.5Y-42.5
X97.5Y-50.12
X98.85Y-68.38
X98.85Y-76.0
X98.85Y-93.38
X98.85Y-101.0
X100.0Y-119.38
X100.0Y-127.0
X100.04Y-42.5
X100.04Y-50.12
X101.39Y-68.38
X101.39Y-76.0
X101.39Y-93.38
X101.39Y-101.0
X112.3Y-119.38
X112.3Y-127.0
X112.42Y-42.5
X112.42Y-50.12
X112.42Y-68.38
X112.42Y-76.0
X112.42Y-93.38
X112.42Y-101.0
X114.84Y-119.38
X114.84Y-127.0
X114.96Y-42.5
X114.96Y-50.12
X114.96Y-68.38
X114.96Y-76.0
X114.96Y-93.38
X114.96Y-101.0
X117.38Y-119.38
X117.38Y-127.0
X117.5Y-42.5
X117.5Y-50.12
X117.5Y-68.38
X117.5Y-76.0
X117.5Y-93.38
X117.5Y-101.0
X119.92Y-119.38
X119.92Y-127.0
X120.04Y-42.5
X120.04Y-50.12
X120.04Y-68.38
X120.04Y-76.0
X120.04Y-93.38
X120.04Y-101.0
X122.46Y-119.38
X122.46Y-127.0
X122.58Y-42.5
X122.58Y-50.12
X122.58Y-68.38
X122.58Y-76.0
X122.58Y-93.38
X122.58Y-101.0
X125.0Y-119.38
X125.0Y-127.0
X125.12Y-42.5
X125.12Y-50.12
X125.12Y-68.38
X125.12Y-76.0
X125.12Y-93.38
X125.12Y-101.0
X126.52Y-142.0
X127.54Y-119.38
X127.54Y-127.0
X127.66Y-42.5
X127.66Y-50.12
X127.66Y-68.38
X127.66Y-76.0
X127.66Y-93.38
X127.66Y-101.0
X130.08Y-119.38
X130.08Y-127.0
X130.2Y-42.5
X130.2Y-50.12
X130.2Y-68.38
X130.2Y-76.0
X130.2Y-93.38
X130.2Y-101.0
X136.68Y-142.0
X140.99Y-119.38
X140.99Y-127.0
X141.23Y-68.38
X141.23Y-76.0
X141.23Y-93.38
X141.23Y-101.0
X142.54Y-42.5
X142.54Y-50.12
X143.53Y-119.38
X143.53Y-127.0
X143.77Y-68.38
X143.77Y-76.0
X143.77Y-93.38
X143.77Y-101.0
X145.08Y-42.5
X145.08Y-50.12
X146.07Y-119.38
X146.07Y-127.0
X146.31Y-68.38
X146.31Y-76.0
X146.31Y-93.38
X146.31Y-101.0
X147.62Y-42.5
X147.62Y-50.12
X148.61Y-119.38
X148.61Y-127.0
X148.85Y-68.38
X148.85Y-76.0
X148.85Y-93.38
X148.85Y-101.0
X150.16Y-42.5
X150.16Y-50.12
X151.15Y-119.38
X151.15Y-127.0
X151.39Y-68.38
X151.39Y-76.0
X151.39Y-93.38
X151.39Y-101.0
X152.7Y-42.5
X152.7Y-50.12
X153.69Y-119.38
X153.69Y-127.0
X153.93Y-68.38
X153.93Y-76.0
X153.93Y-93.38
X153.93Y-101.0
X155.24Y-42.5
X155.24Y-50.12
X156.23Y-119.38
X156.23Y-127.0
X156.47Y-68.38
X156.47Y-76.0
X156.47Y-93.38
X156.47Y-101.0
X157.78Y-42.5
X157.78Y-50.12
X158.77Y-119.38
X158.77Y-127.0
X159.01Y-68.38
X159.01Y-76.0
X159.01Y-93.38
X159.01Y-101.0
X168.73Y-93.38
X168.73Y-101.0
X169.88Y-119.38
X169.88Y-127.0
X170.0Y-42.5
X170.0Y-50.12
X170.0Y-68.38
X170.0Y-76.0
X171.27Y-93.38
X171.27Y-101.0
X172.42Y-119.38
X172.42Y-127.0
X172.54Y-42.5
X172.54Y-50.12
X172.54Y-68.38
X172.54Y-76.0
X173.81Y-93.38
X173.81Y-101.0
X174.96Y-119.38
X174.96Y-127.0
X175.08Y-42.5
X175.08Y-50.12
X175.08Y-68.38
X175.08Y-76.0
X176.35Y-93.38
X176.35Y-101.0
X177.5Y-119.38
X177.5Y-127.0
X177.62Y-42.5
X177.62Y-50.12
X177.62Y-68.38
X177.62Y-76.0
X178.89Y-93.38
X178.89Y-101.0
X180.04Y-119.38
X180.04Y-127.0
X180.16Y-42.5
X180.16Y-50.12
X180.16Y-68.38
X180.16Y-76.0
X181.43Y-93.38
X181.43Y-101.0
X182.58Y-119.38
X182.58Y-127.0
X182.7Y-42.5
X182.7Y-50.12
X182.7Y-68.38
X182.7Y-76.0
X183.97Y-93.38
X183.97Y-101.0
X185.12Y-119.38
X185.12Y-127.0
X185.24Y-42.5
X185.24Y-50.12
X185.24Y-68.38
X185.24Y-76.0
X186.51Y-93.38
X186.51Y-101.0
X198.62Y-42.5
X198.62Y-50.12
X198.73Y-93.38
X198.73Y-101.0
X199.76Y-119.38
X199.76Y-127.0
X200.0Y-68.38
X200.0Y-76.0
X201.16Y-42.5
X201.16Y-50.12
X201.27Y-93.38
X201.27Y-101.0
X202.3Y-119.38
X202.3Y-127.0
X202.54Y-68.38
X202.54Y-76.0
X203.7Y-42.5
X203.7Y-50.12
X203.81Y-93.38
X203.81Y-101.0
X204.84Y-119.38
X204.84Y-127.0
X205.08Y-68.38
X205.08Y-76.0
X206.24Y-42.5
X206.24Y-50.12
X206.35Y-93.38
X206.35Y-101.0
X207.38Y-119.38
X207.38Y-127.0
X207.62Y-68.38
X207.62Y-76.0
X208.78Y-42.5
X208.78Y-50.12
X208.89Y-93.38
X208.89Y-101.0
X209.92Y-119.38
X209.92Y-127.0
X210.16Y-68.38
X210.16Y-76.0
X211.32Y-42.5
X211.32Y-50.12
X211.43Y-93.38
X211.43Y-101.0
X212.46Y-119.38
X212.46Y-127.0
X212.7Y-68.38
X212.7Y-76.0
X213.86Y-42.5
X213.86Y-50.12
X213.97Y-93.38
X213.97Y-101.0
X215.0Y-119.38
X215.0Y-127.0
X215.24Y-68.38
X215.24Y-76.0
X216.4Y-42.5
X216.4Y-50.12
X216.51Y-93.38
X216.51Y-101.0
X228.61Y-119.38
X228.61Y-127.0
X228.73Y-42.5
X228.73Y-50.12
X230.0Y-68.38
X230.0Y-76.0
X230.0Y-93.38
X230.0Y-101.0
X231.15Y-119.38
X231.15Y-127.0
X231.27Y-42.5
X231.27Y-50.12
X232.54Y-68.38
X232.54Y-76.0
X232.54Y-93.38
X232.54Y-101.0
X233.69Y-119.38
X233.69Y-127.0
X233.81Y-42.5
X233.81Y-50.12
X235.08Y-68.38
X235.08Y-76.0
X235.08Y-93.38
X235.08Y-101.0
X236.23Y-119.38
X236.23Y-127.0
X236.35Y-42.5
X236.35Y-50.12
X237.62Y-68.38
X237.62Y-76.0
X237.62Y-93.38
X237.62Y-101.0
X238.77Y-119.38
X238.77Y-127.0
X238.89Y-42.5
X238.89Y-50.12
X240.16Y-68.38
X240.16Y-76.0
X240.16Y-93.38
X240.16Y-101.0
X241.31Y-119.38
X241.31Y-127.0
X241.43Y-42.5
X241.43Y-50.12
X242.7Y-68.38
X242.7Y-76.0
X242.7Y-93.38
X242.7Y-101.0
X243.85Y-119.38
X243.85Y-127.0
X243.97Y-42.5
X243.97Y-50.12
X245.24Y-68.38
X245.24Y-76.0
X245.24Y-93.38
X245.24Y-101.0
X246.39Y-119.38
X246.39Y-127.0
X246.51Y-42.5
X246.51Y-50.12
T5
X24.6Y-89.3
X30.05Y-136.0
X32.1Y-89.3
X37.55Y-136.0
X51.1Y-68.55
X51.1Y-76.05
X79.2Y-42.45
X79.2Y-49.95
X80.35Y-119.4
X80.35Y-126.9
X253.7Y-45.3
X253.7Y-71.0
X253.7Y-96.2
X253.7Y-122.2
X261.2Y-45.3
X261.2Y-71.0
X261.2Y-96.2
X261.2Y-122.2
T6
X27.56Y-62.467
X30.1Y-60.267
X32.64Y-62.467
M30
