%TF.GenerationSoftware,KiCad,Pcbnew,9.0.6*%
%TF.CreationDate,2026-03-30T14:03:52-05:00*%
%TF.ProjectId,88-CCC Board 1,38382d43-4343-4204-926f-61726420312e,rev?*%
%TF.SameCoordinates,Original*%
%TF.FileFunction,Copper,L2,Bot*%
%TF.FilePolarity,Positive*%
%FSLAX46Y46*%
G04 Gerber Fmt 4.6, Leading zero omitted, Abs format (unit mm)*
G04 Created by KiCad (PCBNEW 9.0.6) date 2026-03-30 14:03:52*
%MOMM*%
%LPD*%
G01*
G04 APERTURE LIST*
G04 Aperture macros list*
%AMRoundRect*
0 Rectangle with rounded corners*
0 $1 Rounding radius*
0 $2 $3 $4 $5 $6 $7 $8 $9 X,Y pos of 4 corners*
0 Add a 4 corners polygon primitive as box body*
4,1,4,$2,$3,$4,$5,$6,$7,$8,$9,$2,$3,0*
0 Add four circle primitives for the rounded corners*
1,1,$1+$1,$2,$3*
1,1,$1+$1,$4,$5*
1,1,$1+$1,$6,$7*
1,1,$1+$1,$8,$9*
0 Add four rect primitives between the rounded corners*
20,1,$1+$1,$2,$3,$4,$5,0*
20,1,$1+$1,$4,$5,$6,$7,0*
20,1,$1+$1,$6,$7,$8,$9,0*
20,1,$1+$1,$8,$9,$2,$3,0*%
G04 Aperture macros list end*
%TA.AperFunction,Conductor*%
%ADD10C,0.100000*%
%TD*%
%TA.AperFunction,ComponentPad*%
%ADD11C,2.000000*%
%TD*%
%TA.AperFunction,ComponentPad*%
%ADD12C,1.600000*%
%TD*%
%TA.AperFunction,ComponentPad*%
%ADD13RoundRect,0.250000X0.550000X-0.550000X0.550000X0.550000X-0.550000X0.550000X-0.550000X-0.550000X0*%
%TD*%
%TA.AperFunction,ComponentPad*%
%ADD14R,1.300000X1.300000*%
%TD*%
%TA.AperFunction,ComponentPad*%
%ADD15C,1.300000*%
%TD*%
%TA.AperFunction,ConnectorPad*%
%ADD16R,2.794000X7.620000*%
%TD*%
%TA.AperFunction,ConnectorPad*%
%ADD17R,1.778000X7.620000*%
%TD*%
%TA.AperFunction,ComponentPad*%
%ADD18C,1.905000*%
%TD*%
%TA.AperFunction,ComponentPad*%
%ADD19O,1.905000X2.000000*%
%TD*%
%TA.AperFunction,ViaPad*%
%ADD20C,0.900000*%
%TD*%
%TA.AperFunction,ViaPad*%
%ADD21C,0.600000*%
%TD*%
%TA.AperFunction,Conductor*%
%ADD22C,1.000000*%
%TD*%
%TA.AperFunction,Conductor*%
%ADD23C,0.300000*%
%TD*%
G04 APERTURE END LIST*
D10*
%TO.N,GND*%
X266624549Y-29764400D02*
X266700749Y-149677800D01*
X210769949Y-149500000D01*
X208610949Y-149525400D01*
X208839549Y-147899800D01*
X212725749Y-143175400D01*
X254229349Y-143175400D01*
X261290549Y-136317400D01*
X261392149Y-68118400D01*
X261620749Y-67458000D01*
X261696949Y-67000800D01*
X261671549Y-66467400D01*
X261468349Y-65934000D01*
X261392149Y-65603800D01*
X261392149Y-42108800D01*
X258471149Y-42134200D01*
X258471149Y-36089000D01*
X261315949Y-36089000D01*
X254813549Y-29002400D01*
X50927749Y-28951600D01*
X48616349Y-31237600D01*
X48590949Y-48966800D01*
X38837349Y-60371400D01*
X13005549Y-60346000D01*
X13005549Y-28850000D01*
X18745949Y-23109600D01*
X260198349Y-23109600D01*
X266624549Y-29764400D01*
%TA.AperFunction,Conductor*%
G36*
X266624549Y-29764400D02*
G01*
X266700749Y-149677800D01*
X210769949Y-149500000D01*
X208610949Y-149525400D01*
X208839549Y-147899800D01*
X212725749Y-143175400D01*
X254229349Y-143175400D01*
X261290549Y-136317400D01*
X261392149Y-68118400D01*
X261620749Y-67458000D01*
X261696949Y-67000800D01*
X261671549Y-66467400D01*
X261468349Y-65934000D01*
X261392149Y-65603800D01*
X261392149Y-42108800D01*
X258471149Y-42134200D01*
X258471149Y-36089000D01*
X261315949Y-36089000D01*
X254813549Y-29002400D01*
X50927749Y-28951600D01*
X48616349Y-31237600D01*
X48590949Y-48966800D01*
X38837349Y-60371400D01*
X13005549Y-60346000D01*
X13005549Y-28850000D01*
X18745949Y-23109600D01*
X260198349Y-23109600D01*
X266624549Y-29764400D01*
G37*
%TD.AperFunction*%
%TO.N,+5V*%
X21876600Y-84067400D02*
X21724200Y-84219800D01*
X21419400Y-84550000D01*
X21267000Y-84956400D01*
X21190800Y-85312000D01*
X21190800Y-85845400D01*
X21317800Y-86277200D01*
X21571800Y-86683600D01*
X21876600Y-86988400D01*
X21876600Y-100526600D01*
X21749600Y-100704400D01*
X21521000Y-101110800D01*
X21317800Y-101669600D01*
X21317800Y-102380800D01*
X21521000Y-102914200D01*
X21876600Y-103422200D01*
X21876600Y-126002800D01*
X21648000Y-126510800D01*
X21648000Y-128669800D01*
X21902000Y-129127000D01*
X21724200Y-137763000D01*
X15221800Y-131336800D01*
X15221800Y-61994800D01*
X21876600Y-61994800D01*
X21876600Y-84067400D01*
%TA.AperFunction,Conductor*%
G36*
X21876600Y-84067400D02*
G01*
X21724200Y-84219800D01*
X21419400Y-84550000D01*
X21267000Y-84956400D01*
X21190800Y-85312000D01*
X21190800Y-85845400D01*
X21317800Y-86277200D01*
X21571800Y-86683600D01*
X21876600Y-86988400D01*
X21876600Y-100526600D01*
X21749600Y-100704400D01*
X21521000Y-101110800D01*
X21317800Y-101669600D01*
X21317800Y-102380800D01*
X21521000Y-102914200D01*
X21876600Y-103422200D01*
X21876600Y-126002800D01*
X21648000Y-126510800D01*
X21648000Y-128669800D01*
X21902000Y-129127000D01*
X21724200Y-137763000D01*
X15221800Y-131336800D01*
X15221800Y-61994800D01*
X21876600Y-61994800D01*
X21876600Y-84067400D01*
G37*
%TD.AperFunction*%
%TD*%
D11*
%TO.P,C1,2*%
%TO.N,GND*%
X80350000Y-126900000D03*
%TO.P,C1,1*%
%TO.N,PSYNC*%
X80350000Y-119400000D03*
%TD*%
D12*
%TO.P,R4,1*%
%TO.N,+5V*%
X76000000Y-118400000D03*
%TO.P,R4,2*%
%TO.N,PHLDA*%
X76000000Y-128560000D03*
%TD*%
%TO.P,C10,1*%
%TO.N,+8V*%
X23200000Y-85400000D03*
%TO.P,C10,2*%
%TO.N,GND*%
X23200000Y-60400000D03*
%TD*%
D13*
%TO.P,U21,1,CP1..3*%
%TO.N,Net-(J11-Pin_2)*%
X230000000Y-76000000D03*
D12*
%TO.P,U21,2,R0(1)*%
%TO.N,Net-(J11-Pin_3)*%
X232540000Y-76000000D03*
%TO.P,U21,3,R0(2)*%
X235080000Y-76000000D03*
%TO.P,U21,4*%
%TO.N,N/C*%
X237620000Y-76000000D03*
%TO.P,U21,5,VCC*%
%TO.N,+5V*%
X240160000Y-76000000D03*
%TO.P,U21,6*%
%TO.N,N/C*%
X242700000Y-76000000D03*
%TO.P,U21,7*%
X245240000Y-76000000D03*
%TO.P,U21,8,Q2*%
%TO.N,Net-(U21-Q2)*%
X245240000Y-68380000D03*
%TO.P,U21,9,Q1*%
%TO.N,Net-(U12-I1)*%
X242700000Y-68380000D03*
%TO.P,U21,10,GND*%
%TO.N,GND*%
X240160000Y-68380000D03*
%TO.P,U21,11,Q3*%
%TO.N,Net-(U21-Q3)*%
X237620000Y-68380000D03*
%TO.P,U21,12,Q0*%
%TO.N,unconnected-(U21-Q0-Pad12)*%
X235080000Y-68380000D03*
%TO.P,U21,13*%
%TO.N,N/C*%
X232540000Y-68380000D03*
%TO.P,U21,14,CP0*%
%TO.N,unconnected-(U21-CP0-Pad14)*%
X230000000Y-68380000D03*
%TD*%
D13*
%TO.P,U45,1,OEa*%
%TO.N,Net-(J11-Pin_7)*%
X112300000Y-127000000D03*
D12*
%TO.P,U45,2,I1*%
%TO.N,unconnected-(U45-I1-Pad2)*%
X114840000Y-127000000D03*
%TO.P,U45,3,O1a*%
%TO.N,unconnected-(U45-O1a-Pad3)*%
X117380000Y-127000000D03*
%TO.P,U45,4,I2*%
%TO.N,Net-(U26-S2)*%
X119920000Y-127000000D03*
%TO.P,U45,5,O2a*%
%TO.N,A12*%
X122460000Y-127000000D03*
%TO.P,U45,6,I3*%
%TO.N,Net-(U26-S4)*%
X125000000Y-127000000D03*
%TO.P,U45,7,O3a*%
%TO.N,A14*%
X127540000Y-127000000D03*
%TO.P,U45,8,GND*%
%TO.N,GND*%
X130080000Y-127000000D03*
%TO.P,U45,9,O4a*%
%TO.N,A11*%
X130080000Y-119380000D03*
%TO.P,U45,10,I4*%
%TO.N,Net-(U26-S1)*%
X127540000Y-119380000D03*
%TO.P,U45,11,O5b*%
%TO.N,A13*%
X125000000Y-119380000D03*
%TO.P,U45,12,I5*%
%TO.N,Net-(U26-S3)*%
X122460000Y-119380000D03*
%TO.P,U45,13,O6b*%
%TO.N,A15*%
X119920000Y-119380000D03*
%TO.P,U45,14,I6*%
%TO.N,Net-(U26-C4)*%
X117380000Y-119380000D03*
%TO.P,U45,15,OEb*%
%TO.N,Net-(J11-Pin_7)*%
X114840000Y-119380000D03*
%TO.P,U45,16,VCC*%
%TO.N,+5V*%
X112300000Y-119380000D03*
%TD*%
D13*
%TO.P,J11,1,Pin_1*%
%TO.N,Net-(J11-Pin_1)*%
X228730000Y-50120000D03*
D12*
%TO.P,J11,2,Pin_2*%
%TO.N,Net-(J11-Pin_2)*%
X231270000Y-50120000D03*
%TO.P,J11,3,Pin_3*%
%TO.N,Net-(J11-Pin_3)*%
X233810000Y-50120000D03*
%TO.P,J11,4,Pin_4*%
%TO.N,unconnected-(J11-Pin_4-Pad4)*%
X236350000Y-50120000D03*
%TO.P,J11,5,Pin_5*%
%TO.N,Net-(J11-Pin_5)*%
X238890000Y-50120000D03*
%TO.P,J11,6,Pin_6*%
%TO.N,Net-(J11-Pin_6)*%
X241430000Y-50120000D03*
%TO.P,J11,7,Pin_7*%
%TO.N,Net-(J11-Pin_7)*%
X243970000Y-50120000D03*
%TO.P,J11,8,Pin_8*%
%TO.N,GND*%
X246510000Y-50120000D03*
%TO.P,J11,9,Pin_9*%
%TO.N,Net-(J11-Pin_9)*%
X246510000Y-42500000D03*
%TO.P,J11,10,Pin_10*%
%TO.N,Net-(J11-Pin_10)*%
X243970000Y-42500000D03*
%TO.P,J11,11,Pin_11*%
%TO.N,Net-(J11-Pin_11)*%
X241430000Y-42500000D03*
%TO.P,J11,12,Pin_12*%
%TO.N,Net-(J11-Pin_12)*%
X238890000Y-42500000D03*
%TO.P,J11,13,Pin_13*%
%TO.N,Net-(J11-Pin_13)*%
X236350000Y-42500000D03*
%TO.P,J11,14,Pin_14*%
%TO.N,Net-(J11-Pin_14)*%
X233810000Y-42500000D03*
%TO.P,J11,15,Pin_15*%
%TO.N,Net-(J11-Pin_15)*%
X231270000Y-42500000D03*
%TO.P,J11,16,Pin_16*%
%TO.N,unconnected-(J11-Pin_16-Pad16)*%
X228730000Y-42500000D03*
%TD*%
D13*
%TO.P,U34,1,~{Q0}*%
%TO.N,Net-(U24-D)*%
X141230000Y-101000000D03*
D12*
%TO.P,U34,2,D0*%
%TO.N,Net-(U32-D0)*%
X143770000Y-101000000D03*
%TO.P,U34,3,D1*%
%TO.N,Net-(U32-D1)*%
X146310000Y-101000000D03*
%TO.P,U34,4,E23*%
%TO.N,Net-(J11-Pin_10)*%
X148850000Y-101000000D03*
%TO.P,U34,5,VCC*%
%TO.N,+5V*%
X151390000Y-101000000D03*
%TO.P,U34,6,D2*%
%TO.N,Net-(U32-D2)*%
X153930000Y-101000000D03*
%TO.P,U34,7,D3*%
%TO.N,Net-(U32-D3)*%
X156470000Y-101000000D03*
%TO.P,U34,8,~{Q3}*%
%TO.N,Net-(U24-A)*%
X159010000Y-101000000D03*
%TO.P,U34,9,Q3*%
%TO.N,unconnected-(U34-Q3-Pad9)*%
X159010000Y-93380000D03*
%TO.P,U34,10,Q2*%
%TO.N,unconnected-(U34-Q2-Pad10)*%
X156470000Y-93380000D03*
%TO.P,U34,11,~{Q2}*%
%TO.N,Net-(U24-B)*%
X153930000Y-93380000D03*
%TO.P,U34,12,GND*%
%TO.N,GND*%
X151390000Y-93380000D03*
%TO.P,U34,13,E01*%
%TO.N,Net-(J11-Pin_10)*%
X148850000Y-93380000D03*
%TO.P,U34,14,~{Q1}*%
%TO.N,Net-(U24-C)*%
X146310000Y-93380000D03*
%TO.P,U34,15,Q1*%
%TO.N,unconnected-(U34-Q1-Pad15)*%
X143770000Y-93380000D03*
%TO.P,U34,16,Q0*%
%TO.N,unconnected-(U34-Q0-Pad16)*%
X141230000Y-93380000D03*
%TD*%
D11*
%TO.P,C2,1*%
%TO.N,+5V*%
X30050000Y-136000000D03*
%TO.P,C2,2*%
%TO.N,GND*%
X37550000Y-136000000D03*
%TD*%
D13*
%TO.P,U41,1,OEa*%
%TO.N,Net-(U41-OEa)*%
X228610000Y-127000000D03*
D12*
%TO.P,U41,2,I1*%
%TO.N,Net-(J17-Pin_13)*%
X231150000Y-127000000D03*
%TO.P,U41,3,O1a*%
%TO.N,D12*%
X233690000Y-127000000D03*
%TO.P,U41,4,I2*%
%TO.N,Net-(U31A-~{Q})*%
X236230000Y-127000000D03*
%TO.P,U41,5,O2a*%
%TO.N,D17*%
X238770000Y-127000000D03*
%TO.P,U41,6,I3*%
%TO.N,Net-(J17-Pin_14)*%
X241310000Y-127000000D03*
%TO.P,U41,7,O3a*%
%TO.N,D11*%
X243850000Y-127000000D03*
%TO.P,U41,8,GND*%
%TO.N,GND*%
X246390000Y-127000000D03*
%TO.P,U41,9,O4a*%
%TO.N,D10*%
X246390000Y-119380000D03*
%TO.P,U41,10,I4*%
%TO.N,Net-(J17-Pin_15)*%
X243850000Y-119380000D03*
%TO.P,U41,11,O5b*%
%TO.N,D16*%
X241310000Y-119380000D03*
%TO.P,U41,12,I5*%
%TO.N,Net-(U41-I5)*%
X238770000Y-119380000D03*
%TO.P,U41,13,O6b*%
%TO.N,D13*%
X236230000Y-119380000D03*
%TO.P,U41,14,I6*%
%TO.N,Net-(J17-Pin_12)*%
X233690000Y-119380000D03*
%TO.P,U41,15,OEb*%
%TO.N,Net-(U41-OEa)*%
X231150000Y-119380000D03*
%TO.P,U41,16,VCC*%
%TO.N,+5V*%
X228610000Y-119380000D03*
%TD*%
%TO.P,R3,1*%
%TO.N,Net-(U23A-Q)*%
X136680000Y-142000000D03*
%TO.P,R3,2*%
%TO.N,Net-(Q1-B)*%
X126520000Y-142000000D03*
%TD*%
D11*
%TO.P,C9,1*%
%TO.N,+5V*%
X253700000Y-45300000D03*
%TO.P,C9,2*%
%TO.N,GND*%
X261200000Y-45300000D03*
%TD*%
%TO.P,C7,1*%
%TO.N,+5V*%
X253700000Y-96200000D03*
%TO.P,C7,2*%
%TO.N,GND*%
X261200000Y-96200000D03*
%TD*%
D13*
%TO.P,U36,1,~{Q0}*%
%TO.N,Net-(U26-B1)*%
X83610000Y-101000000D03*
D12*
%TO.P,U36,2,D0*%
%TO.N,Net-(U33-D1)*%
X86150000Y-101000000D03*
%TO.P,U36,3,D1*%
%TO.N,Net-(U33-D0)*%
X88690000Y-101000000D03*
%TO.P,U36,4,E23*%
%TO.N,Net-(J11-Pin_9)*%
X91230000Y-101000000D03*
%TO.P,U36,5,VCC*%
%TO.N,+5V*%
X93770000Y-101000000D03*
%TO.P,U36,6,D2*%
%TO.N,Net-(U31B-D)*%
X96310000Y-101000000D03*
%TO.P,U36,7,D3*%
%TO.N,Net-(U31A-D)*%
X98850000Y-101000000D03*
%TO.P,U36,8,~{Q3}*%
%TO.N,Net-(U26-B4)*%
X101390000Y-101000000D03*
%TO.P,U36,9,Q3*%
%TO.N,unconnected-(U36-Q3-Pad9)*%
X101390000Y-93380000D03*
%TO.P,U36,10,Q2*%
%TO.N,unconnected-(U36-Q2-Pad10)*%
X98850000Y-93380000D03*
%TO.P,U36,11,~{Q2}*%
%TO.N,Net-(U26-B3)*%
X96310000Y-93380000D03*
%TO.P,U36,12,GND*%
%TO.N,GND*%
X93770000Y-93380000D03*
%TO.P,U36,13,E01*%
%TO.N,Net-(J11-Pin_9)*%
X91230000Y-93380000D03*
%TO.P,U36,14,~{Q1}*%
%TO.N,Net-(U26-B2)*%
X88690000Y-93380000D03*
%TO.P,U36,15,Q1*%
%TO.N,unconnected-(U36-Q1-Pad15)*%
X86150000Y-93380000D03*
%TO.P,U36,16,Q0*%
%TO.N,unconnected-(U36-Q0-Pad16)*%
X83610000Y-93380000D03*
%TD*%
D11*
%TO.P,C6,1*%
%TO.N,+5V*%
X253700000Y-122200000D03*
%TO.P,C6,2*%
%TO.N,GND*%
X261200000Y-122200000D03*
%TD*%
D13*
%TO.P,U32,1,~{Q0}*%
%TO.N,Net-(J17-Pin_12)*%
X198730000Y-101000000D03*
D12*
%TO.P,U32,2,D0*%
%TO.N,Net-(U32-D0)*%
X201270000Y-101000000D03*
%TO.P,U32,3,D1*%
%TO.N,Net-(U32-D1)*%
X203810000Y-101000000D03*
%TO.P,U32,4,E23*%
%TO.N,Net-(J11-Pin_11)*%
X206350000Y-101000000D03*
%TO.P,U32,5,VCC*%
%TO.N,+5V*%
X208890000Y-101000000D03*
%TO.P,U32,6,D2*%
%TO.N,Net-(U32-D2)*%
X211430000Y-101000000D03*
%TO.P,U32,7,D3*%
%TO.N,Net-(U32-D3)*%
X213970000Y-101000000D03*
%TO.P,U32,8,~{Q3}*%
%TO.N,Net-(J17-Pin_15)*%
X216510000Y-101000000D03*
%TO.P,U32,9,Q3*%
%TO.N,unconnected-(U32-Q3-Pad9)*%
X216510000Y-93380000D03*
%TO.P,U32,10,Q2*%
%TO.N,unconnected-(U32-Q2-Pad10)*%
X213970000Y-93380000D03*
%TO.P,U32,11,~{Q2}*%
%TO.N,Net-(J17-Pin_14)*%
X211430000Y-93380000D03*
%TO.P,U32,12,GND*%
%TO.N,GND*%
X208890000Y-93380000D03*
%TO.P,U32,13,E01*%
%TO.N,Net-(J11-Pin_11)*%
X206350000Y-93380000D03*
%TO.P,U32,14,~{Q1}*%
%TO.N,Net-(J17-Pin_13)*%
X203810000Y-93380000D03*
%TO.P,U32,15,Q1*%
%TO.N,unconnected-(U32-Q1-Pad15)*%
X201270000Y-93380000D03*
%TO.P,U32,16,Q0*%
%TO.N,unconnected-(U32-Q0-Pad16)*%
X198730000Y-93380000D03*
%TD*%
D13*
%TO.P,U43,1*%
%TO.N,Net-(J11-Pin_6)*%
X169880000Y-127000000D03*
D12*
%TO.P,U43,2*%
%TO.N,Net-(U41-OEa)*%
X172420000Y-127000000D03*
%TO.P,U43,3*%
%TO.N,D01*%
X174960000Y-127000000D03*
%TO.P,U43,4*%
%TO.N,Net-(U32-D2)*%
X177500000Y-127000000D03*
%TO.P,U43,5*%
%TO.N,D04*%
X180040000Y-127000000D03*
%TO.P,U43,6*%
%TO.N,Net-(U33-D3)*%
X182580000Y-127000000D03*
%TO.P,U43,7,GND*%
%TO.N,GND*%
X185120000Y-127000000D03*
%TO.P,U43,8*%
%TO.N,Net-(U33-D2)*%
X185120000Y-119380000D03*
%TO.P,U43,9*%
%TO.N,D05*%
X182580000Y-119380000D03*
%TO.P,U43,10*%
%TO.N,Net-(U32-D3)*%
X180040000Y-119380000D03*
%TO.P,U43,11*%
%TO.N,D00*%
X177500000Y-119380000D03*
%TO.P,U43,12*%
%TO.N,unconnected-(U43-Pad12)*%
X174960000Y-119380000D03*
%TO.P,U43,13*%
%TO.N,unconnected-(U43-Pad13)*%
X172420000Y-119380000D03*
%TO.P,U43,14,VCC*%
%TO.N,+5V*%
X169880000Y-119380000D03*
%TD*%
%TO.P,R2,1*%
%TO.N,+5V*%
X88880000Y-37000000D03*
%TO.P,R2,2*%
%TO.N,Net-(J17-Pin_6)*%
X78720000Y-37000000D03*
%TD*%
D13*
%TO.P,U12,1,I3*%
%TO.N,Net-(U12-I3)*%
X198620000Y-50120000D03*
D12*
%TO.P,U12,2,I2*%
%TO.N,Net-(U12-I2)*%
X201160000Y-50120000D03*
%TO.P,U12,3,I1*%
%TO.N,Net-(U12-I1)*%
X203700000Y-50120000D03*
%TO.P,U12,4,I0*%
%TO.N,GND*%
X206240000Y-50120000D03*
%TO.P,U12,5,Q*%
%TO.N,unconnected-(U12-Q-Pad5)*%
X208780000Y-50120000D03*
%TO.P,U12,6,~{Q}*%
%TO.N,Net-(U12-~{Q})*%
X211320000Y-50120000D03*
%TO.P,U12,7,~{E}*%
%TO.N,GND*%
X213860000Y-50120000D03*
%TO.P,U12,8,GND*%
X216400000Y-50120000D03*
%TO.P,U12,9,S2*%
X216400000Y-42500000D03*
%TO.P,U12,10,S1*%
%TO.N,Net-(U12-S1)*%
X213860000Y-42500000D03*
%TO.P,U12,11,S0*%
%TO.N,Net-(U12-S0)*%
X211320000Y-42500000D03*
%TO.P,U12,12,I7*%
%TO.N,GND*%
X208780000Y-42500000D03*
%TO.P,U12,13,I6*%
X206240000Y-42500000D03*
%TO.P,U12,14,I5*%
X203700000Y-42500000D03*
%TO.P,U12,15,I4*%
X201160000Y-42500000D03*
%TO.P,U12,16,VCC*%
%TO.N,+5V*%
X198620000Y-42500000D03*
%TD*%
%TO.P,R1,1*%
%TO.N,GND*%
X59520000Y-55300000D03*
%TO.P,R1,2*%
%TO.N,Net-(J17-Pin_2)*%
X69680000Y-55300000D03*
%TD*%
D13*
%TO.P,U46,1*%
%TO.N,+5V*%
X84760000Y-127000000D03*
D12*
%TO.P,U46,2*%
%TO.N,PHLDA*%
X87300000Y-127000000D03*
%TO.P,U46,3*%
%TO.N,Net-(U32-D3)*%
X89840000Y-127000000D03*
%TO.P,U46,4*%
X92380000Y-127000000D03*
%TO.P,U46,5*%
X94920000Y-127000000D03*
%TO.P,U46,6*%
%TO.N,Net-(U46-Pad6)*%
X97460000Y-127000000D03*
%TO.P,U46,7,GND*%
%TO.N,GND*%
X100000000Y-127000000D03*
%TO.P,U46,8*%
%TO.N,Net-(U48A-D)*%
X100000000Y-119380000D03*
%TO.P,U46,9*%
%TO.N,Net-(U46-Pad6)*%
X97460000Y-119380000D03*
%TO.P,U46,10*%
%TO.N,PSYNC*%
X94920000Y-119380000D03*
%TO.P,U46,11*%
%TO.N,Net-(U46-Pad11)*%
X92380000Y-119380000D03*
%TO.P,U46,12*%
X89840000Y-119380000D03*
%TO.P,U46,13*%
%TO.N,+5V*%
X87300000Y-119380000D03*
%TO.P,U46,14,VCC*%
X84760000Y-119380000D03*
%TD*%
D14*
%TO.P,Q1,1,E*%
%TO.N,GND*%
X117500000Y-141600000D03*
D15*
%TO.P,Q1,2,B*%
%TO.N,Net-(Q1-B)*%
X118770000Y-140330000D03*
%TO.P,Q1,3,C*%
%TO.N,PINT*%
X120040000Y-141600000D03*
%TD*%
D13*
%TO.P,U16,1*%
%TO.N,Net-(U24-~{LOAD})*%
X84800000Y-50120000D03*
D12*
%TO.P,U16,2*%
%TO.N,Net-(J11-Pin_3)*%
X87340000Y-50120000D03*
%TO.P,U16,3*%
%TO.N,Net-(J17-Pin_10)*%
X89880000Y-50120000D03*
%TO.P,U16,4*%
%TO.N,Net-(J11-Pin_15)*%
X92420000Y-50120000D03*
%TO.P,U16,5*%
%TO.N,Net-(U16-Pad11)*%
X94960000Y-50120000D03*
%TO.P,U16,6*%
%TO.N,Net-(J11-Pin_13)*%
X97500000Y-50120000D03*
%TO.P,U16,7,GND*%
%TO.N,GND*%
X100040000Y-50120000D03*
%TO.P,U16,8*%
%TO.N,Net-(U24-DOWN)*%
X100040000Y-42500000D03*
%TO.P,U16,9*%
%TO.N,Net-(U14-CP0)*%
X97500000Y-42500000D03*
%TO.P,U16,10*%
%TO.N,Net-(J11-Pin_13)*%
X94960000Y-42500000D03*
%TO.P,U16,11*%
%TO.N,Net-(U16-Pad11)*%
X92420000Y-42500000D03*
%TO.P,U16,12*%
%TO.N,unconnected-(U16-Pad12)*%
X89880000Y-42500000D03*
%TO.P,U16,13*%
%TO.N,unconnected-(U16-Pad13)*%
X87340000Y-42500000D03*
%TO.P,U16,14,VCC*%
%TO.N,+5V*%
X84800000Y-42500000D03*
%TD*%
D11*
%TO.P,C3,1*%
%TO.N,+5V*%
X24600000Y-89300000D03*
%TO.P,C3,2*%
%TO.N,GND*%
X32100000Y-89300000D03*
%TD*%
D13*
%TO.P,U38,1,B*%
%TO.N,Net-(U33-~{Q0})*%
X28610000Y-101000000D03*
D12*
%TO.P,U38,2,QB*%
%TO.N,unconnected-(U38-QB-Pad2)*%
X31150000Y-101000000D03*
%TO.P,U38,3,QA*%
%TO.N,unconnected-(U38-QA-Pad3)*%
X33690000Y-101000000D03*
%TO.P,U38,4,DOWN*%
%TO.N,Net-(U38-DOWN)*%
X36230000Y-101000000D03*
%TO.P,U38,5,UP*%
%TO.N,+5V*%
X38770000Y-101000000D03*
%TO.P,U38,6,QC*%
%TO.N,unconnected-(U38-QC-Pad6)*%
X41310000Y-101000000D03*
%TO.P,U38,7,QD*%
%TO.N,unconnected-(U38-QD-Pad7)*%
X43850000Y-101000000D03*
%TO.P,U38,8,GND*%
%TO.N,GND*%
X46390000Y-101000000D03*
%TO.P,U38,9,D*%
X46390000Y-93380000D03*
%TO.P,U38,10,C*%
%TO.N,Net-(U33-~{Q0})*%
X43850000Y-93380000D03*
%TO.P,U38,11,~{LOAD}*%
%TO.N,Net-(U38-~{LOAD})*%
X41310000Y-93380000D03*
%TO.P,U38,12,~{CO}*%
%TO.N,unconnected-(U38-~{CO}-Pad12)*%
X38770000Y-93380000D03*
%TO.P,U38,13,~{BO}*%
%TO.N,Net-(U24-~{LOAD})*%
X36230000Y-93380000D03*
%TO.P,U38,14,CLR*%
%TO.N,GND*%
X33690000Y-93380000D03*
%TO.P,U38,15,A*%
%TO.N,+5V*%
X31150000Y-93380000D03*
%TO.P,U38,16,VCC*%
X28610000Y-93380000D03*
%TD*%
D13*
%TO.P,U15,1,~{Q0}*%
%TO.N,unconnected-(U15-~{Q0}-Pad1)*%
X112420000Y-50120000D03*
D12*
%TO.P,U15,2,D0*%
%TO.N,Net-(U14-CP1..3)*%
X114960000Y-50120000D03*
%TO.P,U15,3,D1*%
%TO.N,Net-(U14-Q1)*%
X117500000Y-50120000D03*
%TO.P,U15,4,E23*%
%TO.N,Net-(J11-Pin_13)*%
X120040000Y-50120000D03*
%TO.P,U15,5,VCC*%
%TO.N,+5V*%
X122580000Y-50120000D03*
%TO.P,U15,6,D2*%
%TO.N,Net-(U14-Q2)*%
X125120000Y-50120000D03*
%TO.P,U15,7,D3*%
%TO.N,Net-(U14-Q3)*%
X127660000Y-50120000D03*
%TO.P,U15,8,~{Q3}*%
%TO.N,unconnected-(U15-~{Q3}-Pad8)*%
X130200000Y-50120000D03*
%TO.P,U15,9,Q3*%
%TO.N,Net-(U15-Q3)*%
X130200000Y-42500000D03*
%TO.P,U15,10,Q2*%
%TO.N,Net-(U15-Q2)*%
X127660000Y-42500000D03*
%TO.P,U15,11,~{Q2}*%
%TO.N,unconnected-(U15-~{Q2}-Pad11)*%
X125120000Y-42500000D03*
%TO.P,U15,12,GND*%
%TO.N,GND*%
X122580000Y-42500000D03*
%TO.P,U15,13,E01*%
%TO.N,Net-(J11-Pin_13)*%
X120040000Y-42500000D03*
%TO.P,U15,14,~{Q1}*%
%TO.N,unconnected-(U15-~{Q1}-Pad14)*%
X117500000Y-42500000D03*
%TO.P,U15,15,Q1*%
%TO.N,Net-(U15-Q1)*%
X114960000Y-42500000D03*
%TO.P,U15,16,Q0*%
%TO.N,Net-(U15-Q0)*%
X112420000Y-42500000D03*
%TD*%
D11*
%TO.P,C5,1*%
%TO.N,+5V*%
X79200000Y-42450000D03*
%TO.P,C5,2*%
%TO.N,GND*%
X79200000Y-49950000D03*
%TD*%
D13*
%TO.P,U48,1,~{R}*%
%TO.N,+5V*%
X29640000Y-127000000D03*
D12*
%TO.P,U48,2,D*%
%TO.N,Net-(U48A-D)*%
X32180000Y-127000000D03*
%TO.P,U48,3,C*%
%TO.N,Net-(J11-Pin_12)*%
X34720000Y-127000000D03*
%TO.P,U48,4,~{S}*%
%TO.N,+5V*%
X37260000Y-127000000D03*
%TO.P,U48,5,Q*%
%TO.N,Net-(U23A-~{R})*%
X39800000Y-127000000D03*
%TO.P,U48,6,~{Q}*%
%TO.N,unconnected-(U48A-~{Q}-Pad6)*%
X42340000Y-127000000D03*
%TO.P,U48,7,GND*%
%TO.N,GND*%
X44880000Y-127000000D03*
%TO.P,U48,8,~{Q}*%
%TO.N,Net-(U41-I5)*%
X44880000Y-119380000D03*
%TO.P,U48,9,Q*%
%TO.N,unconnected-(U48B-Q-Pad9)*%
X42340000Y-119380000D03*
%TO.P,U48,10,~{S}*%
%TO.N,+5V*%
X39800000Y-119380000D03*
%TO.P,U48,11,C*%
%TO.N,Net-(U41-OEa)*%
X37260000Y-119380000D03*
%TO.P,U48,12,D*%
%TO.N,+5V*%
X34720000Y-119380000D03*
%TO.P,U48,13,~{R}*%
%TO.N,Net-(U23A-~{Q})*%
X32180000Y-119380000D03*
%TO.P,U48,14,VCC*%
%TO.N,+5V*%
X29640000Y-119380000D03*
%TD*%
D13*
%TO.P,U47,1,~{R}*%
%TO.N,+5V*%
X57380000Y-127000000D03*
D12*
%TO.P,U47,2,D*%
%TO.N,Net-(U38-DOWN)*%
X59920000Y-127000000D03*
%TO.P,U47,3,C*%
%TO.N,Net-(J11-Pin_5)*%
X62460000Y-127000000D03*
%TO.P,U47,4,~{S}*%
%TO.N,+5V*%
X65000000Y-127000000D03*
%TO.P,U47,5,Q*%
%TO.N,unconnected-(U47A-Q-Pad5)*%
X67540000Y-127000000D03*
%TO.P,U47,6,~{Q}*%
%TO.N,Net-(U38-DOWN)*%
X70080000Y-127000000D03*
%TO.P,U47,7,GND*%
%TO.N,GND*%
X72620000Y-127000000D03*
%TO.P,U47,8,~{Q}*%
%TO.N,Net-(J17-Pin_11)*%
X72620000Y-119380000D03*
%TO.P,U47,9,Q*%
%TO.N,Net-(U38-~{LOAD})*%
X70080000Y-119380000D03*
%TO.P,U47,10,~{S}*%
%TO.N,+5V*%
X67540000Y-119380000D03*
%TO.P,U47,11,C*%
%TO.N,Net-(U38-DOWN)*%
X65000000Y-119380000D03*
%TO.P,U47,12,D*%
%TO.N,Net-(U31A-~{Q})*%
X62460000Y-119380000D03*
%TO.P,U47,13,~{R}*%
%TO.N,Net-(U37A-~{Q})*%
X59920000Y-119380000D03*
%TO.P,U47,14,VCC*%
%TO.N,+5V*%
X57380000Y-119380000D03*
%TD*%
D13*
%TO.P,U14,1,CP1..3*%
%TO.N,Net-(U14-CP1..3)*%
X142540000Y-50120000D03*
D12*
%TO.P,U14,2,R0(1)*%
%TO.N,Net-(J11-Pin_3)*%
X145080000Y-50120000D03*
%TO.P,U14,3,R0(2)*%
X147620000Y-50120000D03*
%TO.P,U14,4*%
%TO.N,N/C*%
X150160000Y-50120000D03*
%TO.P,U14,5,VCC*%
%TO.N,+5V*%
X152700000Y-50120000D03*
%TO.P,U14,6*%
%TO.N,N/C*%
X155240000Y-50120000D03*
%TO.P,U14,7*%
X157780000Y-50120000D03*
%TO.P,U14,8,Q2*%
%TO.N,Net-(U14-Q2)*%
X157780000Y-42500000D03*
%TO.P,U14,9,Q1*%
%TO.N,Net-(U14-Q1)*%
X155240000Y-42500000D03*
%TO.P,U14,10,GND*%
%TO.N,GND*%
X152700000Y-42500000D03*
%TO.P,U14,11,Q3*%
%TO.N,Net-(U14-Q3)*%
X150160000Y-42500000D03*
%TO.P,U14,12,Q0*%
%TO.N,Net-(U14-CP1..3)*%
X147620000Y-42500000D03*
%TO.P,U14,13*%
%TO.N,N/C*%
X145080000Y-42500000D03*
%TO.P,U14,14,CP0*%
%TO.N,Net-(U14-CP0)*%
X142540000Y-42500000D03*
%TD*%
D13*
%TO.P,U31,1,~{R}*%
%TO.N,+5V*%
X230000000Y-101000000D03*
D12*
%TO.P,U31,2,D*%
%TO.N,Net-(U31A-D)*%
X232540000Y-101000000D03*
%TO.P,U31,3,C*%
%TO.N,Net-(J11-Pin_11)*%
X235080000Y-101000000D03*
%TO.P,U31,4,~{S}*%
%TO.N,Net-(U23B-~{Q})*%
X237620000Y-101000000D03*
%TO.P,U31,5,Q*%
%TO.N,unconnected-(U31A-Q-Pad5)*%
X240160000Y-101000000D03*
%TO.P,U31,6,~{Q}*%
%TO.N,Net-(U31A-~{Q})*%
X242700000Y-101000000D03*
%TO.P,U31,7,GND*%
%TO.N,GND*%
X245240000Y-101000000D03*
%TO.P,U31,8,~{Q}*%
%TO.N,unconnected-(U31B-~{Q}-Pad8)*%
X245240000Y-93380000D03*
%TO.P,U31,9,Q*%
%TO.N,Net-(U23A-C)*%
X242700000Y-93380000D03*
%TO.P,U31,10,~{S}*%
%TO.N,Net-(U23B-~{Q})*%
X240160000Y-93380000D03*
%TO.P,U31,11,C*%
%TO.N,Net-(J11-Pin_11)*%
X237620000Y-93380000D03*
%TO.P,U31,12,D*%
%TO.N,Net-(U31B-D)*%
X235080000Y-93380000D03*
%TO.P,U31,13,~{R}*%
%TO.N,+5V*%
X232540000Y-93380000D03*
%TO.P,U31,14,VCC*%
X230000000Y-93380000D03*
%TD*%
D11*
%TO.P,C8,1*%
%TO.N,+5V*%
X253700000Y-71000000D03*
%TO.P,C8,2*%
%TO.N,GND*%
X261200000Y-71000000D03*
%TD*%
D16*
%TO.P,P1,51,+8_V*%
%TO.N,+8V*%
X53467000Y-152781000D03*
D17*
%TO.P,P1,52,-16_V*%
%TO.N,-16V*%
X57150000Y-152781000D03*
%TO.P,P1,53,0_V3*%
%TO.N,unconnected-(P1-0_V3-Pad53)*%
X60325000Y-152781000D03*
%TO.P,P1,54,SLAVE_CLR\u002A*%
%TO.N,unconnected-(P1-SLAVE_CLR\u002A-Pad54)*%
X63500000Y-152781000D03*
%TO.P,P1,55,TMA0\u002A*%
%TO.N,unconnected-(P1-TMA0\u002A-Pad55)*%
X66675000Y-152781000D03*
%TO.P,P1,56,TMA1\u002A*%
%TO.N,unconnected-(P1-TMA1\u002A-Pad56)*%
X69850000Y-152781000D03*
%TO.P,P1,57,TMA2\u002A*%
%TO.N,unconnected-(P1-TMA2\u002A-Pad57)*%
X73025000Y-152781000D03*
%TO.P,P1,58,sXTRQ\u002A*%
%TO.N,unconnected-(P1-sXTRQ\u002A-Pad58)*%
X76200000Y-152781000D03*
%TO.P,P1,59,A19*%
%TO.N,unconnected-(P1-A19-Pad59)*%
X79375000Y-152781000D03*
%TO.P,P1,60,SIXTN\u002A*%
%TO.N,unconnected-(P1-SIXTN\u002A-Pad60)*%
X82550000Y-152781000D03*
%TO.P,P1,61,A20*%
%TO.N,unconnected-(P1-A20-Pad61)*%
X85725000Y-152781000D03*
%TO.P,P1,62,A21*%
%TO.N,unconnected-(P1-A21-Pad62)*%
X88900000Y-152781000D03*
%TO.P,P1,63,A22*%
%TO.N,unconnected-(P1-A22-Pad63)*%
X92075000Y-152781000D03*
%TO.P,P1,64,A23*%
%TO.N,unconnected-(P1-A23-Pad64)*%
X95250000Y-152781000D03*
%TO.P,P1,65,NDEF2*%
%TO.N,unconnected-(P1-NDEF2-Pad65)*%
X98425000Y-152781000D03*
%TO.P,P1,66,NDEF3*%
%TO.N,unconnected-(P1-NDEF3-Pad66)*%
X101600000Y-152781000D03*
%TO.P,P1,67,PHANTOM\u002A*%
%TO.N,unconnected-(P1-PHANTOM\u002A-Pad67)*%
X104775000Y-152781000D03*
%TO.P,P1,68,MWRT*%
%TO.N,unconnected-(P1-MWRT-Pad68)*%
X107950000Y-152781000D03*
%TO.P,P1,69,RFU3*%
%TO.N,unconnected-(P1-RFU3-Pad69)*%
X111125000Y-152781000D03*
%TO.P,P1,70,0_V4*%
%TO.N,unconnected-(P1-0_V4-Pad70)*%
X114300000Y-152781000D03*
%TO.P,P1,71,RFU4*%
%TO.N,unconnected-(P1-RFU4-Pad71)*%
X117475000Y-152781000D03*
%TO.P,P1,72,RDY*%
%TO.N,unconnected-(P1-RDY-Pad72)*%
X120650000Y-152781000D03*
%TO.P,P1,73,INT\u002A*%
%TO.N,PINT*%
X123825000Y-152781000D03*
%TO.P,P1,74,HOLD\u002A*%
%TO.N,unconnected-(P1-HOLD\u002A-Pad74)*%
X127000000Y-152781000D03*
%TO.P,P1,75,RESET\u002A*%
%TO.N,PRESET*%
X130175000Y-152781000D03*
%TO.P,P1,76,pSYNC*%
%TO.N,PSYNC*%
X133350000Y-152781000D03*
%TO.P,P1,77,pWR\u002A*%
%TO.N,unconnected-(P1-pWR\u002A-Pad77)*%
X136525000Y-152781000D03*
%TO.P,P1,78,pDBIN*%
%TO.N,unconnected-(P1-pDBIN-Pad78)*%
X139700000Y-152781000D03*
%TO.P,P1,79,A0*%
%TO.N,unconnected-(P1-A0-Pad79)*%
X142875000Y-152781000D03*
%TO.P,P1,80,A1*%
%TO.N,unconnected-(P1-A1-Pad80)*%
X146050000Y-152781000D03*
%TO.P,P1,81,A2*%
%TO.N,unconnected-(P1-A2-Pad81)*%
X149225000Y-152781000D03*
%TO.P,P1,82,A6*%
%TO.N,unconnected-(P1-A6-Pad82)*%
X152400000Y-152781000D03*
%TO.P,P1,83,A7*%
%TO.N,A7*%
X155575000Y-152781000D03*
%TO.P,P1,84,A8*%
%TO.N,A8*%
X158750000Y-152781000D03*
%TO.P,P1,85,A13*%
%TO.N,A13*%
X161925000Y-152781000D03*
%TO.P,P1,86,A14*%
%TO.N,A14*%
X165100000Y-152781000D03*
%TO.P,P1,87,A11*%
%TO.N,A11*%
X168275000Y-152781000D03*
%TO.P,P1,88,DO2*%
%TO.N,D02*%
X171450000Y-152781000D03*
%TO.P,P1,89,DO3*%
%TO.N,D03*%
X174625000Y-152781000D03*
%TO.P,P1,90,DO7*%
%TO.N,D07*%
X177800000Y-152781000D03*
%TO.P,P1,91,DI4*%
%TO.N,unconnected-(P1-DI4-Pad91)*%
X180975000Y-152781000D03*
%TO.P,P1,92,DI5*%
%TO.N,unconnected-(P1-DI5-Pad92)*%
X184150000Y-152781000D03*
%TO.P,P1,93,DI6*%
%TO.N,D16*%
X187325000Y-152781000D03*
%TO.P,P1,94,DI1*%
%TO.N,D11*%
X190500000Y-152781000D03*
%TO.P,P1,95,DI0*%
%TO.N,D10*%
X193675000Y-152781000D03*
%TO.P,P1,96,sINTA*%
%TO.N,unconnected-(P1-sINTA-Pad96)*%
X196850000Y-152781000D03*
%TO.P,P1,97,sWO\u002A*%
%TO.N,unconnected-(P1-sWO\u002A-Pad97)*%
X200025000Y-152781000D03*
%TO.P,P1,98,ERROR\u002A*%
%TO.N,unconnected-(P1-ERROR\u002A-Pad98)*%
X203200000Y-152781000D03*
%TO.P,P1,99,POC\u002A*%
%TO.N,unconnected-(P1-POC\u002A-Pad99)*%
X206375000Y-152781000D03*
D16*
%TO.P,P1,100,0_V5*%
%TO.N,GND*%
X210058000Y-152781000D03*
%TD*%
D11*
%TO.P,C4,1*%
%TO.N,+5V*%
X51100000Y-68550000D03*
%TO.P,C4,2*%
%TO.N,GND*%
X51100000Y-76050000D03*
%TD*%
D13*
%TO.P,U25,1,A4*%
%TO.N,Net-(U15-Q3)*%
X112420000Y-76000000D03*
D12*
%TO.P,U25,2,S3*%
%TO.N,Net-(U25-S3)*%
X114960000Y-76000000D03*
%TO.P,U25,3,A3*%
%TO.N,Net-(U15-Q2)*%
X117500000Y-76000000D03*
%TO.P,U25,4,B3*%
%TO.N,Net-(U25-B3)*%
X120040000Y-76000000D03*
%TO.P,U25,5,VCC*%
%TO.N,+5V*%
X122580000Y-76000000D03*
%TO.P,U25,6,S2*%
%TO.N,Net-(U25-S2)*%
X125120000Y-76000000D03*
%TO.P,U25,7,B2*%
%TO.N,Net-(U25-B2)*%
X127660000Y-76000000D03*
%TO.P,U25,8,A2*%
%TO.N,Net-(U15-Q1)*%
X130200000Y-76000000D03*
%TO.P,U25,9,S1*%
%TO.N,Net-(U25-S1)*%
X130200000Y-68380000D03*
%TO.P,U25,10,A1*%
%TO.N,Net-(U15-Q0)*%
X127660000Y-68380000D03*
%TO.P,U25,11,B1*%
%TO.N,Net-(U25-B1)*%
X125120000Y-68380000D03*
%TO.P,U25,12,GND*%
%TO.N,GND*%
X122580000Y-68380000D03*
%TO.P,U25,13,C0*%
X120040000Y-68380000D03*
%TO.P,U25,14,C4*%
%TO.N,Net-(U25-C4)*%
X117500000Y-68380000D03*
%TO.P,U25,15,S4*%
%TO.N,Net-(U25-S4)*%
X114960000Y-68380000D03*
%TO.P,U25,16,B4*%
%TO.N,Net-(U25-B4)*%
X112420000Y-68380000D03*
%TD*%
D13*
%TO.P,U28,1,CP1..3*%
%TO.N,Net-(J11-Pin_15)*%
X29800000Y-76000000D03*
D12*
%TO.P,U28,2,R0(1)*%
%TO.N,Net-(J11-Pin_3)*%
X32340000Y-76000000D03*
%TO.P,U28,3,R0(2)*%
X34880000Y-76000000D03*
%TO.P,U28,4*%
%TO.N,N/C*%
X37420000Y-76000000D03*
%TO.P,U28,5,VCC*%
%TO.N,+5V*%
X39960000Y-76000000D03*
%TO.P,U28,6*%
%TO.N,N/C*%
X42500000Y-76000000D03*
%TO.P,U28,7*%
X45040000Y-76000000D03*
%TO.P,U28,8,Q2*%
%TO.N,Net-(U28-Q2)*%
X45040000Y-68380000D03*
%TO.P,U28,9,Q1*%
%TO.N,Net-(U28-Q1)*%
X42500000Y-68380000D03*
%TO.P,U28,10,GND*%
%TO.N,GND*%
X39960000Y-68380000D03*
%TO.P,U28,11,Q3*%
%TO.N,Net-(U28-Q3)*%
X37420000Y-68380000D03*
%TO.P,U28,12,Q0*%
%TO.N,unconnected-(U28-Q0-Pad12)*%
X34880000Y-68380000D03*
%TO.P,U28,13*%
%TO.N,N/C*%
X32340000Y-68380000D03*
%TO.P,U28,14,CP0*%
%TO.N,unconnected-(U28-CP0-Pad14)*%
X29800000Y-68380000D03*
%TD*%
D13*
%TO.P,U33,1,~{Q0}*%
%TO.N,Net-(U33-~{Q0})*%
X168730000Y-101000000D03*
D12*
%TO.P,U33,2,D0*%
%TO.N,Net-(U33-D0)*%
X171270000Y-101000000D03*
%TO.P,U33,3,D1*%
%TO.N,Net-(U33-D1)*%
X173810000Y-101000000D03*
%TO.P,U33,4,E23*%
%TO.N,Net-(J11-Pin_10)*%
X176350000Y-101000000D03*
%TO.P,U33,5,VCC*%
%TO.N,+5V*%
X178890000Y-101000000D03*
%TO.P,U33,6,D2*%
%TO.N,Net-(U33-D2)*%
X181430000Y-101000000D03*
%TO.P,U33,7,D3*%
%TO.N,Net-(U33-D3)*%
X183970000Y-101000000D03*
%TO.P,U33,8,~{Q3}*%
%TO.N,Net-(U12-S0)*%
X186510000Y-101000000D03*
%TO.P,U33,9,Q3*%
%TO.N,unconnected-(U33-Q3-Pad9)*%
X186510000Y-93380000D03*
%TO.P,U33,10,Q2*%
%TO.N,unconnected-(U33-Q2-Pad10)*%
X183970000Y-93380000D03*
%TO.P,U33,11,~{Q2}*%
%TO.N,Net-(U12-S1)*%
X181430000Y-93380000D03*
%TO.P,U33,12,GND*%
%TO.N,GND*%
X178890000Y-93380000D03*
%TO.P,U33,13,E01*%
%TO.N,Net-(J11-Pin_11)*%
X176350000Y-93380000D03*
%TO.P,U33,14,~{Q1}*%
%TO.N,Net-(U33-~{Q1})*%
X173810000Y-93380000D03*
%TO.P,U33,15,Q1*%
%TO.N,unconnected-(U33-Q1-Pad15)*%
X171270000Y-93380000D03*
%TO.P,U33,16,Q0*%
%TO.N,unconnected-(U33-Q0-Pad16)*%
X168730000Y-93380000D03*
%TD*%
D13*
%TO.P,J17,1,Pin_1*%
%TO.N,GND*%
X55880000Y-50000000D03*
D12*
%TO.P,J17,2,Pin_2*%
%TO.N,Net-(J17-Pin_2)*%
X58420000Y-50000000D03*
%TO.P,J17,3,Pin_3*%
%TO.N,Net-(J11-Pin_14)*%
X60960000Y-50000000D03*
%TO.P,J17,4,Pin_4*%
%TO.N,+16V*%
X63500000Y-50000000D03*
%TO.P,J17,5,Pin_5*%
%TO.N,unconnected-(J17-Pin_5-Pad5)*%
X66040000Y-50000000D03*
%TO.P,J17,6,Pin_6*%
%TO.N,Net-(J17-Pin_6)*%
X68580000Y-50000000D03*
%TO.P,J17,7,Pin_7*%
%TO.N,Net-(J17-Pin_7)*%
X71120000Y-50000000D03*
%TO.P,J17,8,Pin_8*%
%TO.N,-16V*%
X73660000Y-50000000D03*
%TO.P,J17,9,Pin_9*%
%TO.N,unconnected-(J17-Pin_9-Pad9)*%
X73660000Y-42380000D03*
%TO.P,J17,10,Pin_10*%
%TO.N,Net-(J17-Pin_10)*%
X71120000Y-42380000D03*
%TO.P,J17,11,Pin_11*%
%TO.N,Net-(J17-Pin_11)*%
X68580000Y-42380000D03*
%TO.P,J17,12,Pin_12*%
%TO.N,Net-(J17-Pin_12)*%
X66040000Y-42380000D03*
%TO.P,J17,13,Pin_13*%
%TO.N,Net-(J17-Pin_13)*%
X63500000Y-42380000D03*
%TO.P,J17,14,Pin_14*%
%TO.N,Net-(J17-Pin_14)*%
X60960000Y-42380000D03*
%TO.P,J17,15,Pin_15*%
%TO.N,Net-(J17-Pin_15)*%
X58420000Y-42380000D03*
%TO.P,J17,16,Pin_16*%
%TO.N,unconnected-(J17-Pin_16-Pad16)*%
X55880000Y-42380000D03*
%TD*%
D13*
%TO.P,U42,1*%
%TO.N,unconnected-(U42-Pad1)*%
X199760000Y-127000000D03*
D12*
%TO.P,U42,2*%
%TO.N,unconnected-(U42-Pad2)*%
X202300000Y-127000000D03*
%TO.P,U42,3*%
%TO.N,D02*%
X204840000Y-127000000D03*
%TO.P,U42,4*%
%TO.N,Net-(U32-D1)*%
X207380000Y-127000000D03*
%TO.P,U42,5*%
%TO.N,D03*%
X209920000Y-127000000D03*
%TO.P,U42,6*%
%TO.N,Net-(U32-D0)*%
X212460000Y-127000000D03*
%TO.P,U42,7,GND*%
%TO.N,GND*%
X215000000Y-127000000D03*
%TO.P,U42,8*%
%TO.N,Net-(U31A-D)*%
X215000000Y-119380000D03*
%TO.P,U42,9*%
%TO.N,D07*%
X212460000Y-119380000D03*
%TO.P,U42,10*%
%TO.N,Net-(U31B-D)*%
X209920000Y-119380000D03*
%TO.P,U42,11*%
%TO.N,D06*%
X207380000Y-119380000D03*
%TO.P,U42,12*%
%TO.N,unconnected-(U42-Pad12)*%
X204840000Y-119380000D03*
%TO.P,U42,13*%
%TO.N,unconnected-(U42-Pad13)*%
X202300000Y-119380000D03*
%TO.P,U42,14,VCC*%
%TO.N,+5V*%
X199760000Y-119380000D03*
%TD*%
D13*
%TO.P,U26,1,A4*%
%TO.N,GND*%
X83610000Y-76000000D03*
D12*
%TO.P,U26,2,S3*%
%TO.N,Net-(U26-S3)*%
X86150000Y-76000000D03*
%TO.P,U26,3,A3*%
%TO.N,GND*%
X88690000Y-76000000D03*
%TO.P,U26,4,B3*%
%TO.N,Net-(U26-B3)*%
X91230000Y-76000000D03*
%TO.P,U26,5,VCC*%
%TO.N,+5V*%
X93770000Y-76000000D03*
%TO.P,U26,6,S2*%
%TO.N,Net-(U26-S2)*%
X96310000Y-76000000D03*
%TO.P,U26,7,B2*%
%TO.N,Net-(U26-B2)*%
X98850000Y-76000000D03*
%TO.P,U26,8,A2*%
%TO.N,GND*%
X101390000Y-76000000D03*
%TO.P,U26,9,S1*%
%TO.N,Net-(U26-S1)*%
X101390000Y-68380000D03*
%TO.P,U26,10,A1*%
%TO.N,GND*%
X98850000Y-68380000D03*
%TO.P,U26,11,B1*%
%TO.N,Net-(U26-B1)*%
X96310000Y-68380000D03*
%TO.P,U26,12,GND*%
%TO.N,GND*%
X93770000Y-68380000D03*
%TO.P,U26,13,C0*%
%TO.N,Net-(U25-C4)*%
X91230000Y-68380000D03*
%TO.P,U26,14,C4*%
%TO.N,Net-(U26-C4)*%
X88690000Y-68380000D03*
%TO.P,U26,15,S4*%
%TO.N,Net-(U26-S4)*%
X86150000Y-68380000D03*
%TO.P,U26,16,B4*%
%TO.N,Net-(U26-B4)*%
X83610000Y-68380000D03*
%TD*%
D13*
%TO.P,U23,1,~{R}*%
%TO.N,Net-(U23A-~{R})*%
X170000000Y-76000000D03*
D12*
%TO.P,U23,2,D*%
%TO.N,+5V*%
X172540000Y-76000000D03*
%TO.P,U23,3,C*%
%TO.N,Net-(U23A-C)*%
X175080000Y-76000000D03*
%TO.P,U23,4,~{S}*%
%TO.N,+5V*%
X177620000Y-76000000D03*
%TO.P,U23,5,Q*%
%TO.N,Net-(U23A-Q)*%
X180160000Y-76000000D03*
%TO.P,U23,6,~{Q}*%
%TO.N,Net-(U23A-~{Q})*%
X182700000Y-76000000D03*
%TO.P,U23,7,GND*%
%TO.N,GND*%
X185240000Y-76000000D03*
%TO.P,U23,8,~{Q}*%
%TO.N,Net-(U23B-~{Q})*%
X185240000Y-68380000D03*
%TO.P,U23,9,Q*%
%TO.N,unconnected-(U23B-Q-Pad9)*%
X182700000Y-68380000D03*
%TO.P,U23,10,~{S}*%
%TO.N,PRESET*%
X180160000Y-68380000D03*
%TO.P,U23,11,C*%
%TO.N,Net-(U23B-C)*%
X177620000Y-68380000D03*
%TO.P,U23,12,D*%
%TO.N,+5V*%
X175080000Y-68380000D03*
%TO.P,U23,13,~{R}*%
%TO.N,Net-(U23B-~{R})*%
X172540000Y-68380000D03*
%TO.P,U23,14,VCC*%
%TO.N,+5V*%
X170000000Y-68380000D03*
%TD*%
D13*
%TO.P,U44,1,OEa*%
%TO.N,Net-(J11-Pin_7)*%
X140990000Y-127000000D03*
D12*
%TO.P,U44,2,I1*%
%TO.N,Net-(U25-S1)*%
X143530000Y-127000000D03*
%TO.P,U44,3,O1a*%
%TO.N,A7*%
X146070000Y-127000000D03*
%TO.P,U44,4,I2*%
%TO.N,Net-(U25-S4)*%
X148610000Y-127000000D03*
%TO.P,U44,5,O2a*%
%TO.N,A10*%
X151150000Y-127000000D03*
%TO.P,U44,6,I3*%
%TO.N,Net-(U25-S3)*%
X153690000Y-127000000D03*
%TO.P,U44,7,O3a*%
%TO.N,A9*%
X156230000Y-127000000D03*
%TO.P,U44,8,GND*%
%TO.N,GND*%
X158770000Y-127000000D03*
%TO.P,U44,9,O4a*%
%TO.N,A8*%
X158770000Y-119380000D03*
%TO.P,U44,10,I4*%
%TO.N,Net-(U25-S2)*%
X156230000Y-119380000D03*
%TO.P,U44,11,O5b*%
%TO.N,unconnected-(U44-O5b-Pad11)*%
X153690000Y-119380000D03*
%TO.P,U44,12,I5*%
%TO.N,Net-(U33-~{Q0})*%
X151150000Y-119380000D03*
%TO.P,U44,13,O6b*%
%TO.N,unconnected-(U44-O6b-Pad13)*%
X148610000Y-119380000D03*
%TO.P,U44,14,I6*%
%TO.N,Net-(U33-~{Q1})*%
X146070000Y-119380000D03*
%TO.P,U44,15,OEb*%
%TO.N,Net-(J11-Pin_7)*%
X143530000Y-119380000D03*
%TO.P,U44,16,VCC*%
%TO.N,+5V*%
X140990000Y-119380000D03*
%TD*%
D13*
%TO.P,U13,1*%
%TO.N,Net-(J11-Pin_2)*%
X170000000Y-50120000D03*
D12*
%TO.P,U13,2*%
%TO.N,Net-(U13-Pad11)*%
X172540000Y-50120000D03*
%TO.P,U13,3*%
%TO.N,Net-(U14-CP0)*%
X175080000Y-50120000D03*
%TO.P,U13,4*%
%TO.N,Net-(U13-Pad11)*%
X177620000Y-50120000D03*
%TO.P,U13,5*%
%TO.N,Net-(J11-Pin_13)*%
X180160000Y-50120000D03*
%TO.P,U13,6*%
%TO.N,Net-(J11-Pin_1)*%
X182700000Y-50120000D03*
%TO.P,U13,7,GND*%
%TO.N,GND*%
X185240000Y-50120000D03*
%TO.P,U13,8*%
%TO.N,unconnected-(U13-Pad8)*%
X185240000Y-42500000D03*
%TO.P,U13,9*%
%TO.N,unconnected-(U13-Pad9)*%
X182700000Y-42500000D03*
%TO.P,U13,10*%
%TO.N,unconnected-(U13-Pad10)*%
X180160000Y-42500000D03*
%TO.P,U13,11*%
%TO.N,Net-(U13-Pad11)*%
X177620000Y-42500000D03*
%TO.P,U13,12*%
%TO.N,Net-(U12-~{Q})*%
X175080000Y-42500000D03*
%TO.P,U13,13*%
%TO.N,Net-(U37B-Q)*%
X172540000Y-42500000D03*
%TO.P,U13,14,VCC*%
%TO.N,+5V*%
X170000000Y-42500000D03*
%TD*%
D13*
%TO.P,U27,1*%
%TO.N,Net-(J17-Pin_11)*%
X57260000Y-76000000D03*
D12*
%TO.P,U27,2*%
X59800000Y-76000000D03*
%TO.P,U27,3*%
%TO.N,N/C*%
X62340000Y-76000000D03*
%TO.P,U27,4*%
%TO.N,Net-(J17-Pin_10)*%
X64880000Y-76000000D03*
%TO.P,U27,5*%
X67420000Y-76000000D03*
%TO.P,U27,6*%
%TO.N,Net-(J17-Pin_7)*%
X69960000Y-76000000D03*
%TO.P,U27,7,GND*%
%TO.N,GND*%
X72500000Y-76000000D03*
%TO.P,U27,8*%
%TO.N,Net-(U16-Pad11)*%
X72500000Y-68380000D03*
%TO.P,U27,9*%
%TO.N,Net-(J11-Pin_15)*%
X69960000Y-68380000D03*
%TO.P,U27,10*%
%TO.N,Net-(U28-Q3)*%
X67420000Y-68380000D03*
%TO.P,U27,11*%
%TO.N,N/C*%
X64880000Y-68380000D03*
%TO.P,U27,12*%
%TO.N,Net-(U28-Q1)*%
X62340000Y-68380000D03*
%TO.P,U27,13*%
%TO.N,Net-(U28-Q2)*%
X59800000Y-68380000D03*
%TO.P,U27,14,VCC*%
%TO.N,+5V*%
X57260000Y-68380000D03*
%TD*%
%TO.P,C11,1*%
%TO.N,+5V*%
X23500000Y-124200000D03*
%TO.P,C11,2*%
%TO.N,GND*%
X23500000Y-99200000D03*
%TD*%
D18*
%TO.P,U18,1,IN*%
%TO.N,+8V*%
X27560000Y-62467500D03*
D19*
%TO.P,U18,2,GND*%
%TO.N,GND*%
X30100000Y-60267500D03*
%TO.P,U18,3,OUT*%
%TO.N,+5V*%
X32640000Y-62467500D03*
%TD*%
D13*
%TO.P,U22,1*%
%TO.N,Net-(U12-I3)*%
X200000000Y-76000000D03*
D12*
%TO.P,U22,2*%
%TO.N,Net-(U22-Pad2)*%
X202540000Y-76000000D03*
%TO.P,U22,3*%
X205080000Y-76000000D03*
%TO.P,U22,4*%
X207620000Y-76000000D03*
%TO.P,U22,5*%
%TO.N,Net-(U12-I2)*%
X210160000Y-76000000D03*
%TO.P,U22,6*%
%TO.N,Net-(U21-Q3)*%
X212700000Y-76000000D03*
%TO.P,U22,7,GND*%
%TO.N,GND*%
X215240000Y-76000000D03*
%TO.P,U22,8*%
%TO.N,Net-(U12-I1)*%
X215240000Y-68380000D03*
%TO.P,U22,9*%
%TO.N,Net-(U21-Q2)*%
X212700000Y-68380000D03*
%TO.P,U22,10*%
%TO.N,Net-(U22-Pad10)*%
X210160000Y-68380000D03*
%TO.P,U22,11*%
X207620000Y-68380000D03*
%TO.P,U22,12*%
X205080000Y-68380000D03*
%TO.P,U22,13*%
%TO.N,Net-(U12-I2)*%
X202540000Y-68380000D03*
%TO.P,U22,14,VCC*%
%TO.N,+5V*%
X200000000Y-68380000D03*
%TD*%
D13*
%TO.P,U37,1,~{R}*%
%TO.N,Net-(U31A-~{Q})*%
X57340000Y-101000000D03*
D12*
%TO.P,U37,2,D*%
%TO.N,+5V*%
X59880000Y-101000000D03*
%TO.P,U37,3,C*%
%TO.N,Net-(U24-~{LOAD})*%
X62420000Y-101000000D03*
%TO.P,U37,4,~{S}*%
%TO.N,+5V*%
X64960000Y-101000000D03*
%TO.P,U37,5,Q*%
%TO.N,Net-(U23B-~{R})*%
X67500000Y-101000000D03*
%TO.P,U37,6,~{Q}*%
%TO.N,Net-(U37A-~{Q})*%
X70040000Y-101000000D03*
%TO.P,U37,7,GND*%
%TO.N,GND*%
X72580000Y-101000000D03*
%TO.P,U37,8,~{Q}*%
%TO.N,unconnected-(U37B-~{Q}-Pad8)*%
X72580000Y-93380000D03*
%TO.P,U37,9,Q*%
%TO.N,Net-(U37B-Q)*%
X70040000Y-93380000D03*
%TO.P,U37,10,~{S}*%
%TO.N,+5V*%
X67500000Y-93380000D03*
%TO.P,U37,11,C*%
%TO.N,Net-(U12-I1)*%
X64960000Y-93380000D03*
%TO.P,U37,12,D*%
%TO.N,Net-(U23B-~{R})*%
X62420000Y-93380000D03*
%TO.P,U37,13,~{R}*%
%TO.N,Net-(U31A-~{Q})*%
X59880000Y-93380000D03*
%TO.P,U37,14,VCC*%
%TO.N,+5V*%
X57340000Y-93380000D03*
%TD*%
D13*
%TO.P,U35,1,~{Q0}*%
%TO.N,Net-(U25-B1)*%
X112420000Y-101000000D03*
D12*
%TO.P,U35,2,D0*%
%TO.N,Net-(U32-D3)*%
X114960000Y-101000000D03*
%TO.P,U35,3,D1*%
%TO.N,Net-(U32-D2)*%
X117500000Y-101000000D03*
%TO.P,U35,4,E23*%
%TO.N,Net-(J11-Pin_9)*%
X120040000Y-101000000D03*
%TO.P,U35,5,VCC*%
%TO.N,+5V*%
X122580000Y-101000000D03*
%TO.P,U35,6,D2*%
%TO.N,Net-(U32-D1)*%
X125120000Y-101000000D03*
%TO.P,U35,7,D3*%
%TO.N,Net-(U32-D0)*%
X127660000Y-101000000D03*
%TO.P,U35,8,~{Q3}*%
%TO.N,Net-(U25-B4)*%
X130200000Y-101000000D03*
%TO.P,U35,9,Q3*%
%TO.N,unconnected-(U35-Q3-Pad9)*%
X130200000Y-93380000D03*
%TO.P,U35,10,Q2*%
%TO.N,unconnected-(U35-Q2-Pad10)*%
X127660000Y-93380000D03*
%TO.P,U35,11,~{Q2}*%
%TO.N,Net-(U25-B3)*%
X125120000Y-93380000D03*
%TO.P,U35,12,GND*%
%TO.N,GND*%
X122580000Y-93380000D03*
%TO.P,U35,13,E01*%
%TO.N,Net-(J11-Pin_9)*%
X120040000Y-93380000D03*
%TO.P,U35,14,~{Q1}*%
%TO.N,Net-(U25-B2)*%
X117500000Y-93380000D03*
%TO.P,U35,15,Q1*%
%TO.N,unconnected-(U35-Q1-Pad15)*%
X114960000Y-93380000D03*
%TO.P,U35,16,Q0*%
%TO.N,unconnected-(U35-Q0-Pad16)*%
X112420000Y-93380000D03*
%TD*%
D13*
%TO.P,U24,1,B*%
%TO.N,Net-(U24-B)*%
X141230000Y-76000000D03*
D12*
%TO.P,U24,2,QB*%
%TO.N,unconnected-(U24-QB-Pad2)*%
X143770000Y-76000000D03*
%TO.P,U24,3,QA*%
%TO.N,unconnected-(U24-QA-Pad3)*%
X146310000Y-76000000D03*
%TO.P,U24,4,DOWN*%
%TO.N,Net-(U24-DOWN)*%
X148850000Y-76000000D03*
%TO.P,U24,5,UP*%
%TO.N,+5V*%
X151390000Y-76000000D03*
%TO.P,U24,6,QC*%
%TO.N,unconnected-(U24-QC-Pad6)*%
X153930000Y-76000000D03*
%TO.P,U24,7,QD*%
%TO.N,unconnected-(U24-QD-Pad7)*%
X156470000Y-76000000D03*
%TO.P,U24,8,GND*%
%TO.N,GND*%
X159010000Y-76000000D03*
%TO.P,U24,9,D*%
%TO.N,Net-(U24-D)*%
X159010000Y-68380000D03*
%TO.P,U24,10,C*%
%TO.N,Net-(U24-C)*%
X156470000Y-68380000D03*
%TO.P,U24,11,~{LOAD}*%
%TO.N,Net-(U24-~{LOAD})*%
X153930000Y-68380000D03*
%TO.P,U24,12,~{CO}*%
%TO.N,unconnected-(U24-~{CO}-Pad12)*%
X151390000Y-68380000D03*
%TO.P,U24,13,~{BO}*%
%TO.N,Net-(U23B-C)*%
X148850000Y-68380000D03*
%TO.P,U24,14,CLR*%
%TO.N,GND*%
X146310000Y-68380000D03*
%TO.P,U24,15,A*%
%TO.N,Net-(U24-A)*%
X143770000Y-68380000D03*
%TO.P,U24,16,VCC*%
%TO.N,+5V*%
X141230000Y-68380000D03*
%TD*%
D20*
%TO.N,+8V*%
X53500000Y-149000000D03*
%TO.N,GND*%
X95900000Y-98200000D03*
X181000000Y-98200000D03*
X211000000Y-98200000D03*
X242330000Y-73025000D03*
X147100000Y-73000000D03*
X124700000Y-98200000D03*
X153500000Y-98200000D03*
X120000000Y-73000000D03*
X35600000Y-98200000D03*
X124730000Y-47325000D03*
X26600000Y-73000000D03*
X72400000Y-73000000D03*
X208800000Y-47300000D03*
X154830000Y-47325000D03*
X42300000Y-73000000D03*
D21*
%TO.N,PSYNC*%
X131950000Y-144500000D03*
X99538600Y-117803000D03*
D20*
%TO.N,+5V*%
X150000000Y-96200000D03*
X151400000Y-71000000D03*
X38600000Y-71000000D03*
X238830000Y-71025000D03*
X92400000Y-96200000D03*
X177500000Y-96200000D03*
X121230000Y-45325000D03*
X121200000Y-96200000D03*
X207500000Y-96200000D03*
X38700000Y-96200000D03*
X91700000Y-71000000D03*
X124400000Y-71000000D03*
X151330000Y-45325000D03*
D21*
%TO.N,Net-(J11-Pin_12)*%
X57269500Y-77430300D03*
X229231000Y-60882000D03*
X49982500Y-95053100D03*
X234023000Y-48405800D03*
%TO.N,Net-(J11-Pin_11)*%
X235052000Y-74137100D03*
X236034000Y-69861300D03*
X236578000Y-48438700D03*
%TO.N,Net-(J11-Pin_1)*%
X222982000Y-51906500D03*
%TO.N,Net-(J11-Pin_3)*%
X83300000Y-60208400D03*
X59294100Y-74446000D03*
X52088900Y-78367000D03*
X228625000Y-69867600D03*
%TO.N,Net-(J11-Pin_9)*%
X134741000Y-74165200D03*
%TO.N,Net-(J11-Pin_10)*%
X157750000Y-74138700D03*
X160970000Y-69870500D03*
X169606000Y-58038000D03*
%TO.N,Net-(J11-Pin_14)*%
X71256700Y-48438700D03*
%TO.N,Net-(J11-Pin_7)*%
X138145000Y-99947900D03*
%TO.N,Net-(J11-Pin_5)*%
X72053600Y-117944000D03*
X74610500Y-95061300D03*
X78887900Y-99338700D03*
X75261300Y-74145400D03*
%TO.N,Net-(J11-Pin_13)*%
X123978000Y-54210700D03*
X175721000Y-54559100D03*
X234689000Y-44161300D03*
%TO.N,Net-(J11-Pin_6)*%
X192272000Y-120446000D03*
X198113000Y-99338700D03*
X237942000Y-69861300D03*
%TO.N,Net-(J11-Pin_15)*%
X38863100Y-69754200D03*
X80658600Y-65074300D03*
%TO.N,Net-(J11-Pin_2)*%
X226428000Y-69872100D03*
%TO.N,Net-(J17-Pin_15)*%
X200396000Y-78795100D03*
X214227000Y-95061300D03*
X188691000Y-69861300D03*
X85060700Y-46161300D03*
X187936000Y-55741800D03*
%TO.N,Net-(J17-Pin_13)*%
X95147400Y-40098800D03*
X179148000Y-52045000D03*
X193449000Y-78783500D03*
X180677000Y-66878400D03*
%TO.N,Net-(J17-Pin_7)*%
X71091600Y-69861300D03*
D20*
%TO.N,-16V*%
X55200000Y-134200000D03*
D21*
%TO.N,Net-(J17-Pin_11)*%
X59277600Y-64900000D03*
X65216700Y-95061300D03*
X68662300Y-99303900D03*
X50305800Y-48438700D03*
%TO.N,Net-(J17-Pin_14)*%
X202428000Y-78043400D03*
X189207000Y-59282400D03*
X191376000Y-69861300D03*
X83327900Y-45372500D03*
X75653700Y-40481400D03*
%TO.N,Net-(J17-Pin_10)*%
X80687000Y-45899400D03*
X81707200Y-62881200D03*
%TO.N,Net-(J17-Pin_12)*%
X84328200Y-45372600D03*
X156874000Y-84708100D03*
X94704000Y-51693700D03*
X77297000Y-41742600D03*
X155651000Y-77640300D03*
X99992900Y-69861300D03*
%TO.N,D05*%
X181310100Y-125617100D03*
X175853100Y-146589400D03*
%TO.N,PRESET*%
X131439500Y-125696800D03*
X168699900Y-69861300D03*
X164422500Y-74138700D03*
X173543200Y-111777000D03*
X130728700Y-111777000D03*
X170347300Y-92128300D03*
X125665900Y-121161300D03*
X178912800Y-105150000D03*
%TO.N,D12*%
X214010300Y-139067500D03*
%TO.N,A10*%
X158578100Y-145693459D03*
%TO.N,A11*%
X161326000Y-141083900D03*
%TO.N,D13*%
X214086100Y-140054900D03*
X226675700Y-130049700D03*
%TO.N,D04*%
X172597100Y-146589400D03*
%TO.N,D00*%
X167911300Y-147255600D03*
X178770100Y-125617100D03*
%TO.N,D16*%
X233765400Y-125500000D03*
%TO.N,A8*%
X177049800Y-125434400D03*
X163650800Y-119821500D03*
X174691900Y-120904000D03*
%TO.N,D06*%
X202441300Y-131344200D03*
X197010600Y-120027000D03*
X179659650Y-146659650D03*
%TO.N,A14*%
X161001400Y-143506800D03*
%TO.N,D01*%
X166705500Y-146143500D03*
%TO.N,D10*%
X243016400Y-128947400D03*
%TO.N,A13*%
X160197700Y-142755100D03*
%TO.N,D07*%
X180704000Y-131292200D03*
X180700000Y-147100000D03*
X180704000Y-140633500D03*
X202213900Y-120904000D03*
%TO.N,Net-(U23A-Q)*%
X137573000Y-121159000D03*
X134218000Y-102119000D03*
X137573000Y-125433000D03*
%TO.N,Net-(U12-S1)*%
X181430000Y-76744000D03*
X180707000Y-69861300D03*
X193531000Y-48762000D03*
%TO.N,Net-(U12-S0)*%
X211551000Y-48405800D03*
X215784000Y-69861300D03*
%TO.N,Net-(U12-I3)*%
X198861000Y-69858300D03*
%TO.N,Net-(U12-I1)*%
X202654000Y-61370000D03*
X73915900Y-78611500D03*
%TO.N,Net-(U37B-Q)*%
X74309400Y-74109900D03*
X148672000Y-58928700D03*
X164689000Y-44161300D03*
X154248000Y-48572500D03*
%TO.N,Net-(U14-CP1..3)*%
X110187000Y-44185200D03*
%TO.N,Net-(U15-Q3)*%
X106008000Y-68696500D03*
X111900000Y-48438700D03*
%TO.N,Net-(U15-Q0)*%
X121233000Y-48438700D03*
%TO.N,Net-(U15-Q1)*%
X125516000Y-48438700D03*
X128012000Y-69892100D03*
%TO.N,Net-(U15-Q2)*%
X110824000Y-69540100D03*
X115523000Y-48405800D03*
%TO.N,Net-(U24-DOWN)*%
X105761000Y-69861300D03*
X101403000Y-51511200D03*
X95521700Y-44177100D03*
%TO.N,Net-(U24-~{LOAD})*%
X56334800Y-78242500D03*
X80882100Y-69892600D03*
X44025400Y-99338700D03*
X128894000Y-54962400D03*
%TO.N,Net-(U23B-~{Q})*%
X207399000Y-79546800D03*
%TO.N,Net-(U23B-~{R})*%
X69136800Y-86663200D03*
%TO.N,Net-(U23A-~{R})*%
X60724900Y-88235400D03*
X52075700Y-95070500D03*
%TO.N,Net-(U23A-~{Q})*%
X56334500Y-113815000D03*
X176232000Y-95061300D03*
X172597000Y-110764000D03*
X177384000Y-99338700D03*
%TO.N,Net-(U24-A)*%
X155015000Y-90450600D03*
X149104000Y-74137100D03*
X147443000Y-69861300D03*
%TO.N,Net-(U24-D)*%
X154802000Y-91489300D03*
X156057000Y-74138700D03*
%TO.N,Net-(U24-C)*%
X145703000Y-78261900D03*
%TO.N,Net-(U25-B1)*%
X118457000Y-77124400D03*
X106436000Y-94268900D03*
%TO.N,Net-(U25-S4)*%
X132711000Y-95066100D03*
X134777000Y-76152200D03*
X134854000Y-99947900D03*
X139859000Y-120820000D03*
%TO.N,Net-(U25-S2)*%
X129462000Y-89108900D03*
X136019000Y-99947900D03*
X141839000Y-114221000D03*
%TO.N,Net-(U25-S1)*%
X134680000Y-95061300D03*
X135446000Y-101478000D03*
X138304000Y-120502000D03*
X135942000Y-75202500D03*
%TO.N,Net-(U25-S3)*%
X118153000Y-88995300D03*
X143192000Y-120904000D03*
X137256000Y-102697000D03*
%TO.N,Net-(U25-B4)*%
X120285000Y-74446000D03*
X120734000Y-89747000D03*
%TO.N,Net-(U26-B3)*%
X95977300Y-79324500D03*
%TO.N,Net-(U26-C4)*%
X82414100Y-74123800D03*
X76419400Y-95061300D03*
X114000000Y-112185000D03*
%TO.N,Net-(U26-S2)*%
X115385000Y-99338700D03*
X107829000Y-95061300D03*
X113727000Y-121074000D03*
%TO.N,Net-(U26-S3)*%
X115816000Y-104264000D03*
X95671700Y-95061300D03*
%TO.N,Net-(U26-B4)*%
X87420000Y-90858200D03*
X86118400Y-74138700D03*
X90750800Y-99338700D03*
%TO.N,Net-(U26-S4)*%
X119285000Y-99338700D03*
X119161000Y-121161000D03*
X107916000Y-80726900D03*
X108726000Y-94647400D03*
%TO.N,Net-(U26-B1)*%
X85647600Y-69861300D03*
X77523100Y-95061300D03*
X84552200Y-78187200D03*
%TO.N,Net-(U26-S1)*%
X111801000Y-108794000D03*
X120420000Y-108794000D03*
X112836000Y-99338700D03*
X109781000Y-93448400D03*
X114060000Y-77794400D03*
%TO.N,Net-(U31A-D)*%
X105869000Y-108019000D03*
%TO.N,Net-(U31A-~{Q})*%
X66095200Y-99350500D03*
X64880100Y-116889000D03*
X241153000Y-121061000D03*
%TO.N,Net-(U31B-D)*%
X102577000Y-107267000D03*
%TO.N,Net-(U32-D0)*%
X194166000Y-113761000D03*
X194166000Y-119066000D03*
X152487000Y-113761000D03*
%TO.N,Net-(U32-D2)*%
X161881000Y-121161000D03*
X197728000Y-114702000D03*
%TO.N,Net-(U32-D1)*%
X193984000Y-120090000D03*
X195369000Y-108891000D03*
X152519000Y-108891000D03*
%TO.N,Net-(U32-D3)*%
X96823400Y-121182000D03*
%TO.N,Net-(U33-~{Q1})*%
X147936000Y-105422000D03*
%TO.N,Net-(U33-~{Q0})*%
X155062000Y-103247000D03*
X56302900Y-90012700D03*
%TO.N,Net-(U33-D3)*%
X187550000Y-120440000D03*
%TO.N,Net-(U37A-~{Q})*%
X70047400Y-115684000D03*
%TO.N,Net-(U38-~{LOAD})*%
X48152100Y-103032000D03*
%TO.N,Net-(U41-OEa)*%
X56343500Y-116699000D03*
X177534000Y-132114000D03*
%TO.N,Net-(U41-I5)*%
X58322600Y-115736000D03*
%TO.N,Net-(U48A-D)*%
X58494100Y-125439000D03*
%TD*%
D22*
%TO.N,GND*%
X259100000Y-124300000D02*
X261200000Y-122200000D01*
X246400000Y-124300000D02*
X259100000Y-124300000D01*
D23*
%TO.N,Net-(U48A-D)*%
X32180000Y-128430000D02*
X32180000Y-127000000D01*
X33250000Y-129500000D02*
X32180000Y-128430000D01*
X51550000Y-129500000D02*
X33250000Y-129500000D01*
X58494100Y-125439000D02*
X55611000Y-125439000D01*
X55611000Y-125439000D02*
X51550000Y-129500000D01*
%TO.N,PSYNC*%
X133350000Y-145200000D02*
X133350000Y-152781000D01*
X132650000Y-144500000D02*
X133350000Y-145200000D01*
X131950000Y-144500000D02*
X132650000Y-144500000D01*
D22*
%TO.N,GND*%
X80350000Y-126900000D02*
X80350000Y-124400000D01*
X80350000Y-124400000D02*
X80250000Y-124300000D01*
X72500000Y-124300000D02*
X80250000Y-124300000D01*
D23*
%TO.N,PHLDA*%
X85740000Y-128560000D02*
X87300000Y-127000000D01*
X76000000Y-128560000D02*
X85740000Y-128560000D01*
D22*
%TO.N,+5V*%
X76000000Y-122200000D02*
X76100000Y-122300000D01*
X76000000Y-118400000D02*
X76000000Y-122200000D01*
X76100000Y-122300000D02*
X76800000Y-122300000D01*
%TO.N,GND*%
X216400000Y-47400000D02*
X216300000Y-47300000D01*
X159100000Y-73000000D02*
X185100000Y-73000000D01*
X51100000Y-76050000D02*
X51100000Y-73100000D01*
X101300000Y-73000000D02*
X120000000Y-73000000D01*
X46390000Y-101000000D02*
X46390000Y-98210000D01*
X72620000Y-124420000D02*
X72500000Y-124300000D01*
X55880000Y-47380000D02*
X55800000Y-47300000D01*
X246510000Y-47310000D02*
X246500000Y-47300000D01*
X36150000Y-73000000D02*
X42300000Y-73000000D01*
X24500000Y-98200000D02*
X35600000Y-98200000D01*
X208800000Y-47300000D02*
X216300000Y-47300000D01*
X206240000Y-42500000D02*
X208780000Y-42500000D01*
X72580000Y-98220000D02*
X72600000Y-98200000D01*
X258625000Y-98200000D02*
X261900000Y-98200000D01*
X216400000Y-50120000D02*
X213860000Y-50120000D01*
D23*
X124730000Y-47325000D02*
X124730000Y-47300000D01*
D22*
X215000000Y-127000000D02*
X215000000Y-124400000D01*
X206240000Y-50120000D02*
X206240000Y-47360000D01*
X100000000Y-127000000D02*
X100000000Y-124300000D01*
D23*
X242355000Y-73000000D02*
X242330000Y-73025000D01*
D22*
X47580000Y-124300000D02*
X44880000Y-127000000D01*
X206240000Y-47360000D02*
X206300000Y-47300000D01*
X201160000Y-42500000D02*
X203700000Y-42500000D01*
X158770000Y-124570000D02*
X158500000Y-124300000D01*
X158770000Y-127000000D02*
X158770000Y-124570000D01*
X245240000Y-98240000D02*
X245200000Y-98200000D01*
X242355000Y-73000000D02*
X263600000Y-73000000D01*
X245200000Y-98200000D02*
X258625000Y-98200000D01*
X181000000Y-98200000D02*
X211000000Y-98200000D01*
X79100000Y-47300000D02*
X99900000Y-47300000D01*
X23500000Y-99200000D02*
X24500000Y-98200000D01*
D23*
X154855000Y-47300000D02*
X154830000Y-47325000D01*
D22*
X124700000Y-98200000D02*
X153500000Y-98200000D01*
X154855000Y-47300000D02*
X185300000Y-47300000D01*
X124730000Y-47300000D02*
X154855000Y-47300000D01*
X100040000Y-47440000D02*
X99900000Y-47300000D01*
X83700000Y-73000000D02*
X72400000Y-73000000D01*
X215100000Y-73000000D02*
X242355000Y-73000000D01*
X153500000Y-98200000D02*
X181000000Y-98200000D01*
X88700000Y-73000000D02*
X83700000Y-73000000D01*
X83610000Y-73090000D02*
X83700000Y-73000000D01*
X72600000Y-98200000D02*
X95900000Y-98200000D01*
X246390000Y-124310000D02*
X246400000Y-124300000D01*
X245240000Y-101000000D02*
X245240000Y-98240000D01*
X185120000Y-127000000D02*
X185120000Y-124520000D01*
X72620000Y-127000000D02*
X72620000Y-124420000D01*
X51100000Y-73100000D02*
X51200000Y-73000000D01*
X46390000Y-98210000D02*
X46400000Y-98200000D01*
X55880000Y-50000000D02*
X55880000Y-47380000D01*
X88690000Y-73010000D02*
X88700000Y-73000000D01*
X147100000Y-73000000D02*
X159100000Y-73000000D01*
D23*
X116096000Y-126471000D02*
X118267000Y-124300000D01*
D22*
X159010000Y-76000000D02*
X159010000Y-73090000D01*
X101390000Y-76000000D02*
X101390000Y-73090000D01*
D23*
X100040000Y-67190000D02*
X98850000Y-68380000D01*
D22*
X203700000Y-42500000D02*
X206240000Y-42500000D01*
X72500000Y-124300000D02*
X47580000Y-124300000D01*
X55880000Y-50000000D02*
X55880000Y-51660000D01*
X185100000Y-73000000D02*
X215100000Y-73000000D01*
X101390000Y-73090000D02*
X101300000Y-73000000D01*
X26600000Y-73000000D02*
X36150000Y-73000000D01*
X185240000Y-50120000D02*
X185240000Y-47360000D01*
X100040000Y-50120000D02*
X100040000Y-47440000D01*
X35600000Y-98200000D02*
X46400000Y-98200000D01*
X88690000Y-76000000D02*
X88690000Y-73010000D01*
X88700000Y-73000000D02*
X101300000Y-73000000D01*
X33690000Y-90890000D02*
X32895000Y-90095000D01*
X185240000Y-76000000D02*
X185240000Y-73140000D01*
X216300000Y-47300000D02*
X246500000Y-47300000D01*
X185300000Y-47300000D02*
X206300000Y-47300000D01*
X72580000Y-101000000D02*
X72580000Y-98220000D01*
X79200000Y-47400000D02*
X79100000Y-47300000D01*
X55880000Y-51660000D02*
X59520000Y-55300000D01*
X206300000Y-47300000D02*
X208800000Y-47300000D01*
X185240000Y-47360000D02*
X185300000Y-47300000D01*
X211000000Y-98200000D02*
X245200000Y-98200000D01*
X185240000Y-73140000D02*
X185100000Y-73000000D01*
X80800000Y-124300000D02*
X100000000Y-124300000D01*
D23*
X100040000Y-50120000D02*
X100040000Y-67190000D01*
D22*
X120000000Y-73000000D02*
X147100000Y-73000000D01*
X159010000Y-73090000D02*
X159100000Y-73000000D01*
X158500000Y-124300000D02*
X184900000Y-124300000D01*
X42300000Y-73000000D02*
X51200000Y-73000000D01*
X184900000Y-124300000D02*
X214900000Y-124300000D01*
X33690000Y-93380000D02*
X33690000Y-90890000D01*
X80250000Y-124300000D02*
X80800000Y-124300000D01*
X185120000Y-124520000D02*
X184900000Y-124300000D01*
X99900000Y-47300000D02*
X124730000Y-47300000D01*
X46400000Y-98200000D02*
X72600000Y-98200000D01*
X216400000Y-50120000D02*
X216400000Y-47400000D01*
D23*
X116096000Y-139094000D02*
X116096000Y-126471000D01*
D22*
X32895000Y-90095000D02*
X32100000Y-89300000D01*
X51200000Y-73000000D02*
X72400000Y-73000000D01*
X46000000Y-47300000D02*
X55800000Y-47300000D01*
X55800000Y-47300000D02*
X79100000Y-47300000D01*
X118267000Y-124300000D02*
X130000000Y-124300000D01*
X79200000Y-49950000D02*
X79200000Y-47400000D01*
X83610000Y-76000000D02*
X83610000Y-73090000D01*
X215240000Y-73140000D02*
X215100000Y-73000000D01*
X130080000Y-127000000D02*
X130080000Y-124380000D01*
X95900000Y-98200000D02*
X124700000Y-98200000D01*
X100000000Y-124300000D02*
X118267000Y-124300000D01*
X130080000Y-124380000D02*
X130000000Y-124300000D01*
D23*
X117500000Y-141600000D02*
X117500000Y-140498000D01*
D22*
X246390000Y-127000000D02*
X246390000Y-124310000D01*
X214900000Y-124300000D02*
X246400000Y-124300000D01*
D23*
X117500000Y-140498000D02*
X116096000Y-139094000D01*
D22*
X246510000Y-50120000D02*
X246510000Y-47310000D01*
X215240000Y-76000000D02*
X215240000Y-73140000D01*
X215000000Y-124400000D02*
X214900000Y-124300000D01*
X246500000Y-47300000D02*
X263300000Y-47300000D01*
X130000000Y-124300000D02*
X158500000Y-124300000D01*
D23*
%TO.N,PSYNC*%
X96497000Y-117803000D02*
X99538600Y-117803000D01*
X94920000Y-119380000D02*
X96497000Y-117803000D01*
D22*
%TO.N,+5V*%
X92400000Y-96200000D02*
X121200000Y-96200000D01*
X112500000Y-122300000D02*
X141000000Y-122300000D01*
X172540000Y-96200000D02*
X177500000Y-96200000D01*
X18561900Y-67938100D02*
X20500000Y-66000000D01*
X18561900Y-69138100D02*
X18561900Y-67938100D01*
X198620000Y-42500000D02*
X198620000Y-45280000D01*
X28610000Y-93310000D02*
X24600000Y-89300000D01*
X32790000Y-62750000D02*
X32790000Y-63280000D01*
X207500000Y-96200000D02*
X230000000Y-96200000D01*
X29640000Y-122240000D02*
X29700000Y-122300000D01*
X57380000Y-122220000D02*
X57300000Y-122300000D01*
X84800000Y-43700000D02*
X86400000Y-45300000D01*
X170000000Y-42500000D02*
X170000000Y-45300000D01*
X200000000Y-68380000D02*
X200000000Y-71000000D01*
D23*
X172540000Y-96200000D02*
X172540000Y-76000000D01*
D22*
X121700000Y-45300000D02*
X151330000Y-45300000D01*
X28500000Y-96200000D02*
X38700000Y-96200000D01*
X57380000Y-119380000D02*
X57380000Y-122220000D01*
D23*
X238800000Y-71000000D02*
X238805000Y-71000000D01*
D22*
X141300000Y-71000000D02*
X151400000Y-71000000D01*
X38700000Y-96200000D02*
X57400000Y-96200000D01*
X198640000Y-45300000D02*
X253700000Y-45300000D01*
X67540000Y-122060000D02*
X67300000Y-122300000D01*
X169880000Y-122220000D02*
X169800000Y-122300000D01*
X23428000Y-65200000D02*
X20000000Y-65200000D01*
X32790000Y-63810000D02*
X31400000Y-65200000D01*
X24177100Y-71000000D02*
X38600000Y-71000000D01*
X29700000Y-122300000D02*
X34800000Y-122300000D01*
X177500000Y-96200000D02*
X207500000Y-96200000D01*
X238830000Y-71025000D02*
X238855000Y-71000000D01*
X84700000Y-122300000D02*
X112500000Y-122300000D01*
X199760000Y-122240000D02*
X199700000Y-122300000D01*
X121255000Y-45300000D02*
X121700000Y-45300000D01*
X79250000Y-42500000D02*
X79200000Y-42450000D01*
X170000000Y-45300000D02*
X198600000Y-45300000D01*
X120900000Y-45300000D02*
X121255000Y-45300000D01*
X29640000Y-119380000D02*
X29640000Y-122240000D01*
X20000000Y-71000000D02*
X24177100Y-71000000D01*
X230000000Y-93380000D02*
X230000000Y-96200000D01*
X200000000Y-71000000D02*
X238800000Y-71000000D01*
X39800000Y-119380000D02*
X39800000Y-122200000D01*
X28610000Y-93380000D02*
X28610000Y-93310000D01*
X198600000Y-45300000D02*
X198620000Y-45280000D01*
X67400000Y-96200000D02*
X92400000Y-96200000D01*
X23600000Y-122300000D02*
X29700000Y-122300000D01*
X84760000Y-122240000D02*
X84700000Y-122300000D01*
X112300000Y-119380000D02*
X112300000Y-122100000D01*
X18561900Y-96200000D02*
X28500000Y-96200000D01*
X228610000Y-122190000D02*
X228620000Y-122200000D01*
X124400000Y-71000000D02*
X141300000Y-71000000D01*
X57260000Y-68380000D02*
X57260000Y-70740000D01*
X141230000Y-68380000D02*
X141230000Y-70930000D01*
X86400000Y-45300000D02*
X120900000Y-45300000D01*
X199760000Y-119380000D02*
X199760000Y-122240000D01*
X169800000Y-122300000D02*
X199700000Y-122300000D01*
X198620000Y-45280000D02*
X198640000Y-45300000D01*
X67540000Y-119380000D02*
X67540000Y-122060000D01*
X84760000Y-119380000D02*
X84760000Y-122240000D01*
X84800000Y-42500000D02*
X79250000Y-42500000D01*
X34800000Y-122300000D02*
X39700000Y-122300000D01*
D23*
X32790000Y-63280000D02*
X32640000Y-63130000D01*
D22*
X34720000Y-119380000D02*
X34720000Y-122220000D01*
X140990000Y-122290000D02*
X141000000Y-122300000D01*
X112300000Y-122100000D02*
X112500000Y-122300000D01*
D23*
X32640000Y-63130000D02*
X32640000Y-62467500D01*
D22*
X140990000Y-119380000D02*
X140990000Y-122290000D01*
X31400000Y-65200000D02*
X23428000Y-65200000D01*
D23*
X238805000Y-71000000D02*
X238830000Y-71025000D01*
D22*
X238855000Y-71000000D02*
X253700000Y-71000000D01*
X57400000Y-96200000D02*
X67400000Y-96200000D01*
X121255000Y-45300000D02*
X121700000Y-45300000D01*
X228610000Y-119380000D02*
X228610000Y-122190000D01*
X57000000Y-71000000D02*
X91700000Y-71000000D01*
D23*
X93770000Y-112910000D02*
X87300000Y-119380000D01*
D22*
X57300000Y-122300000D02*
X67300000Y-122300000D01*
D23*
X151330000Y-45325000D02*
X151330000Y-45300000D01*
D22*
X230000000Y-96200000D02*
X253700000Y-96200000D01*
X228500000Y-122300000D02*
X199700000Y-122300000D01*
X23500000Y-124200000D02*
X23500000Y-122400000D01*
X38600000Y-71000000D02*
X51100000Y-71000000D01*
X67300000Y-122300000D02*
X76100000Y-122300000D01*
X151330000Y-45300000D02*
X170000000Y-45300000D01*
X230000000Y-93380000D02*
X232540000Y-93380000D01*
X67500000Y-93380000D02*
X67500000Y-96100000D01*
X175100000Y-71000000D02*
X200000000Y-71000000D01*
X141230000Y-70930000D02*
X141300000Y-71000000D01*
X170000000Y-71000000D02*
X175100000Y-71000000D01*
D23*
X84800000Y-41080000D02*
X84800000Y-42500000D01*
D22*
X51100000Y-71000000D02*
X57000000Y-71000000D01*
X175080000Y-68380000D02*
X175080000Y-70980000D01*
X28610000Y-93380000D02*
X28610000Y-96090000D01*
D23*
X121255000Y-45300000D02*
X121230000Y-45325000D01*
D22*
X84800000Y-42500000D02*
X84800000Y-43700000D01*
X141000000Y-122300000D02*
X169800000Y-122300000D01*
X170000000Y-68380000D02*
X170000000Y-71000000D01*
X84760000Y-119380000D02*
X87300000Y-119380000D01*
X57340000Y-93380000D02*
X57340000Y-96140000D01*
X57260000Y-70740000D02*
X57000000Y-71000000D01*
X121200000Y-96200000D02*
X150000000Y-96200000D01*
X51100000Y-68550000D02*
X51100000Y-71000000D01*
X18700000Y-122300000D02*
X23600000Y-122300000D01*
X120900000Y-45300000D02*
X121255000Y-45300000D01*
X39700000Y-122300000D02*
X57300000Y-122300000D01*
X23500000Y-122400000D02*
X23600000Y-122300000D01*
X76800000Y-122300000D02*
X84700000Y-122300000D01*
X228610000Y-122190000D02*
X228500000Y-122300000D01*
X32790000Y-63280000D02*
X32790000Y-63810000D01*
X175080000Y-70980000D02*
X175100000Y-71000000D01*
D23*
X93770000Y-101000000D02*
X93770000Y-112910000D01*
D22*
X18561900Y-96200000D02*
X18561900Y-95338100D01*
X57340000Y-96140000D02*
X57400000Y-96200000D01*
X91700000Y-71000000D02*
X124400000Y-71000000D01*
D23*
X88880000Y-37000000D02*
X84800000Y-41080000D01*
D22*
X34720000Y-122220000D02*
X34800000Y-122300000D01*
X169880000Y-119380000D02*
X169880000Y-122220000D01*
X67500000Y-96100000D02*
X67400000Y-96200000D01*
X28610000Y-96090000D02*
X28500000Y-96200000D01*
X151400000Y-71000000D02*
X170000000Y-71000000D01*
X150000000Y-96200000D02*
X172540000Y-96200000D01*
X228620000Y-122200000D02*
X253700000Y-122200000D01*
X28610000Y-93380000D02*
X31150000Y-93380000D01*
X39800000Y-122200000D02*
X39700000Y-122300000D01*
D23*
%TO.N,Net-(J11-Pin_12)*%
X235080000Y-49462900D02*
X234023000Y-48405800D01*
X54146300Y-90889300D02*
X56558500Y-90889300D01*
X229231000Y-60882000D02*
X235080000Y-55032600D01*
X235080000Y-55032600D02*
X235080000Y-49462900D01*
X56558500Y-90889300D02*
X57269500Y-90178300D01*
X57269500Y-90178300D02*
X57269500Y-77430300D01*
X49982500Y-95053100D02*
X54146300Y-90889300D01*
%TO.N,Net-(J11-Pin_11)*%
X236350000Y-75434900D02*
X235052000Y-74137100D01*
X237620000Y-49480500D02*
X237620000Y-56232600D01*
X236350000Y-69544800D02*
X236034000Y-69861300D01*
X236578000Y-48438700D02*
X237620000Y-49480500D01*
X206350000Y-93380000D02*
X205062000Y-94668500D01*
X243970000Y-92129800D02*
X236350000Y-84509900D01*
X243244000Y-94696700D02*
X243970000Y-93970500D01*
X177638000Y-94668500D02*
X176350000Y-93380000D01*
X236350000Y-57502600D02*
X236350000Y-69544800D01*
X237620000Y-56232600D02*
X236350000Y-57502600D01*
X243970000Y-93970500D02*
X243970000Y-92129800D01*
X236350000Y-84509900D02*
X236350000Y-75434900D01*
X237620000Y-93380000D02*
X238937000Y-94696700D01*
X205062000Y-94668500D02*
X177638000Y-94668500D01*
X238937000Y-94696700D02*
X243244000Y-94696700D01*
%TO.N,Net-(J11-Pin_1)*%
X224768000Y-50120100D02*
X228730000Y-50120100D01*
X222982000Y-51906500D02*
X224768000Y-50120100D01*
X228730000Y-50120100D02*
X228730000Y-50120000D01*
%TO.N,Net-(J11-Pin_3)*%
X228467000Y-69709800D02*
X228625000Y-69867600D01*
X228467000Y-55462800D02*
X228467000Y-69709800D01*
X83300000Y-54160000D02*
X87340000Y-50120000D01*
X56009900Y-74446000D02*
X52088900Y-78367000D01*
X83300000Y-60208400D02*
X83300000Y-54160000D01*
X59294100Y-74446000D02*
X56009900Y-74446000D01*
X235080000Y-76000000D02*
X232540000Y-76000000D01*
X233810000Y-50120000D02*
X228467000Y-55462800D01*
%TO.N,Net-(J11-Pin_9)*%
X133989000Y-85645500D02*
X129774000Y-89860600D01*
X133989000Y-74917900D02*
X133989000Y-85645500D01*
X123559000Y-89860600D02*
X120040000Y-93380000D01*
X129774000Y-89860600D02*
X123559000Y-89860600D01*
X134741000Y-74165200D02*
X133989000Y-74917900D01*
%TO.N,Net-(J11-Pin_10)*%
X154404000Y-94683100D02*
X155200000Y-93886600D01*
X155200000Y-93886600D02*
X155200000Y-92179900D01*
X155200000Y-92179900D02*
X157750000Y-89630400D01*
X150124000Y-99725700D02*
X148850000Y-101000000D01*
X176350000Y-101000000D02*
X175076000Y-99725700D01*
X157750000Y-89630400D02*
X157750000Y-74138700D01*
X160970000Y-66674500D02*
X160970000Y-69870500D01*
X150153000Y-94683100D02*
X154404000Y-94683100D01*
X148850000Y-93380000D02*
X150153000Y-94683100D01*
X175076000Y-99725700D02*
X150124000Y-99725700D01*
X169606000Y-58038000D02*
X160970000Y-66674500D01*
%TO.N,Net-(J11-Pin_14)*%
X62521300Y-48438700D02*
X71256700Y-48438700D01*
X60960000Y-50000000D02*
X62521300Y-48438700D01*
%TO.N,Net-(J11-Pin_7)*%
X143530000Y-107783000D02*
X138145000Y-102399000D01*
X143530000Y-119380000D02*
X143530000Y-107783000D01*
X138145000Y-102399000D02*
X138145000Y-99947900D01*
%TO.N,Net-(J11-Pin_5)*%
X75269300Y-94402500D02*
X75269300Y-74153400D01*
X75269300Y-74153400D02*
X75261300Y-74145400D01*
X72053600Y-117944000D02*
X78887900Y-111109000D01*
X78887900Y-111109000D02*
X78887900Y-99338700D01*
X74610500Y-95061300D02*
X75269300Y-94402500D01*
%TO.N,Net-(J11-Pin_13)*%
X120040000Y-50120000D02*
X123978000Y-54057600D01*
X175721000Y-54409000D02*
X175721000Y-54559100D01*
X236350000Y-42500000D02*
X234689000Y-44161300D01*
X120040000Y-42500000D02*
X118772000Y-41231900D01*
X180010000Y-50120000D02*
X175721000Y-54409000D01*
X118772000Y-41231900D02*
X96228100Y-41231900D01*
X180160000Y-50120000D02*
X180010000Y-50120000D01*
X123978000Y-54057600D02*
X123978000Y-54210700D01*
X96228100Y-41231900D02*
X94960000Y-42500000D01*
%TO.N,Net-(J11-Pin_6)*%
X192272000Y-105180000D02*
X198113000Y-99338700D01*
X241430000Y-50120000D02*
X238908000Y-52641700D01*
X238908000Y-52641700D02*
X238908000Y-68895300D01*
X192272000Y-120446000D02*
X192272000Y-105180000D01*
X238908000Y-68895300D02*
X237942000Y-69861300D01*
%TO.N,Net-(J11-Pin_15)*%
X92420000Y-53312900D02*
X80658600Y-65074300D01*
X58530000Y-68911300D02*
X59250400Y-69631700D01*
X57721500Y-67056600D02*
X58530000Y-67865100D01*
X38863100Y-69754200D02*
X47028100Y-69754200D01*
X58530000Y-67865100D02*
X58530000Y-68911300D01*
X68708300Y-69631700D02*
X69960000Y-68380000D01*
X47028100Y-69754200D02*
X49725700Y-67056600D01*
X59250400Y-69631700D02*
X68708300Y-69631700D01*
X49725700Y-67056600D02*
X57721500Y-67056600D01*
X92420000Y-50120000D02*
X92420000Y-53312900D01*
%TO.N,Net-(J11-Pin_2)*%
X231270000Y-50120000D02*
X226428000Y-54962100D01*
X226428000Y-54962100D02*
X226428000Y-69872100D01*
%TO.N,Net-(J17-Pin_15)*%
X217773000Y-99737400D02*
X216510000Y-101000000D01*
X74141400Y-41091200D02*
X75635200Y-42585000D01*
X64030400Y-43631700D02*
X64788300Y-42873800D01*
X200396000Y-78795100D02*
X210142000Y-88541200D01*
X75635200Y-42673300D02*
X78109500Y-45147600D01*
X58420000Y-42380000D02*
X59671700Y-43631700D01*
X243970000Y-100488000D02*
X243220000Y-99737400D01*
X243970000Y-119260000D02*
X243970000Y-100488000D01*
X243850000Y-119380000D02*
X243970000Y-119260000D01*
X81683600Y-45147600D02*
X82697200Y-46161200D01*
X211325000Y-95061300D02*
X214227000Y-95061300D01*
X75635200Y-42585000D02*
X75635200Y-42673300D01*
X243220000Y-99737400D02*
X217773000Y-99737400D01*
X78109500Y-45147600D02*
X81683600Y-45147600D01*
X210142000Y-88541200D02*
X210142000Y-93877700D01*
X210142000Y-93877700D02*
X211325000Y-95061300D01*
X59671700Y-43631700D02*
X64030400Y-43631700D01*
X65492900Y-41091200D02*
X74141400Y-41091200D01*
X82697200Y-46161200D02*
X85060700Y-46161200D01*
X64788300Y-42873800D02*
X64788300Y-41795800D01*
X188691000Y-69861300D02*
X187936000Y-69106300D01*
X64788300Y-41795800D02*
X65492900Y-41091200D01*
X187936000Y-69106300D02*
X187936000Y-55741800D01*
X85060700Y-46161200D02*
X85060700Y-46161300D01*
%TO.N,Net-(J17-Pin_13)*%
X95147400Y-40098800D02*
X90774200Y-35725600D01*
X69939600Y-35725600D02*
X63500000Y-42165200D01*
X180677000Y-66878400D02*
X180677000Y-53574000D01*
X90774200Y-35725600D02*
X69939600Y-35725600D01*
X180677000Y-53574000D02*
X179148000Y-52045000D01*
X193449000Y-83018700D02*
X203810000Y-93380000D01*
X63500000Y-42165200D02*
X63500000Y-42380000D01*
X193449000Y-78783500D02*
X193449000Y-83018700D01*
%TO.N,Net-(J17-Pin_7)*%
X71120000Y-50000000D02*
X71230100Y-50110100D01*
X71230100Y-69722800D02*
X71091600Y-69861300D01*
X71230100Y-50110100D02*
X71230100Y-69722800D01*
D22*
%TO.N,-16V*%
X57150000Y-152781000D02*
X57150000Y-136150000D01*
X57150000Y-136150000D02*
X55200000Y-134200000D01*
D23*
%TO.N,Net-(J17-Pin_11)*%
X61476600Y-80216600D02*
X57260000Y-76000000D01*
X65216700Y-95061300D02*
X62310700Y-95061300D01*
X61150100Y-93900700D02*
X61150100Y-89905200D01*
X61150100Y-89905200D02*
X61476600Y-89578700D01*
X68788300Y-115741000D02*
X72427100Y-119380000D01*
X72427100Y-119380000D02*
X72620000Y-119380000D01*
X50305800Y-55928200D02*
X59277600Y-64900000D01*
X68788300Y-99429900D02*
X68788300Y-115741000D01*
X68662300Y-99303900D02*
X68788300Y-99429900D01*
X62310700Y-95061300D02*
X61150100Y-93900700D01*
X50305800Y-48438700D02*
X50305800Y-55928200D01*
X61476600Y-89578700D02*
X61476600Y-80216600D01*
%TO.N,Net-(J17-Pin_14)*%
X82501300Y-44545900D02*
X78358700Y-44545900D01*
X76236900Y-42424100D02*
X76236900Y-41064600D01*
X78358700Y-44545900D02*
X76236900Y-42424100D01*
X191376000Y-61451200D02*
X191376000Y-69861300D01*
X211430000Y-87045300D02*
X202428000Y-78043400D01*
X211430000Y-93380000D02*
X211430000Y-87045300D01*
X189207000Y-59282400D02*
X191376000Y-61451200D01*
X76236900Y-41064600D02*
X75653700Y-40481400D01*
X83327900Y-45372500D02*
X82501300Y-44545900D01*
%TO.N,Net-(J17-Pin_2)*%
X63720000Y-55300000D02*
X58420000Y-50000000D01*
X69680000Y-55300000D02*
X63720000Y-55300000D01*
%TO.N,Net-(J17-Pin_10)*%
X74639400Y-45899400D02*
X80687000Y-45899400D01*
X89880000Y-50120000D02*
X89880000Y-54708400D01*
X89880000Y-54708400D02*
X81707200Y-62881200D01*
X71120000Y-42380000D02*
X74639400Y-45899400D01*
%TO.N,Net-(J17-Pin_12)*%
X94704000Y-51693700D02*
X97580000Y-54569700D01*
X156874000Y-78863500D02*
X155651000Y-77640300D01*
X200031000Y-99699000D02*
X198730000Y-101000000D01*
X82992000Y-43944200D02*
X78607900Y-43944200D01*
X84328200Y-45372600D02*
X84328200Y-45280400D01*
X77297000Y-42633300D02*
X77297000Y-41742600D01*
X156874000Y-84708100D02*
X156874000Y-78863500D01*
X97580000Y-68913700D02*
X98527600Y-69861300D01*
X214470000Y-99699000D02*
X200031000Y-99699000D01*
X233690000Y-119380000D02*
X232430000Y-118120000D01*
X215238000Y-107154000D02*
X215238000Y-100468000D01*
X232430000Y-118120000D02*
X218160000Y-118120000D01*
X214445000Y-120638000D02*
X213730000Y-119923000D01*
X84328200Y-45280400D02*
X82992000Y-43944200D01*
X215238000Y-100468000D02*
X214470000Y-99699000D01*
X215642000Y-120638000D02*
X214445000Y-120638000D01*
X218160000Y-118120000D02*
X215642000Y-120638000D01*
X98527600Y-69861300D02*
X99992900Y-69861300D01*
X213730000Y-119923000D02*
X213730000Y-108663000D01*
X97580000Y-54569700D02*
X97580000Y-68913700D01*
X78607900Y-43944200D02*
X77297000Y-42633300D01*
X213730000Y-108663000D02*
X215238000Y-107154000D01*
%TO.N,D05*%
X181479900Y-140962600D02*
X181479900Y-130692100D01*
X181310100Y-130522300D02*
X181310100Y-125617100D01*
X181479900Y-130692100D02*
X181310100Y-130522300D01*
X175853100Y-146589400D02*
X181479900Y-140962600D01*
%TO.N,PRESET*%
X169430200Y-67122700D02*
X168699900Y-67853000D01*
X168699900Y-67853000D02*
X168699900Y-69861300D01*
X178912800Y-106407400D02*
X173543200Y-111777000D01*
X127540900Y-121161200D02*
X125665900Y-121161200D01*
X128810000Y-113695700D02*
X128810000Y-119892100D01*
X178912800Y-105150000D02*
X178912800Y-106407400D01*
X178902700Y-67122700D02*
X169430200Y-67122700D01*
X130728700Y-111777000D02*
X128810000Y-113695700D01*
X170347300Y-92128300D02*
X164422500Y-86203500D01*
X125665900Y-121161200D02*
X125665900Y-121161300D01*
X130175000Y-152781000D02*
X130175000Y-128751200D01*
X164422500Y-86203500D02*
X164422500Y-74138700D01*
X180160000Y-68380000D02*
X178902700Y-67122700D01*
X128810000Y-119892100D02*
X127540900Y-121161200D01*
X131439500Y-127486700D02*
X131439500Y-125696800D01*
X130175000Y-128751200D02*
X131439500Y-127486700D01*
%TO.N,PINT*%
X123825000Y-145385000D02*
X120040000Y-141600000D01*
X123825000Y-152781000D02*
X123825000Y-145385000D01*
%TO.N,D03*%
X174625000Y-148519300D02*
X176677400Y-148519300D01*
X208074100Y-128845900D02*
X209920000Y-127000000D01*
X196088942Y-136601000D02*
X196439942Y-136250000D01*
X196439942Y-136250000D02*
X196456400Y-136250000D01*
X176677400Y-148519300D02*
X188595700Y-136601000D01*
X188595700Y-136601000D02*
X196088942Y-136601000D01*
X203860500Y-128845900D02*
X208074100Y-128845900D01*
X196456400Y-136250000D02*
X203860500Y-128845900D01*
X174625000Y-152781000D02*
X174625000Y-148519300D01*
%TO.N,D12*%
X233690000Y-127000000D02*
X231392000Y-129298000D01*
X223779800Y-129298000D02*
X214010300Y-139067500D01*
X231392000Y-129298000D02*
X223779800Y-129298000D01*
%TO.N,A10*%
X158578100Y-145693459D02*
X158574300Y-145689659D01*
X158574300Y-134424300D02*
X151150000Y-127000000D01*
X158574300Y-145689659D02*
X158574300Y-134424300D01*
%TO.N,A11*%
X167960700Y-148519300D02*
X161326000Y-141884600D01*
X168275000Y-148519300D02*
X167960700Y-148519300D01*
X161326000Y-141884600D02*
X161326000Y-141083900D01*
X168275000Y-152781000D02*
X168275000Y-148519300D01*
%TO.N,D13*%
X214086100Y-140054900D02*
X224091300Y-130049700D01*
X224091300Y-130049700D02*
X226675700Y-130049700D01*
%TO.N,D04*%
X172597100Y-146589400D02*
X179667900Y-139518600D01*
X179667900Y-139518600D02*
X179667900Y-127372100D01*
X179667900Y-127372100D02*
X180040000Y-127000000D01*
%TO.N,D00*%
X178770100Y-129029900D02*
X178972900Y-129232700D01*
X178972900Y-129232700D02*
X178972900Y-136194000D01*
X178770100Y-125617100D02*
X178770100Y-129029900D01*
X178972900Y-136194000D02*
X167911300Y-147255600D01*
%TO.N,D16*%
X233765400Y-125500000D02*
X224663100Y-125500000D01*
X187325000Y-152781000D02*
X187325000Y-148519300D01*
X197782500Y-138061800D02*
X187325000Y-148519300D01*
X224663100Y-125500000D02*
X212101300Y-138061800D01*
X212101300Y-138061800D02*
X197782500Y-138061800D01*
%TO.N,A8*%
X174691900Y-120904000D02*
X172110300Y-120904000D01*
X171150500Y-126439600D02*
X172155700Y-125434400D01*
X171150500Y-130164600D02*
X171150500Y-126439600D01*
X159328100Y-147941200D02*
X159328100Y-141987000D01*
X165401400Y-118070900D02*
X163650800Y-119821500D01*
X158750000Y-148519300D02*
X159328100Y-147941200D01*
X171150000Y-118860700D02*
X170360200Y-118070900D01*
X158750000Y-152781000D02*
X158750000Y-148519300D01*
X172110300Y-120904000D02*
X171150000Y-119943700D01*
X171150000Y-119943700D02*
X171150000Y-118860700D01*
X170360200Y-118070900D02*
X165401400Y-118070900D01*
X172155700Y-125434400D02*
X177049800Y-125434400D01*
X159328100Y-141987000D02*
X171150500Y-130164600D01*
%TO.N,D06*%
X196385500Y-137400000D02*
X202441300Y-131344200D01*
X198924900Y-118112700D02*
X206112700Y-118112700D01*
X188919300Y-137400000D02*
X196385500Y-137400000D01*
X206112700Y-118112700D02*
X207380000Y-119380000D01*
X197010600Y-120027000D02*
X198924900Y-118112700D01*
X179659650Y-146659650D02*
X188919300Y-137400000D01*
%TO.N,A7*%
X155575000Y-136505000D02*
X155575000Y-152781000D01*
X146070000Y-127000000D02*
X155575000Y-136505000D01*
%TO.N,A14*%
X165100000Y-147605400D02*
X161001400Y-143506800D01*
X165100000Y-152781000D02*
X165100000Y-147605400D01*
%TO.N,D11*%
X190500000Y-148519300D02*
X198212700Y-140806600D01*
X230495700Y-140354300D02*
X243850000Y-127000000D01*
X190500000Y-152781000D02*
X190500000Y-148519300D01*
X215078400Y-140354300D02*
X230495700Y-140354300D01*
X198212700Y-140806600D02*
X214626100Y-140806600D01*
X214626100Y-140806600D02*
X215078400Y-140354300D01*
%TO.N,D01*%
X174960000Y-127000000D02*
X178326200Y-130366200D01*
X178326200Y-134522800D02*
X166705500Y-146143500D01*
X178326200Y-130366200D02*
X178326200Y-134522800D01*
%TO.N,D10*%
X193675000Y-152781000D02*
X193675000Y-148519300D01*
X215261100Y-141022500D02*
X230941300Y-141022500D01*
X230941300Y-141022500D02*
X243016400Y-128947400D01*
X214875300Y-141408300D02*
X215261100Y-141022500D01*
X193675000Y-148519300D02*
X200786000Y-141408300D01*
X200786000Y-141408300D02*
X214875300Y-141408300D01*
%TO.N,A13*%
X160197800Y-146792100D02*
X160197800Y-142755100D01*
X161925000Y-152781000D02*
X161925000Y-148519300D01*
X161925000Y-148519300D02*
X160197800Y-146792100D01*
X160197800Y-142755100D02*
X160197700Y-142755100D01*
%TO.N,D02*%
X171450000Y-152781000D02*
X171450000Y-148519300D01*
X172236500Y-147732800D02*
X176463000Y-147732800D01*
X195840000Y-136000000D02*
X204840000Y-127000000D01*
X176463000Y-147732800D02*
X188195800Y-136000000D01*
X171450000Y-148519300D02*
X172236500Y-147732800D01*
X188195800Y-136000000D02*
X195840000Y-136000000D01*
%TO.N,D07*%
X177800000Y-148519300D02*
X177800000Y-152781000D01*
X180700000Y-147100000D02*
X180650000Y-147150000D01*
X202213900Y-120904000D02*
X210936000Y-120904000D01*
X210936000Y-120904000D02*
X212460000Y-119380000D01*
X180704000Y-140633500D02*
X180704000Y-131292200D01*
X180650000Y-147150000D02*
X180650000Y-147246900D01*
X180650000Y-147246900D02*
X179377600Y-148519300D01*
X179377600Y-148519300D02*
X177800000Y-148519300D01*
%TO.N,Net-(Q1-B)*%
X124850000Y-140330000D02*
X126520000Y-142000000D01*
X118770000Y-140330000D02*
X124850000Y-140330000D01*
%TO.N,Net-(U23A-Q)*%
X136680000Y-142000000D02*
X137573000Y-141107000D01*
X137573000Y-121159000D02*
X134218000Y-117804000D01*
X137573000Y-141107000D02*
X137573000Y-125433000D01*
X134218000Y-117804000D02*
X134218000Y-102119000D01*
%TO.N,Net-(U12-S1)*%
X181430000Y-60863200D02*
X181430000Y-69138500D01*
X193531000Y-48762000D02*
X181430000Y-60863200D01*
X181430000Y-76744000D02*
X181430000Y-93380000D01*
X181430000Y-69138500D02*
X180707000Y-69861300D01*
%TO.N,Net-(U12-S0)*%
X212590000Y-49444700D02*
X212590000Y-53289900D01*
X216506000Y-69140100D02*
X215784000Y-69861300D01*
X211551000Y-48405800D02*
X212590000Y-49444700D01*
X212590000Y-53289900D02*
X216506000Y-57205600D01*
X216506000Y-57205600D02*
X216506000Y-69140100D01*
%TO.N,Net-(U12-I2)*%
X201160000Y-50120000D02*
X201160000Y-67000000D01*
X201160000Y-67000000D02*
X202540000Y-68380000D01*
%TO.N,Net-(U12-I3)*%
X198620000Y-69617000D02*
X198861000Y-69858300D01*
X198620000Y-50120000D02*
X198620000Y-69617000D01*
%TO.N,Net-(U12-I1)*%
X203700000Y-56840000D02*
X205442000Y-58582100D01*
X205442000Y-58582100D02*
X202654000Y-61370000D01*
X73915900Y-84424100D02*
X73915900Y-78611500D01*
X203700000Y-50120000D02*
X203700000Y-56840000D01*
X64960000Y-93380000D02*
X73915900Y-84424100D01*
X205442000Y-58582100D02*
X215240000Y-68380000D01*
%TO.N,Net-(U13-Pad11)*%
X177620000Y-50120000D02*
X176331000Y-48831400D01*
X176331000Y-48831400D02*
X173829000Y-48831400D01*
X173829000Y-48831400D02*
X172540000Y-50120000D01*
%TO.N,Net-(U37B-Q)*%
X74309400Y-77941900D02*
X74309400Y-74109900D01*
X70040000Y-93380000D02*
X74667600Y-88752400D01*
X167636000Y-41213600D02*
X164689000Y-44161300D01*
X154248000Y-48572500D02*
X153952000Y-48868300D01*
X74667600Y-88752400D02*
X74667600Y-78300100D01*
X171254000Y-41213600D02*
X167636000Y-41213600D01*
X153952000Y-48868300D02*
X153952000Y-53649300D01*
X153952000Y-53649300D02*
X148672000Y-58928700D01*
X74667600Y-78300100D02*
X74309400Y-77941900D01*
X172540000Y-42500000D02*
X171254000Y-41213600D01*
%TO.N,Net-(U14-CP1..3)*%
X147620000Y-42500000D02*
X145935000Y-44185200D01*
X145935000Y-44185200D02*
X110187000Y-44185200D01*
%TO.N,Net-(U15-Q3)*%
X106008000Y-54330400D02*
X111900000Y-48438700D01*
X106008000Y-68696500D02*
X106008000Y-54330400D01*
%TO.N,Net-(U15-Q0)*%
X122710000Y-48438700D02*
X121233000Y-48438700D01*
X127660000Y-68380000D02*
X127660000Y-56437100D01*
X123868000Y-52645400D02*
X123868000Y-49596800D01*
X123868000Y-49596800D02*
X122710000Y-48438700D01*
X127660000Y-56437100D02*
X123868000Y-52645400D01*
%TO.N,Net-(U15-Q1)*%
X126390000Y-53521700D02*
X128930000Y-56061700D01*
X126390000Y-49312900D02*
X126390000Y-53521700D01*
X128930000Y-68974500D02*
X128012000Y-69892100D01*
X125516000Y-48438700D02*
X126390000Y-49312900D01*
X128930000Y-56061700D02*
X128930000Y-68974500D01*
%TO.N,Net-(U15-Q2)*%
X110824000Y-59011800D02*
X116230000Y-53606000D01*
X110824000Y-69540100D02*
X110824000Y-59011800D01*
X116230000Y-53606000D02*
X116230000Y-49113200D01*
X116230000Y-49113200D02*
X115523000Y-48405800D01*
%TO.N,Net-(U24-DOWN)*%
X100040000Y-42500000D02*
X98362900Y-44177100D01*
X101403000Y-51511200D02*
X101403000Y-65503500D01*
X98362900Y-44177100D02*
X95521700Y-44177100D01*
X101403000Y-65503500D02*
X105761000Y-69861300D01*
%TO.N,Net-(U24-~{LOAD})*%
X56334800Y-78242500D02*
X54590100Y-78242500D01*
X62420000Y-101000000D02*
X61139700Y-102280000D01*
X45120000Y-101562000D02*
X45120000Y-100433000D01*
X54590100Y-78242500D02*
X40040000Y-92792600D01*
X37527600Y-94677600D02*
X36230000Y-93380000D01*
X140512000Y-54962400D02*
X128894000Y-54962400D01*
X153930000Y-68380000D02*
X140512000Y-54962400D01*
X84800000Y-50120000D02*
X79906900Y-55013100D01*
X79906900Y-55013100D02*
X79906900Y-68917400D01*
X61139700Y-102280000D02*
X45838100Y-102280000D01*
X45120000Y-100433000D02*
X44025400Y-99338700D01*
X39249000Y-94677600D02*
X37527600Y-94677600D01*
X79906900Y-68917400D02*
X80882100Y-69892600D01*
X40040000Y-93886600D02*
X39249000Y-94677600D01*
X40040000Y-92792600D02*
X40040000Y-93886600D01*
X45838100Y-102280000D02*
X45120000Y-101562000D01*
%TO.N,Net-(U16-Pad11)*%
X72500000Y-68380000D02*
X72500000Y-60324800D01*
X93671400Y-48831400D02*
X94960000Y-50120000D01*
X83993400Y-48831400D02*
X93671400Y-48831400D01*
X72500000Y-60324800D02*
X83993400Y-48831400D01*
%TO.N,Net-(U23A-C)*%
X242700000Y-93380000D02*
X226586000Y-77266000D01*
X184658000Y-77266000D02*
X183970000Y-76577900D01*
X183970000Y-75455800D02*
X182652000Y-74137900D01*
X226586000Y-77266000D02*
X184658000Y-77266000D01*
X182652000Y-74137900D02*
X176942000Y-74137900D01*
X183970000Y-76577900D02*
X183970000Y-75455800D01*
X176942000Y-74137900D02*
X175080000Y-76000000D01*
%TO.N,Net-(U23B-~{Q})*%
X240160000Y-93380000D02*
X226327000Y-79546800D01*
X226327000Y-79546800D02*
X207399000Y-79546800D01*
%TO.N,Net-(U23B-~{R})*%
X62420000Y-93380000D02*
X69136800Y-86663200D01*
%TO.N,Net-(U23A-~{R})*%
X55536600Y-91609600D02*
X57350700Y-91609600D01*
X52075700Y-95070500D02*
X55536600Y-91609600D01*
X57350700Y-91609600D02*
X60724900Y-88235400D01*
%TO.N,Net-(U23A-~{Q})*%
X172597000Y-110764000D02*
X177602000Y-105760000D01*
X182700000Y-76000000D02*
X181445000Y-74744700D01*
X179585000Y-74744700D02*
X178890000Y-75439300D01*
X177602000Y-99556600D02*
X177384000Y-99338700D01*
X178890000Y-89069900D02*
X175098000Y-92861600D01*
X181445000Y-74744700D02*
X179585000Y-74744700D01*
X32180000Y-119380000D02*
X37745300Y-113815000D01*
X175098000Y-92861600D02*
X175098000Y-93928100D01*
X37745300Y-113815000D02*
X56334500Y-113815000D01*
X178890000Y-75439300D02*
X178890000Y-89069900D01*
X175098000Y-93928100D02*
X176232000Y-95061300D01*
X177602000Y-105760000D02*
X177602000Y-99556600D01*
%TO.N,Net-(U24-A)*%
X150120000Y-75152800D02*
X150120000Y-85555100D01*
X143770000Y-68380000D02*
X145251000Y-69861300D01*
X149104000Y-74137100D02*
X150120000Y-75152800D01*
X145251000Y-69861300D02*
X147443000Y-69861300D01*
X150120000Y-85555100D02*
X155015000Y-90450600D01*
%TO.N,Net-(U24-B)*%
X145889000Y-77310500D02*
X149217000Y-80638500D01*
X149217000Y-80638500D02*
X149217000Y-88666700D01*
X149217000Y-88666700D02*
X153930000Y-93380000D01*
X142540000Y-77310500D02*
X145889000Y-77310500D01*
X141230000Y-76000000D02*
X142540000Y-77310500D01*
%TO.N,Net-(U24-D)*%
X155767000Y-90762000D02*
X155040000Y-91489300D01*
X154899000Y-82658500D02*
X155767000Y-83526200D01*
X155202000Y-74993100D02*
X155202000Y-77026000D01*
X156057000Y-74138700D02*
X155202000Y-74993100D01*
X154899000Y-77329000D02*
X154899000Y-82658500D01*
X155040000Y-91489300D02*
X154802000Y-91489300D01*
X155202000Y-77026000D02*
X154899000Y-77329000D01*
X155767000Y-83526200D02*
X155767000Y-90762000D01*
%TO.N,Net-(U24-C)*%
X145703000Y-92773300D02*
X145703000Y-78261900D01*
X146310000Y-93380000D02*
X145703000Y-92773300D01*
%TO.N,Net-(U25-B3)*%
X120040000Y-88729300D02*
X120040000Y-76000000D01*
X116230000Y-92539300D02*
X120040000Y-88729300D01*
X125120000Y-93380000D02*
X123854000Y-94645700D01*
X116230000Y-93881100D02*
X116230000Y-92539300D01*
X116995000Y-94645700D02*
X116230000Y-93881100D01*
X123854000Y-94645700D02*
X116995000Y-94645700D01*
%TO.N,Net-(U25-B2)*%
X118171000Y-93380000D02*
X127660000Y-83890600D01*
X127660000Y-83890600D02*
X127660000Y-76000000D01*
X117500000Y-93380000D02*
X118171000Y-93380000D01*
%TO.N,Net-(U25-B1)*%
X118329000Y-77251700D02*
X118457000Y-77124400D01*
X115488000Y-74745900D02*
X116230000Y-75487900D01*
X116230000Y-76552800D02*
X116929000Y-77251700D01*
X116929000Y-77251700D02*
X118329000Y-77251700D01*
X111542000Y-74745900D02*
X115488000Y-74745900D01*
X106436000Y-79852000D02*
X111542000Y-74745900D01*
X116230000Y-75487900D02*
X116230000Y-76552800D01*
X106436000Y-94268900D02*
X106436000Y-79852000D01*
%TO.N,Net-(U25-S4)*%
X136197000Y-101166000D02*
X135757000Y-100726000D01*
X136197000Y-101789000D02*
X136197000Y-101166000D01*
X135757000Y-100726000D02*
X135632000Y-100726000D01*
X134777000Y-92999900D02*
X134777000Y-76152200D01*
X135632000Y-100726000D02*
X134854000Y-99947900D01*
X139859000Y-120820000D02*
X135828000Y-116789000D01*
X132711000Y-95066100D02*
X134777000Y-92999900D01*
X135828000Y-102158000D02*
X136197000Y-101789000D01*
X135828000Y-116789000D02*
X135828000Y-102158000D01*
%TO.N,Net-(U25-S2)*%
X126373000Y-74746800D02*
X125120000Y-76000000D01*
X136467000Y-102370000D02*
X136799000Y-102038000D01*
X128930000Y-88576700D02*
X128930000Y-75475200D01*
X141839000Y-114221000D02*
X136467000Y-108850000D01*
X128202000Y-74746800D02*
X126373000Y-74746800D01*
X136799000Y-102038000D02*
X136799000Y-100728000D01*
X136467000Y-108850000D02*
X136467000Y-102370000D01*
X136799000Y-100728000D02*
X136019000Y-99947900D01*
X129462000Y-89108900D02*
X128930000Y-88576700D01*
X128930000Y-75475200D02*
X128202000Y-74746800D01*
%TO.N,Net-(U25-S1)*%
X135167000Y-101756000D02*
X135167000Y-117366000D01*
X135446000Y-101478000D02*
X135167000Y-101756000D01*
X135167000Y-117366000D02*
X138304000Y-120502000D01*
X135942000Y-93799200D02*
X135942000Y-75202500D01*
X134680000Y-95061300D02*
X135942000Y-93799200D01*
%TO.N,Net-(U25-S3)*%
X142595000Y-114586000D02*
X142595000Y-108036000D01*
X142260000Y-114921000D02*
X142595000Y-114586000D01*
X114960000Y-76000000D02*
X114960000Y-85802700D01*
X142260000Y-119972000D02*
X142260000Y-114921000D01*
X114960000Y-85802700D02*
X118153000Y-88995300D01*
X142595000Y-108036000D02*
X137256000Y-102697000D01*
X143192000Y-120904000D02*
X142260000Y-119972000D01*
%TO.N,Net-(U25-B4)*%
X120285000Y-74446000D02*
X121310000Y-75471100D01*
X121310000Y-89170900D02*
X120734000Y-89747000D01*
X121310000Y-75471100D02*
X121310000Y-89170900D01*
%TO.N,Net-(U26-B3)*%
X95977300Y-79324500D02*
X96310000Y-79657200D01*
X96310000Y-79657200D02*
X96310000Y-93380000D01*
%TO.N,Net-(U26-C4)*%
X117380000Y-115565000D02*
X114000000Y-112185000D01*
X117380000Y-119380000D02*
X117380000Y-115565000D01*
X82414100Y-74123800D02*
X76419400Y-80118500D01*
X76419400Y-80118500D02*
X76419400Y-95061300D01*
%TO.N,Net-(U26-S2)*%
X113231000Y-104813000D02*
X116230000Y-101814000D01*
X113570000Y-120918000D02*
X113570000Y-116361000D01*
X116230000Y-100183000D02*
X115385000Y-99338700D01*
X113570000Y-116361000D02*
X113231000Y-116022000D01*
X100120000Y-89098000D02*
X106083000Y-95061300D01*
X106083000Y-95061300D02*
X107829000Y-95061300D01*
X100120000Y-75484800D02*
X100120000Y-89098000D01*
X116230000Y-101814000D02*
X116230000Y-100183000D01*
X96310000Y-76000000D02*
X97614600Y-74695400D01*
X97614600Y-74695400D02*
X99330600Y-74695400D01*
X113231000Y-116022000D02*
X113231000Y-104813000D01*
X113727000Y-121074000D02*
X113570000Y-120918000D01*
X99330600Y-74695400D02*
X100120000Y-75484800D01*
%TO.N,Net-(U26-S3)*%
X115816000Y-112736000D02*
X122460000Y-119380000D01*
X88598300Y-95061300D02*
X95671700Y-95061300D01*
X87420000Y-91973600D02*
X87420000Y-93883000D01*
X87420000Y-93883000D02*
X88598300Y-95061300D01*
X86150000Y-90703600D02*
X87420000Y-91973600D01*
X115816000Y-104264000D02*
X115816000Y-112736000D01*
X86150000Y-76000000D02*
X86150000Y-90703600D01*
%TO.N,Net-(U26-B2)*%
X88690000Y-93380000D02*
X88690000Y-85548800D01*
X98238800Y-76000000D02*
X98850000Y-76000000D01*
X88690000Y-85548800D02*
X98238800Y-76000000D01*
%TO.N,Net-(U26-B4)*%
X87420000Y-75440300D02*
X87420000Y-90858200D01*
X86118400Y-74138700D02*
X87420000Y-75440300D01*
X101390000Y-101000000D02*
X99728700Y-99338700D01*
X99728700Y-99338700D02*
X90750800Y-99338700D01*
%TO.N,Net-(U26-S4)*%
X122482000Y-121161000D02*
X123730000Y-119913000D01*
X108726000Y-81537000D02*
X107916000Y-80726900D01*
X108726000Y-94647400D02*
X108726000Y-81537000D01*
X121310000Y-106760000D02*
X121310000Y-100496000D01*
X121310000Y-100496000D02*
X120152000Y-99338700D01*
X119161000Y-121161000D02*
X122482000Y-121161000D01*
X120152000Y-99338700D02*
X119285000Y-99338700D01*
X123730000Y-119913000D02*
X123730000Y-117350000D01*
X123730000Y-117350000D02*
X119664000Y-113284000D01*
X119664000Y-108406000D02*
X121310000Y-106760000D01*
X119664000Y-113284000D02*
X119664000Y-108406000D01*
%TO.N,Net-(U26-B1)*%
X96310000Y-68380000D02*
X94828800Y-69861200D01*
X84552200Y-78187200D02*
X77523100Y-85216300D01*
X85647600Y-69861200D02*
X85647600Y-69861300D01*
X77523100Y-85216300D02*
X77523100Y-95061300D01*
X94828800Y-69861200D02*
X85647600Y-69861200D01*
%TO.N,Net-(U26-S1)*%
X111167000Y-100050000D02*
X111167000Y-108160000D01*
X112836000Y-99338700D02*
X112836000Y-99338800D01*
X120420000Y-112260000D02*
X120420000Y-108794000D01*
X114060000Y-77794400D02*
X114060000Y-89168900D01*
X112836000Y-99338800D02*
X111879000Y-99338800D01*
X114060000Y-89168900D02*
X109781000Y-93448400D01*
X111167000Y-108160000D02*
X111801000Y-108794000D01*
X127540000Y-119380000D02*
X120420000Y-112260000D01*
X111879000Y-99338800D02*
X111167000Y-100050000D01*
%TO.N,Net-(U28-Q1)*%
X60413600Y-66453600D02*
X58917000Y-66453600D01*
X58917000Y-66453600D02*
X58316600Y-65853200D01*
X58316600Y-65853200D02*
X45026800Y-65853200D01*
X62340000Y-68380000D02*
X60413600Y-66453600D01*
X45026800Y-65853200D02*
X42500000Y-68380000D01*
%TO.N,Net-(U28-Q3)*%
X58561300Y-65247000D02*
X40553000Y-65247000D01*
X64692900Y-65652900D02*
X58967200Y-65652900D01*
X67420000Y-68380000D02*
X64692900Y-65652900D01*
X40553000Y-65247000D02*
X37420000Y-68380000D01*
X58967200Y-65652900D02*
X58561300Y-65247000D01*
%TO.N,Net-(U28-Q2)*%
X46965100Y-66454900D02*
X57971100Y-66454900D01*
X57971100Y-66454900D02*
X59800000Y-68283800D01*
X45040000Y-68380000D02*
X46965100Y-66454900D01*
X59800000Y-68283800D02*
X59800000Y-68380000D01*
%TO.N,Net-(U31A-D)*%
X232540000Y-101840000D02*
X232540000Y-101000000D01*
X215000000Y-119380000D02*
X232540000Y-101840000D01*
X98850000Y-101000000D02*
X105869000Y-108019000D01*
%TO.N,Net-(U31A-~{Q})*%
X242700000Y-101000000D02*
X240040000Y-103660000D01*
X240040000Y-103660000D02*
X240040000Y-119949000D01*
X63690000Y-100469000D02*
X63690000Y-115699000D01*
X58640600Y-99699400D02*
X57340000Y-101000000D01*
X63690000Y-115699000D02*
X64880100Y-116889000D01*
X62920600Y-99699400D02*
X58640600Y-99699400D01*
X66095200Y-99350500D02*
X64808300Y-99350500D01*
X63690000Y-100469000D02*
X62920600Y-99699400D01*
X64808300Y-99350500D02*
X63690000Y-100469000D01*
X240040000Y-119949000D02*
X241153000Y-121061000D01*
%TO.N,Net-(U31B-D)*%
X96310000Y-101000000D02*
X102577000Y-107267000D01*
%TO.N,Net-(U32-D0)*%
X194166000Y-119066000D02*
X194166000Y-113761000D01*
X194166000Y-113761000D02*
X194166000Y-108104000D01*
X194166000Y-108104000D02*
X201270000Y-101000000D01*
X143770000Y-101000000D02*
X143770000Y-105044000D01*
X143770000Y-105044000D02*
X152487000Y-113761000D01*
%TO.N,Net-(U32-D2)*%
X161881000Y-121161000D02*
X161881000Y-108951000D01*
X211430000Y-101000000D02*
X197728000Y-114702000D01*
X161881000Y-108951000D02*
X153930000Y-101000000D01*
%TO.N,Net-(U32-D1)*%
X193984000Y-120090000D02*
X194205000Y-120090000D01*
X146310000Y-101000000D02*
X144469000Y-99159200D01*
X195369000Y-108891000D02*
X203260000Y-101000000D01*
X146310000Y-101000000D02*
X146310000Y-102682000D01*
X195369000Y-118926000D02*
X195369000Y-108891000D01*
X194205000Y-120090000D02*
X195369000Y-118926000D01*
X144469000Y-99159200D02*
X126961000Y-99159200D01*
X203260000Y-101000000D02*
X203810000Y-101000000D01*
X126961000Y-99159200D02*
X125120000Y-101000000D01*
X146310000Y-102682000D02*
X152519000Y-108891000D01*
%TO.N,Net-(U32-D3)*%
X213970000Y-101176000D02*
X213970000Y-101000000D01*
X114960000Y-101000000D02*
X112553000Y-103407000D01*
X100513000Y-121182000D02*
X96823400Y-121182000D01*
X172694000Y-112034000D02*
X180040000Y-119380000D01*
X193911000Y-121234000D02*
X213970000Y-101176000D01*
X156470000Y-101000000D02*
X167504000Y-112034000D01*
X180040000Y-119380000D02*
X181894000Y-121234000D01*
X167504000Y-112034000D02*
X172694000Y-112034000D01*
X112553000Y-103407000D02*
X112553000Y-109141000D01*
X181894000Y-121234000D02*
X193911000Y-121234000D01*
X112553000Y-109141000D02*
X100513000Y-121182000D01*
%TO.N,Net-(U33-~{Q1})*%
X150841000Y-114609000D02*
X152725000Y-114609000D01*
X153247000Y-110733000D02*
X147936000Y-105422000D01*
X153247000Y-114087000D02*
X153247000Y-110733000D01*
X152725000Y-114609000D02*
X153247000Y-114087000D01*
X146070000Y-119380000D02*
X150841000Y-114609000D01*
%TO.N,Net-(U33-~{Q0})*%
X155062000Y-115468000D02*
X155062000Y-103247000D01*
X47217300Y-90012700D02*
X56302900Y-90012700D01*
X43850000Y-93380000D02*
X47217300Y-90012700D01*
X151150000Y-119380000D02*
X155062000Y-115468000D01*
%TO.N,Net-(U33-D3)*%
X183850000Y-101120000D02*
X183850000Y-119894000D01*
X187357000Y-120633000D02*
X187550000Y-120440000D01*
X183850000Y-119894000D02*
X184588000Y-120633000D01*
X183970000Y-101000000D02*
X183850000Y-101120000D01*
X184588000Y-120633000D02*
X187357000Y-120633000D01*
%TO.N,Net-(U33-D2)*%
X185240000Y-119260000D02*
X185120000Y-119380000D01*
X184517000Y-99691100D02*
X185240000Y-100414000D01*
X182739000Y-99691100D02*
X184517000Y-99691100D01*
X185240000Y-100414000D02*
X185240000Y-119260000D01*
X181430000Y-101000000D02*
X182739000Y-99691100D01*
%TO.N,Net-(U37A-~{Q})*%
X70040000Y-101000000D02*
X70047400Y-101007000D01*
X70047400Y-101007000D02*
X70047400Y-115684000D01*
%TO.N,Net-(U38-DOWN)*%
X62843800Y-117973000D02*
X64250700Y-119380000D01*
X61173800Y-125746000D02*
X68826200Y-125746000D01*
X36230000Y-101000000D02*
X39012200Y-103782000D01*
X47431900Y-103782000D02*
X61622800Y-117973000D01*
X68826200Y-125746000D02*
X70080000Y-127000000D01*
X64250700Y-119380000D02*
X65000000Y-119380000D01*
X59920000Y-127000000D02*
X61173800Y-125746000D01*
X39012200Y-103782000D02*
X47431900Y-103782000D01*
X61622800Y-117973000D02*
X62843800Y-117973000D01*
%TO.N,Net-(U38-~{LOAD})*%
X70080000Y-119380000D02*
X68371600Y-117672000D01*
X63517400Y-117672000D02*
X48877800Y-103032000D01*
X68371600Y-117672000D02*
X63517400Y-117672000D01*
X48877800Y-103032000D02*
X48152100Y-103032000D01*
%TO.N,Net-(U41-OEa)*%
X39940900Y-116699000D02*
X56343500Y-116699000D01*
X172420000Y-127000000D02*
X177534000Y-132114000D01*
X37260000Y-119380000D02*
X39940900Y-116699000D01*
%TO.N,Net-(U41-I5)*%
X44880000Y-119380000D02*
X54728600Y-119380000D01*
X58322600Y-115786000D02*
X58322600Y-115736000D01*
X54728600Y-119380000D02*
X58322600Y-115786000D01*
%TD*%
M02*
