M48
; DRILL file {KiCad 9.0.6} date 2026-03-30T14:04:50-0500
; FORMAT={-:-/ absolute / metric / decimal}
; #@! TF.CreationDate,2026-03-30T14:04:50-05:00
; #@! TF.GenerationSoftware,Kicad,Pcbnew,9.0.6
; #@! TF.FileFunction,Plated,1,2,PTH
FMAT,2
METRIC
; #@! TA.AperFunction,Plated,PTH,ViaDrill
T1C0.300
; #@! TA.AperFunction,Plated,PTH,ViaDrill
T2C0.400
; #@! TA.AperFunction,Plated,PTH,ComponentDrill
T3C0.700
; #@! TA.AperFunction,Plated,PTH,ComponentDrill
T4C0.800
; #@! TA.AperFunction,Plated,PTH,ComponentDrill
T5C1.000
; #@! TA.AperFunction,Plated,PTH,ComponentDrill
T6C1.100
%
G90
G05
T1
X28.346Y-120.82
X35.088Y-99.192
X37.33Y-117.805
X39.489Y-99.189
X43.776Y-78.772
X49.887Y-48.253
X51.24Y-92.251
X51.726Y-94.912
X52.55Y-93.612
X55.71Y-75.907
X56.566Y-73.989
X58.584Y-69.711
X61.246Y-69.744
X61.411Y-94.911
X62.976Y-121.011
X64.612Y-48.289
X64.927Y-82.713
X67.575Y-132.465
X75.293Y-121.011
X80.092Y-48.266
X88.86Y-81.182
X89.047Y-99.189
X89.542Y-65.996
X90.921Y-94.931
X91.725Y-121.011
X92.303Y-117.556
X92.641Y-94.936
X92.896Y-121.011
X93.069Y-99.179
X94.537Y-73.992
X95.134Y-48.293
X96.561Y-94.911
X96.625Y-73.953
X98.186Y-69.744
X98.215Y-90.77
X99.989Y-74.195
X100.733Y-145.631
X103.123Y-99.152
X103.293Y-119.38
X103.813Y-93.166
X104.228Y-99.189
X104.964Y-94.911
X105.866Y-94.917
X106.105Y-99.154
X106.804Y-69.735
X106.804Y-73.975
X107.069Y-99.189
X108.302Y-100.194
X109.131Y-121.011
X109.562Y-73.964
X110.131Y-120.941
X110.264Y-99.188
X111.09Y-94.932
X111.162Y-120.971
X112.654Y-99.189
X113.425Y-80.358
X113.559Y-69.677
X114.0Y-118.133
X114.06Y-66.529
X114.634Y-121.011
X116.1Y-125.289
X116.23Y-67.61
X116.319Y-94.911
X118.355Y-130.289
X118.473Y-48.289
X119.25Y-125.277
X119.559Y-66.654
X120.193Y-94.932
X120.478Y-130.098
X121.071Y-48.276
X121.671Y-130.668
X121.835Y-125.289
X122.099Y-66.808
X123.155Y-133.988
X123.189Y-103.105
X123.446Y-73.989
X124.148Y-69.711
X125.468Y-105.15
X126.212Y-135.868
X126.547Y-134.592
X128.793Y-132.022
X129.527Y-73.989
X130.674Y-125.289
X132.23Y-126.011
X133.719Y-125.259
X135.931Y-132.168
X137.109Y-126.771
X137.588Y-121.011
X137.682Y-127.576
X137.972Y-103.166
X141.186Y-136.62
X142.452Y-99.763
X142.691Y-148.341
X143.14Y-121.011
X143.514Y-134.33
X146.463Y-48.289
X146.781Y-102.416
X147.667Y-69.711
X149.266Y-99.189
X150.195Y-48.289
X150.741Y-148.519
X151.146Y-52.148
X152.034Y-107.775
X153.818Y-121.043
X154.113Y-91.929
X154.871Y-73.989
X155.324Y-133.351
X155.658Y-135.868
X156.471Y-125.263
X157.716Y-135.114
X158.086Y-131.415
X158.504Y-135.89
X159.445Y-116.608
X159.828Y-147.74
X160.004Y-125.289
X160.159Y-130.497
X161.096Y-99.189
X161.242Y-100.271
X161.335Y-129.822
X161.523Y-69.743
X161.523Y-73.989
X162.02Y-101.309
X163.008Y-121.046
X163.429Y-148.519
X163.877Y-126.756
X163.999Y-114.694
X164.04Y-99.189
X166.49Y-99.189
X166.541Y-94.937
X167.366Y-99.977
X167.476Y-94.922
X170.56Y-148.344
X172.224Y-121.012
X173.037Y-151.194
X174.689Y-73.989
X175.086Y-125.263
X175.685Y-48.289
X175.991Y-148.519
X176.35Y-66.166
X177.787Y-125.289
X180.685Y-99.282
X182.914Y-99.189
X183.285Y-48.289
X183.85Y-118.664
X184.146Y-69.744
X184.465Y-99.189
X186.749Y-117.076
X187.4Y-50.4
X187.4Y-57.3
X188.479Y-94.942
X188.851Y-99.189
X189.417Y-119.003
X190.048Y-78.664
X190.059Y-94.911
X191.2Y-73.989
X191.786Y-94.911
X193.368Y-99.152
X193.977Y-94.911
X194.391Y-120.821
X194.484Y-132.636
X194.803Y-148.366
X195.255Y-125.271
X195.422Y-94.914
X195.636Y-100.0
X195.856Y-131.883
X195.869Y-126.191
X196.035Y-101.732
X196.168Y-75.475
X196.433Y-99.18
X196.522Y-69.736
X197.012Y-129.823
X197.381Y-141.171
X197.459Y-73.987
X197.651Y-131.317
X198.474Y-121.038
X198.756Y-91.823
X198.795Y-69.73
X198.841Y-132.805
X199.384Y-48.484
X199.945Y-102.206
X200.165Y-129.86
X200.56Y-131.45
X202.54Y-73.953
X203.092Y-90.824
X204.851Y-151.159
X205.333Y-134.814
X205.64Y-147.338
X205.838Y-141.049
X206.143Y-129.709
X206.632Y-99.199
X206.744Y-87.174
X208.028Y-150.751
X208.321Y-69.711
X208.577Y-73.981
X208.648Y-129.371
X208.76Y-125.269
X210.394Y-65.118
X211.19Y-127.753
X211.538Y-99.189
X212.219Y-88.408
X215.24Y-73.959
X215.278Y-49.289
X216.476Y-73.954
X217.456Y-49.239
X220.12Y-117.44
X220.447Y-126.31
X223.437Y-52.965
X223.437Y-90.17
X224.881Y-59.636
X225.247Y-121.011
X228.562Y-93.856
X228.955Y-105.852
X229.749Y-120.685
X231.892Y-102.726
X234.96Y-118.259
X235.899Y-40.625
X236.582Y-117.735
X237.602Y-50.897
X237.898Y-94.911
X238.174Y-48.289
X239.223Y-115.914
X241.591Y-120.934
X242.201Y-99.189
X243.14Y-99.189
X243.988Y-69.747
X247.879Y-94.917
T2
X26.7Y-72.85
X46.1Y-47.15
X53.5Y-149.0
X177.5Y-96.1
X178.8Y-45.2
X178.8Y-70.9
X181.0Y-98.1
X182.3Y-47.2
X182.3Y-72.9
X207.4Y-45.2
X207.5Y-96.0
X208.8Y-70.9
X210.9Y-47.2
X211.0Y-98.0
X212.3Y-72.9
T3
X106.1Y-45.19
X106.1Y-52.81
T4
X23.2Y-60.4
X23.2Y-85.4
X23.5Y-99.2
X23.5Y-124.2
X28.61Y-93.38
X28.61Y-101.0
X29.64Y-119.38
X29.64Y-127.0
X29.8Y-68.38
X29.8Y-76.0
X31.15Y-93.38
X31.15Y-101.0
X32.18Y-119.38
X32.18Y-127.0
X32.34Y-68.38
X32.34Y-76.0
X33.69Y-93.38
X33.69Y-101.0
X34.72Y-119.38
X34.72Y-127.0
X34.88Y-68.38
X34.88Y-76.0
X36.23Y-93.38
X36.23Y-101.0
X37.26Y-119.38
X37.26Y-127.0
X37.42Y-68.38
X37.42Y-76.0
X38.77Y-93.38
X38.77Y-101.0
X39.8Y-119.38
X39.8Y-127.0
X39.96Y-68.38
X39.96Y-76.0
X41.31Y-93.38
X41.31Y-101.0
X42.34Y-119.38
X42.34Y-127.0
X42.5Y-68.38
X42.5Y-76.0
X43.85Y-93.38
X43.85Y-101.0
X44.88Y-119.38
X44.88Y-127.0
X45.04Y-68.38
X45.04Y-76.0
X55.88Y-42.5
X55.88Y-50.12
X57.26Y-68.38
X57.26Y-76.0
X57.34Y-93.38
X57.34Y-101.0
X57.38Y-119.38
X57.38Y-127.0
X58.42Y-42.5
X58.42Y-50.12
X59.8Y-68.38
X59.8Y-76.0
X59.88Y-93.38
X59.88Y-101.0
X59.92Y-119.38
X59.92Y-127.0
X60.96Y-42.5
X60.96Y-50.12
X62.34Y-68.38
X62.34Y-76.0
X62.42Y-93.38
X62.42Y-101.0
X62.46Y-119.38
X62.46Y-127.0
X63.5Y-42.5
X63.5Y-50.12
X64.88Y-68.38
X64.88Y-76.0
X64.96Y-93.38
X64.96Y-101.0
X65.0Y-119.38
X65.0Y-127.0
X66.04Y-42.5
X66.04Y-50.12
X67.42Y-68.38
X67.42Y-76.0
X67.5Y-93.38
X67.5Y-101.0
X67.54Y-119.38
X67.54Y-127.0
X68.58Y-42.5
X68.58Y-50.12
X69.96Y-68.38
X69.96Y-76.0
X70.04Y-93.38
X70.04Y-101.0
X70.08Y-119.38
X70.08Y-127.0
X71.12Y-42.5
X71.12Y-50.12
X72.5Y-68.38
X72.5Y-76.0
X72.58Y-93.38
X72.58Y-101.0
X72.62Y-119.38
X72.62Y-127.0
X83.61Y-68.38
X83.61Y-76.0
X83.61Y-93.38
X83.61Y-101.0
X84.76Y-119.38
X84.76Y-127.0
X84.8Y-42.5
X84.8Y-50.12
X86.15Y-68.38
X86.15Y-76.0
X86.15Y-93.38
X86.15Y-101.0
X87.3Y-119.38
X87.3Y-127.0
X87.34Y-42.5
X87.34Y-50.12
X88.69Y-68.38
X88.69Y-76.0
X88.69Y-93.38
X88.69Y-101.0
X89.84Y-119.38
X89.84Y-127.0
X89.88Y-42.5
X89.88Y-50.12
X91.23Y-68.38
X91.23Y-76.0
X91.23Y-93.38
X91.23Y-101.0
X92.38Y-119.38
X92.38Y-127.0
X92.42Y-42.5
X92.42Y-50.12
X93.77Y-68.38
X93.77Y-76.0
X93.77Y-93.38
X93.77Y-101.0
X94.92Y-119.38
X94.92Y-127.0
X94.96Y-42.5
X94.96Y-50.12
X96.31Y-68.38
X96.31Y-76.0
X96.31Y-93.38
X96.31Y-101.0
X97.46Y-119.38
X97.46Y-127.0
X97.5Y-42.5
X97.5Y-50.12
X98.85Y-68.38
X98.85Y-76.0
X98.85Y-93.38
X98.85Y-101.0
X100.0Y-119.38
X100.0Y-127.0
X100.04Y-42.5
X100.04Y-50.12
X109.71Y-93.38
X109.71Y-101.0
X112.25Y-93.38
X112.25Y-101.0
X112.3Y-119.38
X112.3Y-127.0
X112.42Y-42.5
X112.42Y-50.12
X112.42Y-68.38
X112.42Y-76.0
X114.79Y-93.38
X114.79Y-101.0
X114.84Y-119.38
X114.84Y-127.0
X114.96Y-42.5
X114.96Y-50.12
X114.96Y-68.38
X114.96Y-76.0
X117.38Y-119.38
X117.38Y-127.0
X117.5Y-42.5
X117.5Y-50.12
X117.5Y-68.38
X117.5Y-76.0
X117.96Y-93.38
X117.96Y-101.0
X119.92Y-119.38
X119.92Y-127.0
X120.04Y-42.5
X120.04Y-50.12
X120.04Y-68.38
X120.04Y-76.0
X120.5Y-93.38
X120.5Y-101.0
X122.46Y-119.38
X122.46Y-127.0
X122.58Y-42.5
X122.58Y-50.12
X122.58Y-68.38
X122.58Y-76.0
X123.04Y-93.38
X123.04Y-101.0
X125.0Y-119.38
X125.0Y-127.0
X125.12Y-42.5
X125.12Y-50.12
X125.12Y-68.38
X125.12Y-76.0
X126.17Y-93.38
X126.17Y-101.0
X127.54Y-119.38
X127.54Y-127.0
X127.66Y-42.5
X127.66Y-50.12
X127.66Y-68.38
X127.66Y-76.0
X128.71Y-93.38
X128.71Y-101.0
X131.25Y-93.38
X131.25Y-101.0
X140.99Y-119.38
X140.99Y-127.0
X141.23Y-68.38
X141.23Y-76.0
X141.23Y-93.38
X141.23Y-101.0
X142.54Y-42.5
X142.54Y-50.12
X143.53Y-119.38
X143.53Y-127.0
X143.77Y-68.38
X143.77Y-76.0
X143.77Y-93.38
X143.77Y-101.0
X145.08Y-42.5
X145.08Y-50.12
X146.07Y-119.38
X146.07Y-127.0
X146.31Y-68.38
X146.31Y-76.0
X146.31Y-93.38
X146.31Y-101.0
X147.62Y-42.5
X147.62Y-50.12
X148.61Y-119.38
X148.61Y-127.0
X148.85Y-68.38
X148.85Y-76.0
X148.85Y-93.38
X148.85Y-101.0
X150.16Y-42.5
X150.16Y-50.12
X151.15Y-119.38
X151.15Y-127.0
X151.39Y-68.38
X151.39Y-76.0
X151.39Y-93.38
X151.39Y-101.0
X152.7Y-42.5
X152.7Y-50.12
X153.69Y-119.38
X153.69Y-127.0
X153.93Y-68.38
X153.93Y-76.0
X153.93Y-93.38
X153.93Y-101.0
X155.24Y-42.5
X155.24Y-50.12
X156.23Y-119.38
X156.23Y-127.0
X156.47Y-68.38
X156.47Y-76.0
X156.47Y-93.38
X156.47Y-101.0
X157.78Y-42.5
X157.78Y-50.12
X158.77Y-119.38
X158.77Y-127.0
X168.73Y-93.38
X168.73Y-101.0
X169.88Y-119.38
X169.88Y-127.0
X170.0Y-42.5
X170.0Y-50.12
X170.0Y-68.38
X170.0Y-76.0
X171.27Y-93.38
X171.27Y-101.0
X172.42Y-119.38
X172.42Y-127.0
X172.54Y-42.5
X172.54Y-50.12
X172.54Y-68.38
X172.54Y-76.0
X173.81Y-93.38
X173.81Y-101.0
X174.96Y-119.38
X174.96Y-127.0
X175.08Y-42.5
X175.08Y-50.12
X175.08Y-68.38
X175.08Y-76.0
X176.35Y-93.38
X176.35Y-101.0
X177.5Y-119.38
X177.5Y-127.0
X177.62Y-42.5
X177.62Y-50.12
X177.62Y-68.38
X177.62Y-76.0
X178.89Y-93.38
X178.89Y-101.0
X180.04Y-119.38
X180.04Y-127.0
X180.16Y-42.5
X180.16Y-50.12
X180.16Y-68.38
X180.16Y-76.0
X181.43Y-93.38
X181.43Y-101.0
X182.58Y-119.38
X182.58Y-127.0
X182.7Y-42.5
X182.7Y-50.12
X182.7Y-68.38
X182.7Y-76.0
X183.97Y-93.38
X183.97Y-101.0
X185.12Y-119.38
X185.12Y-127.0
X185.24Y-42.5
X185.24Y-50.12
X185.24Y-68.38
X185.24Y-76.0
X186.51Y-93.38
X186.51Y-101.0
X187.66Y-119.38
X187.66Y-127.0
X187.78Y-68.38
X187.78Y-76.0
X198.62Y-42.5
X198.62Y-50.12
X198.73Y-93.38
X198.73Y-101.0
X199.76Y-119.38
X199.76Y-127.0
X200.0Y-68.38
X200.0Y-76.0
X201.16Y-42.5
X201.16Y-50.12
X201.27Y-93.38
X201.27Y-101.0
X202.3Y-119.38
X202.3Y-127.0
X202.54Y-68.38
X202.54Y-76.0
X203.7Y-42.5
X203.7Y-50.12
X203.81Y-93.38
X203.81Y-101.0
X204.84Y-119.38
X204.84Y-127.0
X205.08Y-68.38
X205.08Y-76.0
X206.24Y-42.5
X206.24Y-50.12
X206.35Y-93.38
X206.35Y-101.0
X207.38Y-119.38
X207.38Y-127.0
X207.62Y-68.38
X207.62Y-76.0
X208.78Y-42.5
X208.78Y-50.12
X208.89Y-93.38
X208.89Y-101.0
X209.92Y-119.38
X209.92Y-127.0
X210.16Y-68.38
X210.16Y-76.0
X211.32Y-42.5
X211.32Y-50.12
X211.43Y-93.38
X211.43Y-101.0
X212.46Y-119.38
X212.46Y-127.0
X212.7Y-68.38
X212.7Y-76.0
X213.86Y-42.5
X213.86Y-50.12
X213.97Y-93.38
X213.97Y-101.0
X215.0Y-119.38
X215.0Y-127.0
X215.24Y-68.38
X215.24Y-76.0
X216.51Y-93.38
X216.51Y-101.0
X217.54Y-119.38
X217.54Y-127.0
X217.78Y-68.38
X217.78Y-76.0
X228.61Y-119.38
X228.61Y-127.0
X228.73Y-42.5
X228.73Y-50.12
X230.0Y-68.38
X230.0Y-76.0
X230.0Y-93.38
X230.0Y-101.0
X231.15Y-119.38
X231.15Y-127.0
X231.27Y-42.5
X231.27Y-50.12
X232.54Y-68.38
X232.54Y-76.0
X232.54Y-93.38
X232.54Y-101.0
X233.69Y-119.38
X233.69Y-127.0
X233.81Y-42.5
X233.81Y-50.12
X235.08Y-68.38
X235.08Y-76.0
X235.08Y-93.38
X235.08Y-101.0
X236.23Y-119.38
X236.23Y-127.0
X236.35Y-42.5
X236.35Y-50.12
X237.62Y-68.38
X237.62Y-76.0
X237.62Y-93.38
X237.62Y-101.0
X238.77Y-119.38
X238.77Y-127.0
X238.89Y-42.5
X238.89Y-50.12
X240.16Y-68.38
X240.16Y-76.0
X240.16Y-93.38
X240.16Y-101.0
X241.31Y-119.38
X241.31Y-127.0
X241.43Y-42.5
X241.43Y-50.12
X242.7Y-68.38
X242.7Y-76.0
X242.7Y-93.38
X242.7Y-101.0
X243.85Y-119.38
X243.85Y-127.0
X243.97Y-42.5
X243.97Y-50.12
X245.24Y-68.38
X245.24Y-76.0
X245.24Y-93.38
X245.24Y-101.0
X246.51Y-42.5
X246.51Y-50.12
T5
X24.65Y-89.15
X30.05Y-136.0
X32.15Y-89.15
X37.55Y-136.0
X50.7Y-69.4
X50.7Y-74.4
X77.8Y-43.7
X77.8Y-48.7
X253.75Y-45.15
X253.75Y-70.85
X253.75Y-96.05
X253.75Y-122.05
X261.25Y-45.15
X261.25Y-70.85
X261.25Y-96.05
X261.25Y-122.05
T6
X27.56Y-62.467
X30.1Y-60.267
X32.64Y-62.467
M30
